<svg width="642" height="657" viewBox="0 0 642 657" fill="none" xmlns="http://www.w3.org/2000/svg">
<path d="M0.0623165 620.72C0.0623163 615.917 1.02079 611.331 2.75604 607.139C4.55975 602.782 7.1973 598.868 10.465 595.599C13.5344 592.529 17.1735 590.015 21.2145 588.225C17.1735 586.435 13.5344 583.921 10.465 580.85C7.1973 577.582 4.55975 573.668 2.75604 569.31C1.02078 565.12 0.0623139 560.532 0.0623137 555.73C0.0623135 550.929 1.02078 546.341 2.75603 542.15C4.55975 537.793 7.1973 533.878 10.465 530.61C13.552 527.522 17.2156 524.997 21.2838 523.205C17.2156 521.414 13.552 518.888 10.465 515.801C7.1973 512.532 4.55975 508.617 2.75603 504.26C1.02078 500.069 0.0623111 495.481 0.0623109 490.68C0.0623107 485.879 1.02078 481.291 2.75603 477.1C4.55975 472.743 7.19729 468.828 10.465 465.56C13.5344 462.489 17.1735 459.976 21.2145 458.186C17.1735 456.395 13.5344 453.882 10.465 450.811C7.19729 447.543 4.55974 443.629 2.75603 439.271C1.02078 435.081 0.0623082 430.493 0.062308 425.691C0.0623078 420.89 1.02078 416.302 2.75603 412.111C4.55974 407.754 7.19729 403.839 10.465 400.571C13.5406 397.494 17.1893 394.975 21.2417 393.185C17.1901 391.395 13.5406 388.876 10.465 385.799C7.19729 382.531 4.55974 378.616 2.75603 374.259C1.02078 370.068 0.0623054 365.48 0.0623052 360.678C0.062305 355.878 1.02077 351.29 2.75603 347.099C4.55974 342.741 7.19729 338.827 10.465 335.558C13.552 332.471 17.2147 329.945 21.2829 328.154C17.2147 326.362 13.552 323.836 10.465 320.749C7.19729 317.48 4.55974 313.566 2.75602 309.208C1.02077 305.017 0.0623025 300.429 0.0623023 295.629C0.0623021 290.827 1.02077 286.239 2.75602 282.048C4.55974 277.691 7.19729 273.776 10.465 270.508C13.5362 267.436 17.1778 264.92 21.2215 263.131C17.1778 261.341 13.5353 258.825 10.465 255.753C7.19728 252.485 4.55974 248.57 2.75602 244.214C1.02077 240.022 0.0622997 235.435 0.0622995 230.633C0.0622993 225.832 1.02077 221.244 2.75602 217.053C4.55973 212.696 7.19728 208.781 10.465 205.513C13.5537 202.424 17.2191 199.897 21.29 198.106C17.2314 196.315 13.5748 193.793 10.494 190.711C7.39828 187.614 4.86694 183.936 3.07463 179.851C1.54213 176.358 0.555575 172.569 0.22292 168.591L-2.13167e-05 168.591L0.0684408 166.947L0.0903837 166.271L0.0903837 164.914L0.0684406 164.234L-2.1579e-05 162.589L32.6073 162.589L32.6073 135.973C28.8831 135.663 25.3178 134.777 22.0009 133.403C17.6457 131.597 13.7319 128.959 10.465 125.691C7.19728 122.423 4.55973 118.508 2.75602 114.151C1.02076 109.96 0.062294 105.372 0.0622938 100.57C0.0622936 95.7696 1.02076 91.1813 2.75601 86.9906C4.55973 82.6332 7.19728 78.7192 10.465 75.4504C13.5318 72.3818 17.169 69.8691 21.2074 68.0789C17.169 66.2896 13.5318 63.7758 10.465 60.7082C7.19728 57.4395 4.55973 53.5245 2.75601 49.168C1.02076 44.9774 0.0622912 40.389 0.062291 35.5873C0.0622908 30.7856 1.02076 26.199 2.75601 22.0075C4.55973 17.6501 7.19727 13.736 10.465 10.4673C13.7319 7.19855 17.6456 4.56024 22.0009 2.75598C26.1911 1.0202 30.7772 0.0614 35.5775 0.0613998C40.3777 0.0613996 44.9638 1.0202 49.154 2.75598C53.5093 4.56024 57.423 7.19854 60.6899 10.4673C63.7768 13.5543 66.3012 17.219 68.0935 21.2884C69.884 17.219 72.4092 13.5543 75.4953 10.4673C78.763 7.19854 82.6768 4.56024 87.032 2.75598C91.2223 1.0202 95.8083 0.0613972 100.608 0.061397C105.408 0.0613968 109.994 1.0202 114.184 2.75598C118.54 4.56024 122.453 7.19854 125.721 10.4673C131.479 16.2269 135.269 23.9567 135.996 32.5565L162.669 32.5565L162.669 0.000847382L164.312 0.0693288L164.989 0.0921559L165.505 0.0930714L165.505 -7.23444e-06L167.149 0.0676196C171.679 0.253716 175.991 1.28802 179.925 3.01586C184.009 4.80871 187.685 7.3399 190.781 10.4374C193.862 13.5183 196.382 17.1751 198.172 21.2341C199.962 17.1804 202.48 13.5297 205.557 10.4524C208.824 7.18365 212.737 4.54528 217.093 2.74102C221.283 1.00524 225.869 0.0464989 230.669 0.0464987C235.469 0.0464985 240.055 1.00524 244.246 2.74102C248.601 4.54528 252.515 7.18364 255.782 10.4524C258.868 13.5385 261.391 17.1997 263.182 21.2674C264.973 17.1944 267.497 13.5271 270.587 10.4374C273.855 7.16869 277.768 4.53038 282.124 2.72612C286.314 0.990344 290.9 0.0316035 295.7 0.0316033C300.5 0.0316031 305.086 0.990343 309.276 2.72612C313.632 4.53038 317.545 7.16869 320.813 10.4374C323.884 13.5095 326.399 17.1523 328.188 21.1971C329.977 17.1575 332.489 13.5209 335.557 10.4524C338.824 7.18364 342.737 4.54527 347.093 2.74101C351.284 1.00523 355.869 0.0464932 360.669 0.046493C365.469 0.0464928 370.055 1.00523 374.246 2.74101C378.601 4.54527 382.515 7.18364 385.782 10.4524C388.868 13.5385 391.39 17.2005 393.181 21.2674C394.972 17.1944 397.498 13.5271 400.587 10.4374C403.855 7.16868 407.768 4.53038 412.124 2.72612C416.313 0.990338 420.9 0.0315978 425.7 0.0315976C430.5 0.0315974 435.087 0.990337 439.276 2.72612C443.632 4.53038 447.545 7.16868 450.813 10.4374C453.882 13.5077 456.395 17.1488 458.185 21.1901C459.974 17.1488 462.487 13.5077 465.556 10.4374C468.823 7.16868 472.737 4.53037 477.092 2.72611C481.283 0.990335 485.869 0.031595 490.669 0.0315948C495.469 0.0315946 500.054 0.990335 504.245 2.72611C508.601 4.53037 512.514 7.16868 515.781 10.4374C518.858 13.5147 521.376 17.1645 523.166 21.2173C524.955 17.1645 527.473 13.5147 530.549 10.4374C533.817 7.16868 537.731 4.53037 542.086 2.72611C546.276 0.990333 550.862 0.0315921 555.662 0.0315919C560.462 0.0315917 565.049 0.990332 569.238 2.72611C573.594 4.53037 577.507 7.16868 580.775 10.4374C583.864 13.5271 586.39 17.1944 588.181 21.2674C589.972 17.2005 592.494 13.5385 595.58 10.4524C598.847 7.18363 602.761 4.54526 607.116 2.741C611.306 1.00522 615.892 0.0464819 620.693 0.0464817C625.493 0.0464814 630.079 1.00522 634.269 2.741C638.624 4.54526 642.538 7.18363 645.806 10.4524C649.073 13.7202 651.71 17.6352 653.515 21.9917C655.25 26.1832 656.208 30.7707 656.208 35.5724C656.208 40.3741 655.25 44.9624 653.515 49.153C651.71 53.5096 649.073 57.4245 645.806 60.6924C642.739 63.76 639.105 66.2719 635.069 68.0613C639.11 69.8506 642.751 72.3643 645.82 75.4355C648.917 78.533 651.447 82.2108 653.239 86.2961C654.967 90.2303 656.001 94.543 656.187 99.0752L656.254 100.72L656.162 100.72L656.163 101.232L656.185 101.913L656.253 103.556L623.708 103.556L623.708 136.173L622.064 136.106L621.387 136.083L620.027 136.083L619.352 136.106L617.708 136.173L617.708 135.951C613.731 135.618 609.942 134.631 606.45 133.097C602.367 131.304 598.691 128.773 595.595 125.676C592.518 122.598 590.001 118.947 588.211 114.895C586.419 118.96 583.896 122.621 580.813 125.706C577.545 128.975 573.632 131.613 569.276 133.418C565.086 135.153 560.5 136.112 555.699 136.112C550.9 136.112 546.314 135.153 542.124 133.418C537.767 131.613 533.855 128.975 530.587 125.706C527.5 122.617 524.976 118.953 523.184 114.883C521.394 118.953 518.869 122.617 515.781 125.706C512.514 128.975 508.601 131.613 504.245 133.418C500.055 135.153 495.469 136.112 490.669 136.112C485.869 136.112 481.283 135.153 477.092 133.418C472.737 131.613 468.824 128.975 465.556 125.706C462.487 122.636 459.973 118.996 458.185 114.954C456.395 118.995 453.882 122.636 450.813 125.706C447.545 128.975 443.632 131.612 439.276 133.418C435.087 135.153 430.5 136.112 425.7 136.112C420.9 136.112 416.313 135.153 412.124 133.418C407.768 131.613 403.855 128.975 400.587 125.706C397.5 122.617 394.976 118.953 393.184 114.883C391.394 118.953 388.87 122.617 385.782 125.706C382.514 128.975 378.601 131.613 374.246 133.418C370.055 135.153 365.469 136.112 360.669 136.112C355.869 136.112 351.283 135.153 347.093 133.418C342.737 131.613 338.824 128.975 335.557 125.706C332.485 122.634 329.971 118.991 328.181 114.947C326.392 118.985 323.88 122.622 320.813 125.691C317.545 128.96 313.632 131.597 309.276 133.403C305.087 135.138 300.5 136.096 295.7 136.096C290.899 136.096 286.314 135.138 282.124 133.403C277.768 131.597 273.855 128.959 270.587 125.691C267.502 122.605 264.978 118.943 263.188 114.876C261.396 118.949 258.871 122.616 255.782 125.706C252.696 128.792 249.035 131.318 244.967 133.109C249.009 134.899 252.65 137.413 255.72 140.485C258.989 143.754 261.625 147.668 263.43 152.026C265.165 156.216 266.124 160.804 266.124 165.605C266.124 170.407 265.165 174.995 263.43 179.186C261.625 183.543 258.989 187.457 255.72 190.726C252.64 193.808 248.985 196.329 244.928 198.12C248.985 199.911 252.64 202.431 255.72 205.513C258.794 208.586 261.309 212.231 263.098 216.277C264.889 212.219 267.409 208.564 270.489 205.483C273.756 202.215 277.669 199.576 282.025 197.772C286.215 196.036 290.801 195.077 295.601 195.077C300.401 195.077 304.987 196.036 309.178 197.772C313.533 199.576 317.447 202.215 320.714 205.483C323.981 208.751 326.619 212.666 328.423 217.023C330.159 221.214 331.117 225.802 331.117 230.603C331.117 235.405 330.159 239.993 328.423 244.184C326.619 248.541 323.981 252.455 320.714 255.723C317.63 258.809 313.97 261.332 309.907 263.124C313.971 264.915 317.63 267.438 320.714 270.523C323.801 273.611 326.326 277.275 328.116 281.346C329.908 277.275 332.431 273.611 335.519 270.523C338.615 267.426 342.292 264.895 346.376 263.102C350.31 261.374 354.621 260.34 359.152 260.154L360.795 260.086L360.795 260.178L361.312 260.177L361.988 260.155L363.632 260.087L363.632 292.643L396.239 292.643L396.17 294.287L396.148 294.964L396.148 296.323L396.17 297L396.239 298.644L396.016 298.644C395.683 302.622 394.696 306.411 393.164 309.904C391.372 313.989 388.841 317.666 385.745 320.764C382.667 323.842 379.019 326.36 374.966 328.15C379.031 329.942 382.69 332.466 385.774 335.55C388.851 338.628 391.368 342.278 393.158 346.33C394.948 342.278 397.466 338.628 400.542 335.55C403.809 332.282 407.723 329.643 412.078 327.839C416.268 326.103 420.853 325.145 425.655 325.145C430.455 325.145 435.041 326.103 439.231 327.839C443.586 329.643 447.5 332.282 450.767 335.55C454.036 338.819 456.672 342.733 458.477 347.091C460.212 351.282 461.17 355.87 461.17 360.671C461.17 365.473 460.212 370.061 458.476 374.251C456.672 378.609 454.036 382.523 450.767 385.791C447.671 388.889 443.995 391.42 439.911 393.213C436.429 394.741 432.654 395.727 428.692 396.062L428.692 422.69L455.266 422.69C455.596 418.703 456.585 414.903 458.121 411.401C459.913 407.316 462.443 403.638 465.54 400.541C468.808 397.273 472.721 394.634 477.077 392.83C481.266 391.094 485.852 390.136 490.652 390.136C495.453 390.136 500.039 391.094 504.229 392.83C508.585 394.634 512.498 397.273 515.766 400.541C519.033 403.809 521.671 407.724 523.475 412.081C525.21 416.271 526.168 420.86 526.168 425.662C526.168 430.463 525.21 435.051 523.475 439.242C521.671 443.599 519.033 447.514 515.766 450.782C512.68 453.869 509.017 456.394 504.95 458.186C509.017 459.978 512.68 462.502 515.766 465.59C518.854 468.677 521.377 472.342 523.168 476.412C524.959 472.342 527.483 468.677 530.571 465.59C533.838 462.321 537.752 459.683 542.107 457.878C546.297 456.142 550.883 455.184 555.684 455.184C560.484 455.184 565.07 456.142 569.26 457.878C573.615 459.683 577.529 462.321 580.797 465.59C584.064 468.857 586.701 472.772 588.505 477.129C590.24 481.32 591.199 485.908 591.199 490.71C591.199 495.511 590.24 500.099 588.505 504.29C586.701 508.647 584.064 512.562 580.797 515.83C577.719 518.908 574.071 521.426 570.019 523.216C574.071 525.006 577.719 527.524 580.797 530.603C583.879 533.687 586.402 537.346 588.192 541.411C589.983 537.334 592.51 533.665 595.601 530.573C598.868 527.304 602.782 524.666 607.138 522.861C611.327 521.126 615.914 520.167 620.715 520.167C625.515 520.167 630.101 521.126 634.29 522.861C638.646 524.666 642.559 527.304 645.827 530.573C648.924 533.67 651.454 537.348 653.246 541.433C654.973 545.368 656.007 549.681 656.193 554.212L656.26 555.857L656.168 555.857L656.169 556.373L656.192 557.049L656.26 558.694L623.714 558.694L623.714 585.117L623.714 591.311L623.714 617.734L656.26 617.734L656.192 619.377L656.169 620.054L656.168 620.57L656.26 620.57L656.193 622.214C656.007 626.747 654.973 631.059 653.246 634.994C651.454 639.079 648.924 642.757 645.827 645.855C642.559 649.123 638.646 651.761 634.29 653.566C630.101 655.302 625.515 656.26 620.715 656.26C615.914 656.26 611.327 655.302 607.138 653.566C602.782 651.761 598.868 649.123 595.601 645.855C592.513 642.767 589.99 639.101 588.199 635.032C586.408 639.101 583.884 642.767 580.797 645.855C577.528 649.123 573.615 651.761 569.26 653.566C565.07 655.302 560.484 656.26 555.684 656.26C550.883 656.26 546.297 655.302 542.108 653.566C537.752 651.761 533.839 649.123 530.571 645.855C527.474 642.757 524.944 639.08 523.152 634.995C521.424 631.06 520.39 626.747 520.203 622.214L520.136 620.57L520.235 620.57L520.234 620.054L520.211 619.377L520.143 617.734L552.683 617.734L552.683 591.273L552.683 585.116L552.683 558.723L526.035 558.723C525.7 562.689 524.714 566.469 523.185 569.954C521.393 574.038 518.861 577.716 515.766 580.814C512.498 584.082 508.585 586.721 504.229 588.525C500.039 590.261 495.453 591.219 490.652 591.219C485.853 591.219 481.266 590.261 477.077 588.525C472.721 586.721 468.808 584.082 465.54 580.814C462.272 577.545 459.635 573.631 457.831 569.273C456.096 565.082 455.138 560.495 455.138 555.693C455.138 550.891 456.096 546.304 457.831 542.113C459.635 537.755 462.272 533.841 465.54 530.573C468.608 527.504 472.245 524.99 476.283 523.201C472.245 521.412 468.608 518.899 465.54 515.83C462.471 512.76 459.958 509.119 458.169 505.078C456.379 509.12 453.865 512.76 450.797 515.83C447.529 519.099 443.615 521.737 439.26 523.542C435.07 525.278 430.484 526.236 425.684 526.236C420.883 526.236 416.297 525.278 412.108 523.542C407.752 521.737 403.839 519.099 400.571 515.83C397.303 512.561 394.666 508.647 392.862 504.29C391.126 500.099 390.168 495.511 390.168 490.71C390.168 485.908 391.126 481.32 392.862 477.13C394.666 472.772 397.303 468.858 400.571 465.59C403.649 462.51 407.302 459.99 411.358 458.199C407.306 456.408 403.656 453.89 400.579 450.811C397.492 447.723 394.968 444.059 393.177 439.989C391.387 444.059 388.862 447.723 385.774 450.811C382.507 454.08 378.594 456.718 374.238 458.523C370.048 460.258 365.462 461.217 360.662 461.217C355.861 461.217 351.276 460.258 347.085 458.523C342.729 456.718 338.816 454.08 335.549 450.811C332.452 447.715 329.922 444.038 328.129 439.952C326.403 436.017 325.368 431.704 325.182 427.172L325.114 425.527L325.213 425.527L325.212 425.011L325.19 424.335L325.121 422.69L357.661 422.69L357.661 396.071C353.948 395.758 350.394 394.873 347.085 393.503C342.729 391.698 338.816 389.06 335.549 385.791C332.453 382.694 329.922 379.017 328.129 374.932C326.601 371.45 325.616 367.672 325.28 363.709L298.631 363.709L298.631 396.256L296.987 396.19L296.311 396.168L295.795 396.167L295.795 396.266L294.151 396.198C289.62 396.012 285.309 394.978 281.375 393.25C277.292 391.457 273.614 388.926 270.518 385.829C267.25 382.56 264.613 378.645 262.809 374.289C261.073 370.097 260.116 365.51 260.116 360.708C260.116 355.907 261.073 351.319 262.809 347.128C264.613 342.771 267.251 338.857 270.518 335.588C273.606 332.499 277.27 329.974 281.339 328.182C277.258 326.391 273.583 323.86 270.489 320.764C267.419 317.693 264.905 314.053 263.117 310.012C261.327 314.054 258.814 317.693 255.745 320.764C252.477 324.032 248.564 326.671 244.208 328.475C240.019 330.212 235.432 331.169 230.632 331.169C225.832 331.169 221.246 330.212 217.056 328.476C212.7 326.671 208.787 324.032 205.519 320.764C202.251 317.495 199.615 313.581 197.81 309.223C196.075 305.033 195.116 300.445 195.116 295.644C195.116 290.842 196.075 286.254 197.81 282.063C199.615 277.706 202.251 273.792 205.519 270.523C208.591 267.45 212.235 264.934 216.281 263.144C212.226 261.353 208.573 258.833 205.495 255.753C202.424 252.681 199.909 249.038 198.12 244.993C196.332 249.032 193.82 252.67 190.752 255.738C187.484 259.008 183.571 261.645 179.215 263.45C175.025 265.186 170.439 266.144 165.639 266.144C160.839 266.144 156.253 265.186 152.063 263.45C147.707 261.645 143.793 259.007 140.526 255.738C137.44 252.652 134.918 248.991 133.126 244.923C131.336 248.996 128.81 252.664 125.721 255.753C122.624 258.851 118.949 261.383 114.865 263.176C111.363 264.712 107.565 265.701 103.579 266.031L103.579 292.613L136.186 292.613L136.118 294.257L136.095 294.934L136.095 296.293L136.118 296.97L136.186 298.615L135.963 298.615C135.63 302.592 134.643 306.382 133.111 309.875C131.318 313.959 128.788 317.637 125.691 320.734C122.614 323.812 118.965 326.331 114.913 328.121C118.977 329.912 122.637 332.435 125.721 335.521C128.989 338.789 131.626 342.704 133.43 347.062C135.166 351.252 136.124 355.84 136.124 360.642C136.124 365.443 135.166 370.031 133.43 374.221C131.626 378.579 128.989 382.493 125.721 385.762C122.634 388.849 118.97 391.374 114.901 393.166C118.971 394.958 122.633 397.483 125.721 400.571C128.989 403.839 131.626 407.754 133.43 412.111C135.166 416.302 136.124 420.89 136.124 425.691C136.124 430.493 135.166 435.081 133.43 439.271C131.626 443.629 128.989 447.543 125.721 450.811C122.652 453.882 119.013 456.396 114.972 458.186C119.012 459.976 122.652 462.489 125.721 465.56C128.989 468.828 131.626 472.743 133.43 477.1C135.166 481.291 136.124 485.879 136.124 490.68C136.124 495.481 135.166 500.069 133.43 504.26C131.626 508.617 128.989 512.532 125.721 515.801C122.633 518.889 118.971 521.414 114.901 523.205C118.971 524.997 122.633 527.522 125.721 530.61C128.989 533.879 131.626 537.793 133.43 542.151C135.166 546.341 136.124 550.929 136.124 555.73C136.124 560.532 135.166 565.12 133.43 569.31C131.626 573.668 128.989 577.582 125.721 580.85C122.652 583.921 119.012 586.434 114.972 588.225C119.012 590.014 122.651 592.528 125.721 595.599C128.989 598.868 131.626 602.782 133.43 607.139C135.166 611.33 136.124 615.918 136.124 620.72C136.124 625.521 135.166 630.109 133.43 634.299C131.626 638.657 128.989 642.571 125.721 645.839C122.453 649.108 118.54 651.746 114.184 653.551C109.994 655.287 105.408 656.246 100.608 656.246C95.8084 656.246 91.2223 655.287 87.0321 653.551C82.6768 651.746 78.7631 649.108 75.4953 645.839C72.4075 642.751 69.884 639.087 68.0935 635.018C66.3012 639.087 63.7778 642.752 60.6899 645.839C57.4231 649.108 53.5093 651.746 49.1541 653.551C44.9638 655.287 40.3777 656.246 35.5775 656.246C30.7772 656.246 26.1912 655.287 22.0018 653.551C17.6457 651.746 13.7319 649.108 10.4651 645.839C7.1973 642.571 4.55975 638.656 2.75604 634.299C1.02079 630.108 0.0623168 625.521 0.0623165 620.72ZM588.198 606.437C589.988 602.367 592.513 598.702 595.6 595.614C598.684 592.529 602.344 590.005 606.409 588.213C602.344 586.422 598.684 583.899 595.6 580.814C592.516 577.729 589.995 574.07 588.204 570.006C586.413 574.081 583.886 577.752 580.796 580.843C577.72 583.92 574.072 586.438 570.021 588.228C574.072 590.019 577.72 592.537 580.796 595.614C583.883 598.702 586.407 602.367 588.198 606.437ZM647.732 632.642C648.956 629.867 649.765 626.872 650.082 623.735L617.713 623.735L617.713 591.356C614.578 591.672 611.583 592.483 608.808 593.707C605.447 595.191 602.411 597.288 599.842 599.857C597.114 602.586 594.92 605.836 593.429 609.438C591.991 612.911 591.198 616.726 591.198 620.735C591.198 624.743 591.991 628.558 593.429 632.03C594.92 635.632 597.115 638.883 599.842 641.611C602.57 644.339 605.819 646.534 609.421 648.027C612.891 649.465 616.706 650.259 620.714 650.259C624.721 650.259 628.535 649.464 632.006 648.027C635.612 646.532 638.862 644.338 641.587 641.614L641.584 641.611C644.152 639.042 646.248 636.005 647.732 632.642ZM650.082 552.692C649.765 549.556 648.955 546.56 647.732 543.785C646.248 540.422 644.152 537.385 641.584 534.816C638.856 532.088 635.607 529.893 632.006 528.401C628.535 526.963 624.721 526.17 620.714 526.17C616.706 526.17 612.892 526.963 609.42 528.401C605.819 529.893 602.57 532.088 599.842 534.816C597.115 537.544 594.92 540.794 593.429 544.397C591.991 547.869 591.198 551.685 591.198 555.693L591.198 555.723C591.201 559.721 591.995 563.525 593.429 566.989C594.92 570.591 597.114 573.841 599.842 576.57C602.411 579.139 605.447 581.236 608.808 582.72C611.583 583.944 614.578 584.754 617.713 585.071L617.713 552.692L650.082 552.692ZM526.314 623.735C526.631 626.872 527.44 629.867 528.664 632.643C530.147 636.005 532.243 639.042 534.812 641.611C537.539 644.339 540.789 646.534 544.39 648.027C547.861 649.465 551.675 650.259 555.683 650.259C559.69 650.259 563.504 649.464 566.974 648.027C570.577 646.534 573.826 644.339 576.553 641.611C579.281 638.883 581.474 635.633 582.967 632.031C584.404 628.558 585.198 624.743 585.198 620.735C585.198 616.726 584.404 612.91 582.967 609.438C581.475 605.835 579.281 602.586 576.553 599.857C573.985 597.288 570.949 595.191 567.587 593.707C564.813 592.483 561.818 591.672 558.683 591.356L558.683 623.735L526.314 623.735ZM556.789 526.219C556.422 526.23 556.053 526.236 555.683 526.236C555.312 526.236 554.944 526.23 554.577 526.219C550.973 526.351 547.539 527.126 544.39 528.43C540.788 529.923 537.539 532.117 534.812 534.846C532.244 537.415 530.147 540.452 528.665 543.814C527.44 546.589 526.631 549.585 526.314 552.722L558.683 552.722L558.683 585.101C561.818 584.784 564.813 583.973 567.587 582.75C570.949 581.266 573.985 579.169 576.553 576.6C579.281 573.871 581.475 570.621 582.967 567.019C584.403 563.547 585.198 559.732 585.198 555.723L585.198 555.693C585.193 551.695 584.4 547.89 582.967 544.426C581.475 540.824 579.281 537.574 576.553 534.846C573.825 532.117 570.577 529.922 566.975 528.43C563.825 527.126 560.392 526.351 556.789 526.219ZM541.347 523.216C537.295 521.426 533.646 518.907 530.57 515.83C527.483 512.743 524.958 509.078 523.167 505.008C521.376 509.078 518.852 512.742 515.765 515.83C510 521.596 502.262 525.39 493.652 526.111L493.652 552.692L520.3 552.692C520.636 548.726 521.622 544.946 523.15 541.462C524.943 537.377 527.473 533.7 530.57 530.603C533.647 527.524 537.295 525.006 541.347 523.216ZM582.967 479.413C581.475 475.812 579.281 472.562 576.553 469.833C573.826 467.105 570.577 464.91 566.975 463.417C563.504 461.98 559.69 461.186 555.683 461.186C551.675 461.186 547.86 461.98 544.39 463.417C540.788 464.91 537.539 467.105 534.812 469.833C532.084 472.562 529.89 475.812 528.399 479.413C526.961 482.885 526.168 486.701 526.168 490.71C526.168 494.719 526.961 498.534 528.399 502.007C529.89 505.608 532.084 508.858 534.812 511.586C537.539 514.315 540.788 516.51 544.389 518.002C547.542 519.307 550.977 520.082 554.584 520.213C554.949 520.202 555.315 520.197 555.683 520.197C556.05 520.197 556.416 520.202 556.781 520.213C560.388 520.082 563.823 519.307 566.975 518.002C570.577 516.51 573.826 514.315 576.553 511.586C579.281 508.858 581.474 505.608 582.967 502.007C584.403 498.534 585.198 494.718 585.198 490.71C585.198 486.701 584.403 482.885 582.967 479.413ZM489.237 520.2L490.816 520.135L490.816 520.227L491.282 520.227L491.452 520.223L491.849 520.21C495.42 520.068 498.821 519.295 501.945 518.002C505.553 516.507 508.802 514.314 511.523 511.592L511.528 511.586C514.249 508.865 516.442 505.615 517.935 502.007C519.373 498.534 520.167 494.719 520.167 490.71C520.167 486.701 519.373 482.885 517.935 479.413C516.444 475.811 514.25 472.562 511.523 469.833C508.955 467.264 505.919 465.166 502.557 463.683C499.782 462.46 496.788 461.649 493.652 461.332L493.652 493.711L461.283 493.711C461.6 496.848 462.41 499.843 463.634 502.619C465.117 505.981 467.213 509.017 469.781 511.586C472.509 514.315 475.757 516.51 479.359 518.002C482.418 519.27 485.745 520.036 489.237 520.2ZM487.652 526.315C484.516 526.632 481.521 527.442 478.747 528.667C475.385 530.15 472.349 532.247 469.781 534.816C467.054 537.544 464.86 540.794 463.368 544.397C461.931 547.869 461.137 551.685 461.137 555.693C461.137 559.702 461.931 563.517 463.368 566.989C464.86 570.591 467.054 573.841 469.781 576.57C472.509 579.298 475.757 581.493 479.36 582.986C482.83 584.423 486.645 585.218 490.651 585.218C494.66 585.218 498.474 584.423 501.945 582.985C505.546 581.493 508.795 579.298 511.523 576.57C514.09 574.001 516.188 570.964 517.67 567.602C518.894 564.826 519.704 561.831 520.021 558.694L487.652 558.694L487.652 526.315ZM487.652 455.092L487.652 428.662L461.078 428.662C460.748 432.65 459.76 436.449 458.223 439.952C456.432 444.037 453.9 447.715 450.804 450.811C447.537 454.08 443.623 456.718 439.268 458.523C435.957 459.894 432.398 460.781 428.683 461.093L428.683 487.71L455.112 487.71L461.229 487.71L487.652 487.71L487.652 461.28L487.652 455.092ZM463.634 413.753C462.41 416.529 461.6 419.524 461.283 422.661L493.652 422.661L493.652 455.04C496.788 454.722 499.783 453.912 502.557 452.688C505.919 451.204 508.955 449.107 511.523 446.539C514.25 443.81 516.444 440.56 517.935 436.958C519.373 433.486 520.167 429.67 520.167 425.662C520.167 421.653 519.373 417.837 517.935 414.364C516.444 410.763 514.251 407.513 511.523 404.784C508.796 402.056 505.546 399.861 501.945 398.369C498.474 396.931 494.66 396.137 490.651 396.137C486.645 396.137 482.83 396.931 479.36 398.368C475.757 399.861 472.509 402.056 469.781 404.784C467.213 407.353 465.117 410.39 463.634 413.753ZM423.231 455.114L424.327 455.161L425.003 455.183L426.362 455.183L427.039 455.161L428.164 455.113C431.27 454.857 434.234 454.122 436.984 452.983C440.585 451.492 443.834 449.297 446.562 446.568C449.13 443.999 451.227 440.962 452.71 437.599C453.934 434.824 454.744 431.828 455.06 428.692L422.691 428.692L422.691 396.313C419.556 396.63 416.561 397.44 413.787 398.664C410.425 400.148 407.389 402.245 404.82 404.814C402.093 407.543 399.899 410.793 398.408 414.395C396.97 417.868 396.175 421.682 396.175 425.691C396.175 429.7 396.97 433.515 398.408 436.988C399.899 440.59 402.093 443.84 404.82 446.568C407.548 449.297 410.797 451.491 414.399 452.983C417.152 454.124 420.121 454.86 423.231 455.114ZM452.702 502.619C453.925 499.843 454.735 496.848 455.052 493.711L422.683 493.711L422.683 461.332C419.547 461.649 416.553 462.459 413.778 463.683C410.416 465.167 407.38 467.264 404.812 469.833C402.084 472.562 399.89 475.812 398.399 479.414C396.961 482.886 396.168 486.701 396.168 490.71C396.168 494.718 396.961 498.534 398.399 502.006C399.89 505.608 402.084 508.858 404.812 511.586C407.539 514.315 410.789 516.51 414.39 518.002C417.86 519.439 421.675 520.234 425.683 520.234C429.69 520.234 433.505 519.439 436.976 518.002C440.577 516.51 443.826 514.315 446.554 511.586C449.122 509.017 451.218 505.981 452.702 502.619ZM393.176 411.393C394.967 407.324 397.491 403.659 400.578 400.571C403.675 397.474 407.351 394.943 411.435 393.149C414.916 391.621 418.692 390.635 422.654 390.299L422.654 363.671L396.05 363.671C395.737 367.385 394.853 370.942 393.483 374.251C391.678 378.609 389.041 382.523 385.774 385.791C382.695 388.87 379.043 391.39 374.988 393.18C379.043 394.972 382.695 397.491 385.774 400.571C388.861 403.659 391.386 407.324 393.176 411.393ZM390.175 360.835L390.107 360.835L390.157 359.613C390.031 355.991 389.255 352.539 387.944 349.374C386.453 345.772 384.259 342.523 381.532 339.794C378.963 337.225 375.927 335.128 372.566 333.644C369.791 332.42 366.796 331.61 363.661 331.293L363.661 363.671L331.292 363.671C331.609 366.808 332.418 369.804 333.642 372.579C335.125 375.941 337.222 378.979 339.79 381.548C342.517 384.276 345.766 386.471 349.368 387.963C352.133 389.108 355.116 389.845 358.24 390.097L359.304 390.142L359.984 390.164L361.341 390.164L362.017 390.142L363.086 390.097C366.209 389.844 369.19 389.108 371.953 387.963C375.554 386.471 378.804 384.276 381.532 381.548C384.26 378.819 386.453 375.569 387.944 371.968C389.363 368.542 390.153 364.784 390.175 360.835ZM398.636 348.762C397.411 351.537 396.602 354.533 396.284 357.67L428.654 357.67L428.654 390.049C431.789 389.732 434.784 388.921 437.558 387.697C440.92 386.214 443.957 384.117 446.525 381.548C449.252 378.819 451.446 375.569 452.938 371.967C454.375 368.495 455.169 364.679 455.169 360.671C455.169 356.662 454.375 352.847 452.938 349.374C451.446 345.773 449.252 342.523 446.525 339.794C443.798 337.066 440.549 334.871 436.947 333.379C433.476 331.941 429.661 331.147 425.654 331.147C421.646 331.147 417.831 331.941 414.361 333.379C410.76 334.871 407.51 337.066 404.783 339.794C402.215 342.363 400.118 345.4 398.636 348.762ZM331.292 428.692C331.609 431.828 332.418 434.824 333.642 437.599C335.125 440.963 337.222 444 339.79 446.568C342.517 449.297 345.766 451.491 349.368 452.983C352.839 454.422 356.653 455.215 360.661 455.215C364.669 455.215 368.483 454.422 371.953 452.983C375.554 451.491 378.804 449.297 381.532 446.568C384.259 443.84 386.453 440.591 387.944 436.988C389.382 433.516 390.175 429.7 390.175 425.691C390.175 421.682 389.382 417.867 387.944 414.395C386.453 410.793 384.26 407.543 381.532 404.814C378.963 402.245 375.927 400.148 372.566 398.664C369.791 397.44 366.796 396.63 363.661 396.313L363.661 428.692L331.292 428.692ZM357.66 331.046C353.937 330.737 350.372 329.85 347.055 328.475C342.7 326.671 338.787 324.033 335.518 320.764C332.431 317.676 329.907 314.011 328.116 309.941C326.325 314.011 323.8 317.676 320.714 320.764C317.625 323.853 313.961 326.378 309.892 328.169C313.973 329.961 317.648 332.492 320.742 335.588C323.84 338.686 326.37 342.364 328.163 346.448C329.69 349.929 330.676 353.706 331.012 357.67L357.66 357.67L357.66 331.046ZM357.63 266.266C354.495 266.582 351.5 267.393 348.726 268.617C345.364 270.1 342.328 272.197 339.76 274.766C337.033 277.495 334.839 280.745 333.347 284.347C331.91 287.819 331.116 291.635 331.116 295.644C331.116 299.652 331.91 303.468 333.347 306.94C334.839 310.542 337.033 313.792 339.76 316.52C342.487 319.249 345.736 321.443 349.338 322.936C352.77 324.357 356.538 325.15 360.496 325.167L360.496 325.113L361.502 325.154C365.192 325.049 368.705 324.269 371.924 322.936C375.525 321.444 378.774 319.249 381.502 316.52C384.07 313.951 386.166 310.915 387.649 307.552C388.873 304.777 389.683 301.781 390 298.644L357.63 298.644L357.63 266.266ZM283.726 387.735C286.5 388.959 289.495 389.77 292.63 390.087L292.63 357.707L324.999 357.707C324.682 354.571 323.872 351.575 322.648 348.799C321.166 345.437 319.069 342.401 316.5 339.832L316.5 339.825C313.78 337.104 310.531 334.911 306.924 333.417C303.452 331.979 299.638 331.184 295.63 331.184C291.622 331.184 287.808 331.978 284.337 333.416C280.736 334.908 277.487 337.103 274.76 339.832C272.033 342.559 269.837 345.81 268.346 349.412C266.908 352.884 266.115 356.699 266.115 360.708C266.115 364.717 266.908 368.532 268.346 372.004C269.837 375.607 272.032 378.857 274.76 381.586C277.328 384.154 280.364 386.251 283.726 387.735ZM292.6 260.025L292.6 233.604L266 233.604C265.69 237.33 264.803 240.896 263.429 244.214C261.625 248.571 258.987 252.485 255.719 255.753C252.452 259.022 248.54 261.66 244.183 263.465C240.882 264.832 237.335 265.717 233.631 266.032L233.631 292.643L260.06 292.643L266.175 292.643L292.6 292.643L292.6 266.221L292.6 260.025ZM260.123 230.768L260.053 230.768L260.103 229.555C259.974 225.939 259.199 222.497 257.892 219.337C256.399 215.735 254.205 212.484 251.478 209.756C248.91 207.188 245.874 205.09 242.512 203.606C239.738 202.382 236.743 201.572 233.607 201.255L233.607 233.634L201.238 233.634C201.555 236.771 202.364 239.767 203.589 242.542C205.071 245.905 207.168 248.942 209.736 251.511C212.463 254.239 215.713 256.434 219.315 257.926C222 259.038 224.891 259.766 227.917 260.038L229.275 260.094L229.951 260.116L231.311 260.116L231.987 260.094L233.255 260.041C236.297 259.772 239.201 259.043 241.9 257.926C245.501 256.434 248.75 254.239 251.478 251.511C254.205 248.782 256.399 245.532 257.892 241.929C259.313 238.496 260.104 234.727 260.123 230.768ZM268.581 218.696C267.358 221.471 266.549 224.466 266.232 227.602L298.6 227.602L298.6 259.982C301.736 259.665 304.731 258.854 307.506 257.63C310.867 256.147 313.903 254.05 316.471 251.481C319.199 248.753 321.393 245.502 322.884 241.9C324.322 238.428 325.115 234.612 325.115 230.603C325.115 226.594 324.322 222.779 322.884 219.306C321.392 215.705 319.199 212.455 316.471 209.727C313.744 206.998 310.495 204.804 306.893 203.311C303.422 201.873 299.608 201.079 295.6 201.079C291.593 201.079 287.779 201.873 284.307 203.311C280.706 204.804 277.457 206.998 274.73 209.727L274.726 209.723C272.162 212.289 270.067 215.327 268.581 218.696ZM266.232 298.644C266.549 301.781 267.358 304.777 268.582 307.552C270.065 310.915 272.162 313.951 274.73 316.52C277.457 319.249 280.706 321.444 284.307 322.936C287.778 324.374 291.593 325.167 295.6 325.167C299.609 325.167 303.422 324.373 306.894 322.935C310.501 321.44 313.751 319.248 316.471 316.526L316.477 316.52C319.198 313.799 321.389 310.549 322.884 306.941C324.321 303.468 325.115 299.652 325.115 295.644C325.115 291.635 324.322 287.819 322.884 284.346C321.393 280.745 319.199 277.495 316.471 274.766C313.902 272.197 310.866 270.1 307.506 268.617C304.731 267.393 301.736 266.582 298.6 266.266L298.6 298.644L266.232 298.644ZM257.649 307.552C258.873 304.777 259.683 301.782 260 298.644L227.631 298.644L227.631 266.266C224.495 266.582 221.5 267.393 218.726 268.617C215.364 270.1 212.328 272.197 209.76 274.766C207.033 277.495 204.839 280.745 203.347 284.348C201.91 287.82 201.115 291.635 201.115 295.644C201.115 299.652 201.91 303.468 203.347 306.94C204.839 310.542 207.033 313.792 209.76 316.52C212.487 319.249 215.736 321.443 219.338 322.936C222.809 324.373 226.624 325.167 230.631 325.167C234.639 325.167 238.453 324.374 241.924 322.936C245.525 321.443 248.775 319.249 251.502 316.52C254.07 313.952 256.166 310.915 257.649 307.552ZM168.638 195.218C172.351 195.531 175.906 196.416 179.214 197.787C183.57 199.591 187.483 202.23 190.751 205.498C194.018 208.766 196.656 212.681 198.459 217.038C199.831 220.351 200.718 223.913 201.029 227.632L227.607 227.632L227.607 201.006C223.894 200.694 220.339 199.808 217.03 198.438C212.674 196.632 208.761 193.995 205.494 190.726C202.227 187.457 199.589 183.543 197.785 179.186C196.413 175.872 195.528 172.31 195.216 168.591L168.638 168.591L168.638 195.218ZM133.119 216.328C134.911 212.255 137.436 208.588 140.526 205.498C143.605 202.417 147.26 199.896 151.318 198.105C147.26 196.314 143.605 193.793 140.526 190.711C137.441 187.627 134.92 183.967 133.129 179.903C131.338 183.98 128.811 187.649 125.72 190.741C122.644 193.818 118.995 196.337 114.944 198.127C118.995 199.917 122.643 202.435 125.72 205.513C128.805 208.599 131.329 212.261 133.119 216.328ZM186.508 209.741C183.781 207.013 180.532 204.818 176.93 203.325C174.111 202.158 171.065 201.414 167.873 201.177L166.994 201.14L166.317 201.118L164.962 201.118L164.282 201.14L163.409 201.176C160.215 201.413 157.166 202.157 154.345 203.326C150.744 204.818 147.495 207.013 144.768 209.741C142.04 212.469 139.845 215.72 138.354 219.321C136.916 222.794 136.123 226.609 136.123 230.618L136.123 230.633C136.125 234.637 136.919 238.447 138.354 241.915C139.846 245.517 142.04 248.767 144.768 251.495C147.495 254.224 150.744 256.419 154.345 257.91C157.816 259.349 161.63 260.142 165.638 260.142C169.646 260.142 173.459 259.349 176.931 257.91C180.532 256.419 183.781 254.224 186.508 251.495C189.235 248.767 191.43 245.517 192.922 241.914C194.195 238.837 194.964 235.489 195.122 231.977L195.06 230.469L195.152 230.469C195.133 226.515 194.341 222.751 192.922 219.322C191.431 215.72 189.235 212.469 186.508 209.741ZM198.126 151.231C199.915 147.192 202.427 143.554 205.494 140.485C208.761 137.217 212.675 134.578 217.031 132.774C220.358 131.396 223.934 130.507 227.668 130.2L227.668 103.586L201.02 103.586C200.684 107.553 199.699 111.332 198.17 114.816C196.377 118.9 193.847 122.579 190.751 125.676C187.668 128.76 184.01 131.282 179.949 133.073C184.01 134.864 187.668 137.387 190.751 140.47C193.822 143.542 196.336 147.186 198.126 151.231ZM251.478 144.729C248.751 142.001 245.502 139.806 241.9 138.313C238.717 136.995 235.245 136.218 231.599 136.098L230.504 136.143L230.504 136.082C226.534 136.095 222.755 136.888 219.314 138.313C215.713 139.806 212.463 142.001 209.736 144.729C207.009 147.457 204.815 150.707 203.323 154.309C202.049 157.387 201.28 160.734 201.122 164.247L201.184 165.755L201.093 165.755L201.093 165.793C201.117 169.734 201.908 173.483 203.323 176.901C204.815 180.504 207.008 183.754 209.736 186.483C212.463 189.211 215.713 191.406 219.315 192.898C222.136 194.067 225.183 194.81 228.377 195.048L229.251 195.084L229.927 195.106L231.284 195.106L231.963 195.084L232.831 195.048C236.027 194.811 239.077 194.067 241.9 192.898C245.501 191.406 248.75 189.211 251.478 186.483C254.205 183.754 256.4 180.504 257.892 176.901C259.328 173.43 260.123 169.614 260.123 165.605C260.123 161.596 259.328 157.782 257.892 154.309C256.4 150.707 254.205 147.457 251.478 144.729ZM165.638 130.065C165.873 130.065 166.108 130.067 166.343 130.072C170.093 129.984 173.664 129.201 176.931 127.848C180.532 126.356 183.78 124.162 186.508 121.433C189.077 118.864 191.173 115.827 192.656 112.464C193.88 109.689 194.69 106.693 195.006 103.556L162.638 103.556L162.638 71.1781C159.502 71.495 156.507 72.3055 153.733 73.5294C150.371 75.0123 147.336 77.1098 144.768 79.6788C142.04 82.4076 139.845 85.6578 138.354 89.2593C136.916 92.7309 136.123 96.5466 136.123 100.555L136.123 100.57C136.125 104.574 136.919 108.384 138.354 111.852C139.846 115.455 142.04 118.704 144.768 121.433C147.495 124.161 150.744 126.356 154.345 127.848C157.611 129.201 161.183 129.984 164.933 130.072C165.168 130.067 165.403 130.065 165.638 130.065ZM133.116 151.308C134.907 147.233 137.433 143.563 140.526 140.47C143.608 137.387 147.266 134.864 151.327 133.073C147.266 131.282 143.608 128.76 140.526 125.676C137.439 122.589 134.917 118.928 133.125 114.861C131.335 118.933 128.809 122.602 125.72 125.691C122.632 128.779 118.97 131.304 114.901 133.095C118.97 134.887 122.632 137.412 125.72 140.5C128.804 143.585 131.325 147.244 133.116 151.308ZM195.006 162.589C194.69 159.453 193.88 156.458 192.656 153.682C191.173 150.32 189.077 147.283 186.508 144.714C183.78 141.985 180.532 139.791 176.931 138.299C173.666 136.946 170.096 136.163 166.347 136.075C166.111 136.08 165.875 136.082 165.638 136.082C165.401 136.082 165.165 136.08 164.929 136.075C161.18 136.163 157.61 136.946 154.345 138.299C150.744 139.791 147.495 141.986 144.768 144.714C142.04 147.442 139.846 150.692 138.354 154.294C136.916 157.767 136.123 161.582 136.123 165.591L136.123 165.621C136.127 169.619 136.92 173.424 138.354 176.887C139.845 180.49 142.04 183.739 144.768 186.468C147.336 189.037 150.371 191.134 153.733 192.617C156.507 193.841 159.502 194.652 162.638 194.969L162.638 162.589L195.006 162.589ZM620.706 65.0296C621.198 65.0296 621.688 65.0401 622.176 65.0603C625.641 64.8891 628.944 64.1244 631.984 62.8645C635.585 61.3728 638.834 59.1778 641.562 56.4491C644.289 53.7212 646.484 50.4709 647.975 46.8685C649.413 43.3961 650.206 39.5812 650.206 35.5724C650.206 31.5634 649.413 27.7486 647.975 24.2771C646.484 20.6739 644.289 17.4236 641.562 14.6957C638.834 11.9677 635.585 9.77194 631.984 8.28025C628.512 6.84299 624.699 6.04837 620.691 6.04837C616.683 6.04837 612.869 6.84299 609.398 8.28025C605.797 9.7728 602.548 11.9677 599.82 14.6957C597.093 17.4236 594.898 20.6739 593.407 24.2771C591.971 27.7442 591.178 31.5538 591.176 35.5574L591.176 35.5724C591.176 39.5812 591.969 43.3969 593.407 46.8685C594.898 50.4709 597.093 53.7212 599.82 56.4491C602.548 59.1778 605.797 61.3728 609.398 62.8645C612.442 64.1253 615.749 64.8909 619.22 65.0603C619.713 65.0401 620.208 65.0296 620.706 65.0296ZM585.314 97.5844C585.623 93.86 586.51 90.2936 587.884 86.9757C589.688 82.6183 592.325 78.7042 595.593 75.4355C598.659 72.3678 602.294 69.8559 606.329 68.0674C602.288 66.2781 598.648 63.7636 595.578 60.6924C592.489 57.6028 589.964 53.9363 588.172 49.8624C586.382 53.9302 583.858 57.5922 580.773 60.6783C577.676 63.7749 574 66.307 569.917 68.0999C566.436 69.6276 562.66 70.6136 558.698 70.9499L558.698 97.5844L585.314 97.5844ZM650.074 97.5545C649.758 94.4184 648.948 91.4227 647.724 88.6474C646.241 85.2847 644.144 82.2478 641.576 79.6787C638.849 76.9509 635.6 74.7559 631.999 73.2633C628.955 72.0034 625.648 71.2378 622.179 71.0675C621.685 71.0877 621.189 71.0982 620.691 71.0982C620.199 71.0982 619.709 71.0885 619.222 71.0683C615.755 71.2395 612.453 72.0043 609.413 73.2633C605.811 74.7559 602.562 76.9509 599.835 79.6787C597.107 82.4076 594.913 85.6578 593.421 89.2593C592 92.6922 591.208 96.4615 591.191 100.421L591.244 100.421L591.203 101.426C591.309 105.117 592.089 108.632 593.422 111.852C594.913 115.454 597.107 118.704 599.835 121.433C602.403 124.002 605.439 126.099 608.8 127.582C611.575 128.806 614.57 129.617 617.706 129.934L617.706 97.5545L650.074 97.5545ZM523.182 86.2873C524.974 82.2179 527.498 78.5532 530.585 75.4653C533.682 72.3678 537.358 69.8366 541.442 68.0437C544.923 66.5152 548.698 65.5301 552.661 65.1938L552.661 38.5584L526.057 38.5584C525.744 42.2723 524.86 45.829 523.489 49.1381C521.685 53.4955 519.047 57.4096 515.78 60.6783C512.7 63.7591 509.046 66.2807 504.987 68.0718C509.045 69.8629 512.7 72.3836 515.78 75.4653C518.868 78.5532 521.392 82.2179 523.182 86.2873ZM582.716 112.494C583.94 109.719 584.75 106.723 585.067 103.586L552.697 103.586L552.697 71.208C549.562 71.5249 546.567 72.3344 543.793 73.5592C540.43 75.043 537.395 77.1396 534.827 79.7086C532.099 82.4365 529.906 85.6868 528.414 89.2892C526.977 92.7616 526.182 96.5764 526.182 100.585C526.182 104.594 526.977 108.41 528.414 111.881C529.906 115.485 532.099 118.734 534.827 121.463C537.554 124.191 540.804 126.386 544.405 127.877C547.875 129.316 551.69 130.109 555.697 130.109C559.706 130.109 563.52 129.316 566.991 127.877C570.592 126.386 573.841 124.191 576.569 121.463C579.136 118.894 581.233 115.857 582.716 112.494ZM520.181 35.7216L520.113 35.7216L520.163 34.5003C520.037 30.8778 519.262 27.4273 517.951 24.2613C516.46 20.6589 514.266 17.4095 511.538 14.6808C508.811 11.9529 505.561 9.75785 501.96 8.2653C498.49 6.82804 494.675 6.03349 490.667 6.03349C486.66 6.03349 482.846 6.82804 479.374 8.2653C475.773 9.75785 472.524 11.9529 469.797 14.6808C467.229 17.2497 465.132 20.2867 463.648 23.6493C462.425 26.4247 461.615 29.4203 461.299 32.5565L493.667 32.5565L493.667 64.9356C496.803 64.6188 499.798 63.8083 502.573 62.5844C505.933 61.1006 508.97 59.004 511.538 56.435C514.266 53.7071 516.459 50.4568 517.951 46.8544C519.369 43.4294 520.16 39.6708 520.181 35.7216ZM528.642 23.6493C527.418 26.4247 526.608 29.4203 526.291 32.5565L558.66 32.5565L558.66 64.9356C561.796 64.6187 564.791 63.8083 567.565 62.5844C570.927 61.1006 573.963 59.004 576.531 56.435C579.258 53.7062 581.452 50.456 582.945 46.8536C584.38 43.3864 585.174 39.576 585.176 35.5724L585.176 35.5574C585.176 31.5486 584.381 27.7337 582.945 24.2622C581.452 20.6589 579.258 17.4086 576.531 14.6808C573.804 11.9529 570.555 9.75699 566.952 8.2653C563.482 6.82804 559.668 6.03348 555.661 6.03348C551.653 6.03348 547.839 6.82712 544.368 8.2653C540.767 9.75785 537.517 11.9529 534.789 14.6808C532.221 17.2497 530.125 20.2867 528.642 23.6493ZM487.667 64.9673L487.667 38.5584L461.244 38.5584L455.127 38.5584L428.698 38.5584L428.698 64.9673L428.698 71.1755L428.698 97.5844L455.127 97.5844L461.244 97.5844L487.667 97.5844L487.667 71.1755L487.667 64.9673ZM461.299 103.586C461.615 106.723 462.425 109.719 463.649 112.494C465.132 115.857 467.229 118.894 469.797 121.463C472.525 124.191 475.773 126.386 479.374 127.877C482.845 129.316 486.66 130.109 490.667 130.109C494.675 130.109 498.49 129.316 501.96 127.877C505.561 126.385 508.811 124.191 511.538 121.463C514.266 118.734 516.459 115.485 517.951 111.882C519.389 108.41 520.182 104.594 520.182 100.585C520.182 96.5764 519.389 92.7607 517.951 89.2892C516.46 85.6868 514.266 82.4374 511.538 79.7086C508.969 77.1396 505.933 75.0422 502.572 73.5592C499.798 72.3345 496.803 71.5249 493.667 71.208L493.667 103.586L461.299 103.586ZM393.182 86.2883C394.974 82.2179 397.498 78.5532 400.585 75.4653C403.666 72.3836 407.32 69.8629 411.378 68.0718C407.32 66.2807 403.666 63.7591 400.585 60.6783C397.5 57.5922 394.976 53.9301 393.186 49.8633C391.395 53.9354 388.869 57.6028 385.781 60.6924C382.703 63.7706 379.055 66.2886 375.003 68.0788C379.055 69.8699 382.704 72.388 385.781 75.4653C388.868 78.5532 391.392 82.2179 393.182 86.2883ZM452.716 112.494C453.94 109.719 454.75 106.723 455.067 103.586L422.698 103.586L422.698 71.208C419.562 71.5249 416.568 72.3345 413.793 73.5592C410.431 75.043 407.395 77.1396 404.827 79.7086C402.099 82.4374 399.906 85.6877 398.414 89.29C396.976 92.7616 396.182 96.5764 396.182 100.585C396.182 104.594 396.976 108.41 398.414 111.881C399.906 115.484 402.1 118.734 404.827 121.463C407.555 124.191 410.804 126.385 414.405 127.877C417.876 129.316 421.691 130.109 425.698 130.109C429.706 130.109 433.521 129.316 436.991 127.877C440.592 126.385 443.841 124.191 446.569 121.463C449.137 118.894 451.233 115.857 452.716 112.494ZM455.067 32.5565C454.75 29.4203 453.941 26.4247 452.716 23.6493C451.233 20.2867 449.137 17.2497 446.569 14.6808C443.841 11.9529 440.592 9.757 436.99 8.2653C433.52 6.82805 429.706 6.03349 425.698 6.03349C421.691 6.03349 417.877 6.82713 414.406 8.2653C410.804 9.75786 407.555 11.9529 404.827 14.6808C402.099 17.4095 399.906 20.6598 398.414 24.2622C396.976 27.7337 396.182 31.5486 396.182 35.5574L396.182 35.5724C396.184 39.576 396.979 43.3864 398.414 46.8536C399.906 50.456 402.099 53.7062 404.827 56.435C407.395 59.004 410.431 61.1006 413.793 62.5844C416.568 63.8083 419.562 64.6188 422.698 64.9357L422.698 32.5565L455.067 32.5565ZM298.699 65.1709C302.411 65.4827 305.966 66.3685 309.274 67.7391C313.63 69.5433 317.543 72.1817 320.811 75.4504C324.079 78.7192 326.716 82.6332 328.52 86.9906C329.893 90.3041 330.778 93.8652 331.089 97.5844L357.667 97.5844L357.667 70.9727C353.955 70.6601 350.4 69.7751 347.092 68.4037C342.735 66.5995 338.823 63.9611 335.555 60.6924C332.287 57.4245 329.65 53.5096 327.845 49.153C326.473 45.8395 325.587 42.2784 325.276 38.5584L298.699 38.5584L298.699 65.1709ZM263.179 86.2803C266.753 78.1528 273.243 71.6514 281.362 68.0648C277.31 66.2737 273.662 63.7557 270.585 60.6783C267.5 57.5922 264.977 53.9301 263.186 49.8633C261.395 53.9363 258.869 57.6028 255.781 60.6924C252.704 63.7706 249.055 66.2886 245.003 68.0788C249.055 69.8691 252.704 72.3871 255.781 75.4653C258.866 78.5514 261.388 82.2126 263.179 86.2803ZM316.569 79.6937C313.842 76.965 310.593 74.7709 306.991 73.2792C304.279 72.1553 301.356 71.424 298.297 71.1588L297.055 71.107L296.374 71.0851L295.018 71.0851L294.342 71.107L293.093 71.1597C290.035 71.4257 287.116 72.1553 284.405 73.2783C280.804 74.7709 277.555 76.965 274.827 79.6937C272.1 82.4216 269.906 85.6719 268.414 89.2751C266.977 92.7467 266.183 96.5615 266.183 100.57L266.183 100.585C266.185 104.589 266.979 108.399 268.414 111.867C269.906 115.469 272.1 118.719 274.827 121.447C280.168 126.79 287.547 130.094 295.698 130.094C299.706 130.094 303.521 129.3 306.991 127.863C310.6 126.367 313.848 124.175 316.569 121.453L316.569 121.447C319.296 118.719 321.49 115.469 322.982 111.867C324.256 108.79 325.024 105.442 325.182 101.929L325.121 100.421L325.213 100.421C325.193 96.4667 324.402 92.7028 322.982 89.2743C321.49 85.6719 319.297 82.4225 316.569 79.6937ZM381.538 14.6957C378.811 11.9678 375.561 9.77281 371.96 8.28026C368.49 6.843 364.675 6.04838 360.667 6.04839C356.66 6.04839 352.846 6.843 349.375 8.28026C345.773 9.77281 342.524 11.9678 339.797 14.6957C337.069 17.4236 334.876 20.6739 333.383 24.2753C332.11 27.3536 331.342 30.7004 331.183 34.2132L331.245 35.7216L331.153 35.7216L331.153 35.7602C331.178 39.7007 331.969 43.4514 333.383 46.8694C334.876 50.4718 337.069 53.7212 339.797 56.4491C342.524 59.1778 345.773 61.3728 349.375 62.8645C352.087 63.9883 355.01 64.7188 358.071 64.9848L359.311 65.0367L359.991 65.0586L361.348 65.0586L362.023 65.0367L363.27 64.9839C366.329 64.7179 369.249 63.9883 371.96 62.8654C375.561 61.3728 378.811 59.1778 381.538 56.4491C384.266 53.7212 386.46 50.4717 387.951 46.8685C389.389 43.397 390.182 39.5812 390.182 35.5724L390.182 35.5574C390.181 31.5538 389.387 27.7442 387.951 24.2762C386.459 20.6739 384.266 17.4236 381.538 14.6957ZM331.299 103.586C331.616 106.723 332.426 109.719 333.649 112.494C335.132 115.857 337.229 118.894 339.797 121.463C342.524 124.191 345.773 126.385 349.375 127.877C352.845 129.316 356.66 130.109 360.667 130.109C364.675 130.109 368.49 129.316 371.96 127.877C375.561 126.386 378.811 124.191 381.538 121.463C384.266 118.734 386.46 115.485 387.951 111.881C389.389 108.41 390.182 104.594 390.182 100.585C390.182 96.5764 389.389 92.7616 387.951 89.2892C386.46 85.6868 384.266 82.4365 381.538 79.7086C378.97 77.1396 375.934 75.043 372.573 73.5592C369.798 72.3345 366.803 71.5249 363.667 71.208L363.667 103.586L331.299 103.586ZM325.067 32.5565C324.75 29.4203 323.94 26.4247 322.716 23.6493C321.234 20.2867 319.137 17.2497 316.569 14.6808C313.842 11.9529 310.593 9.75786 306.991 8.26531C303.52 6.82805 299.706 6.0335 295.698 6.0335C291.691 6.0335 287.877 6.82805 284.406 8.26531C280.799 9.75963 277.549 11.9537 274.825 14.6781C272.101 17.4025 269.908 20.6545 268.414 24.2622C266.977 27.7338 266.183 31.5494 266.183 35.5574L266.183 35.5724C266.185 39.576 266.979 43.3855 268.414 46.8536C269.906 50.456 272.1 53.7062 274.827 56.435C277.395 59.004 280.431 61.1006 283.793 62.5844C286.568 63.8083 289.562 64.6188 292.698 64.9357L292.698 32.5565L325.067 32.5565ZM201.168 34.5812C201.178 34.9051 201.182 35.2308 201.182 35.5574C201.182 35.8893 201.177 36.2203 201.168 36.5505C201.286 40.202 202.063 43.6805 203.383 46.8685C204.875 50.4709 207.069 53.7212 209.797 56.4491C212.524 59.1778 215.773 61.3728 219.375 62.8645C222.527 64.1709 225.962 64.9453 229.568 65.0761C229.934 65.0656 230.3 65.0594 230.667 65.0594C231.035 65.0594 231.402 65.0656 231.767 65.0761C235.373 64.9453 238.808 64.1709 241.96 62.8645C245.561 61.3728 248.811 59.1778 251.539 56.4491C254.266 53.7212 256.46 50.4717 257.952 46.8685C259.389 43.397 260.182 39.5812 260.182 35.5724L260.182 35.5574C260.181 31.5538 259.387 27.7443 257.951 24.2762C256.46 20.6739 254.266 17.4236 251.539 14.6957C248.811 11.9678 245.561 9.77282 241.96 8.28026C238.49 6.84209 234.675 6.04839 230.667 6.04839C226.66 6.04839 222.846 6.84209 219.375 8.28026C215.773 9.77282 212.524 11.9678 209.797 14.6957C207.07 17.4236 204.875 20.6739 203.383 24.2771C202.065 27.4615 201.288 30.934 201.168 34.5812ZM198.164 49.8967C196.374 53.9504 193.857 57.601 190.779 60.6783C187.512 63.9471 183.599 66.5854 179.243 68.3896C175.926 69.7637 172.36 70.6504 168.637 70.9604L168.637 97.5546L195.286 97.5546C195.621 93.5878 196.607 89.809 198.136 86.3251C199.928 82.2399 202.458 78.5619 205.555 75.4653C208.631 72.3871 212.281 69.8691 216.332 68.0788C212.28 66.2886 208.631 63.7706 205.555 60.6924C202.474 57.6116 199.954 53.9565 198.164 49.8967ZM151.299 68.0499C147.26 66.2606 143.623 63.7477 140.554 60.6783C137.462 57.5861 134.934 53.9152 133.143 49.8378C131.351 53.9266 128.819 57.608 125.719 60.7082C122.652 63.7767 119.014 66.2904 114.977 68.0797C119.014 69.8691 122.652 72.381 125.719 75.4504C128.805 78.5365 131.328 82.1986 133.118 86.2654C134.909 82.1924 137.435 78.526 140.525 75.4355C143.599 72.359 147.248 69.8409 151.299 68.0499ZM177.571 8.53136C174.797 7.30657 171.802 6.49706 168.667 6.18011L168.667 38.5584L136.298 38.5584C136.615 41.6954 137.425 44.6911 138.648 47.4664C140.131 50.8291 142.228 53.866 144.797 56.4351C147.524 59.1629 150.773 61.3588 154.374 62.8505C157.479 64.1367 160.859 64.9076 164.406 65.056L165.801 64.998L165.801 65.0823C169.76 65.0648 173.528 64.2719 176.959 62.8505C180.561 61.3579 183.81 59.1629 186.537 56.4351C189.264 53.7062 191.459 50.456 192.951 46.8536C194.268 43.6691 195.045 40.1967 195.165 36.5505C195.157 36.2256 195.152 35.899 195.152 35.5724C195.152 35.2396 195.157 34.9077 195.165 34.5767C195.048 30.9261 194.27 27.4493 192.951 24.2622C191.459 20.6589 189.264 17.4086 186.537 14.6808C183.969 12.1117 180.933 10.0151 177.571 8.53136ZM231.769 71.0816C231.403 71.093 231.036 71.0983 230.667 71.0983C230.3 71.0983 229.932 71.093 229.567 71.0816C225.961 71.2132 222.526 71.9877 219.375 73.2932C215.773 74.7858 212.524 76.9807 209.797 79.7086C207.229 82.2776 205.132 85.3146 203.649 88.6772C202.425 91.4525 201.616 94.4474 201.299 97.5844L233.667 97.5844L233.667 129.964C236.803 129.647 239.798 128.836 242.573 127.612C245.934 126.129 248.97 124.031 251.539 121.463C254.266 118.734 256.46 115.485 257.952 111.881C259.389 108.41 260.182 104.594 260.182 100.585L260.182 100.57C260.181 96.5668 259.387 92.7572 257.952 89.29C256.457 85.6816 254.265 82.4313 251.541 79.706L251.539 79.7086C248.811 76.9807 245.561 74.7858 241.96 73.2932C238.808 71.9877 235.374 71.2132 231.769 71.0816ZM64.9995 38.5892L38.5758 38.5892L38.5758 65.0138L38.5758 71.1387L38.5758 97.5695L65.2172 97.5695C65.5297 93.8556 66.4144 90.2989 67.7845 86.9897C69.5891 82.6332 72.2258 78.7183 75.4935 75.4504C78.7604 72.1817 82.6742 69.5433 87.0303 67.7391C90.3384 66.3685 93.894 65.4827 97.6059 65.171L97.6059 38.5892L71.183 38.5892L64.9995 38.5892ZM23.6703 62.6143C26.4448 63.8382 29.4405 64.6486 32.5757 64.9655L32.5757 32.5872L64.9451 32.5872C64.6282 29.4502 63.8181 26.4545 62.5946 23.6792C61.1112 20.3165 59.0152 17.2796 56.447 14.7106C53.7191 11.9818 50.4697 9.78686 46.8684 8.29516C43.3971 6.85705 39.5834 6.06335 35.5757 6.06335C31.568 6.06335 27.7543 6.85791 24.283 8.29516C20.6817 9.78778 17.4324 11.9818 14.7053 14.7106C11.9773 17.4385 9.78391 20.6888 8.29179 24.2912C6.85409 27.7636 6.06063 31.5784 6.06063 35.5873C6.06063 39.5962 6.85409 43.4119 8.29179 46.8834C9.78392 50.4858 11.9773 53.7361 14.7053 56.4649C17.2726 59.0339 20.3095 61.1305 23.6703 62.6143ZM102.026 71.0798L100.443 71.1448L100.443 71.0473L100.419 71.0473C96.4789 71.0719 92.7302 71.863 89.3132 73.2783C85.7128 74.77 82.4635 76.965 79.7355 79.6937C77.0076 82.4225 74.8142 85.6719 73.3221 89.2743C71.9168 92.6703 71.1269 96.3947 71.0926 100.308L71.0926 100.833C71.1269 104.746 71.9168 108.471 73.3229 111.867C74.8142 115.469 77.0085 118.719 79.7355 121.447C82.4635 124.176 85.7119 126.371 89.3132 127.863C92.7846 129.301 96.5983 130.094 100.606 130.094C104.615 130.094 108.429 129.3 111.9 127.863C115.501 126.371 118.75 124.176 121.477 121.447C124.204 118.719 126.399 115.469 127.891 111.867C129.328 108.395 130.122 104.58 130.122 100.57L130.122 100.555C130.119 96.5519 129.326 92.7414 127.891 89.2743C126.4 85.6719 124.205 82.4225 121.477 79.6937C118.75 76.965 115.501 74.7709 111.9 73.2783C108.841 72.0113 105.515 71.2449 102.026 71.0798ZM103.607 64.9655C106.742 64.6486 109.737 63.8382 112.511 62.6143C115.873 61.1305 118.909 59.0339 121.477 56.4649C124.204 53.7361 126.399 50.4867 127.891 46.8834C129.328 43.4119 130.122 39.5962 130.122 35.5873C130.122 31.5784 129.328 27.7636 127.891 24.2912C126.399 20.6888 124.204 17.4385 121.477 14.7106C118.749 11.9818 115.5 9.78778 111.899 8.29516C108.428 6.85705 104.615 6.06335 100.606 6.06335C96.5992 6.06335 92.7846 6.85791 89.3141 8.29516C85.7119 9.78778 82.4635 11.9818 79.7355 14.7106C77.1673 17.2796 75.0713 20.3165 73.588 23.6792C72.3645 26.4545 71.5543 29.4502 71.2375 32.5864L103.607 32.5864L103.607 64.9655ZM86.3132 133.095C82.2441 131.304 78.5813 128.779 75.4935 125.691C72.4066 122.603 69.8823 118.939 68.0917 114.869C66.3003 118.939 63.7751 122.603 60.6882 125.691C57.6144 128.767 53.9675 131.284 49.9185 133.073C53.9797 134.865 57.6363 137.388 60.718 140.47C63.8014 143.554 66.3222 147.212 68.1128 151.274C69.9025 147.223 72.4189 143.576 75.4935 140.5C78.5813 137.411 82.2441 134.887 86.3132 133.095ZM32.5757 71.1931C29.4405 71.5101 26.4457 72.3195 23.6712 73.5443C20.3095 75.0281 17.2735 77.1248 14.7053 79.6937C11.9773 82.4216 9.78392 85.6719 8.29179 89.2743C6.85409 92.7467 6.06063 96.5615 6.06063 100.57C6.06063 104.579 6.85409 108.395 8.29179 111.867C9.78392 115.469 11.9773 118.719 14.7053 121.447C17.4324 124.176 20.6817 126.371 24.2821 127.863C27.7149 129.284 31.4829 130.077 35.4414 130.094L35.4414 130.033L36.5517 130.079C40.2031 129.96 43.6806 129.183 46.8693 127.863C50.4697 126.371 53.7191 124.176 56.447 121.447C59.0152 118.879 61.1112 115.842 62.5946 112.479C63.8181 109.704 64.6282 106.708 64.9451 103.571L32.5757 103.571L32.5757 71.1931ZM70.9926 168.621C70.6784 172.325 69.7936 175.871 68.427 179.171C66.6233 183.529 63.9858 187.443 60.718 190.711C57.6293 193.801 53.9631 196.328 49.8922 198.119C53.9517 199.909 57.6074 202.431 60.6882 205.513C63.7751 208.6 66.2994 212.265 68.0917 216.334C69.8823 212.265 72.4075 208.6 75.4935 205.513C78.7613 202.244 82.6742 199.606 87.0303 197.802C90.3384 196.431 93.8932 195.545 97.6059 195.233L97.6059 168.621L70.9926 168.621ZM36.0751 201.114C35.9189 201.115 35.7627 201.116 35.6056 201.116C35.4388 201.116 35.272 201.115 35.1061 201.113C31.2696 201.172 27.6183 201.96 24.283 203.341C20.6817 204.834 17.4324 207.028 14.7053 209.756C11.9773 212.484 9.78392 215.735 8.2918 219.337C6.85409 222.809 6.06064 226.624 6.06064 230.633C6.06064 234.642 6.8541 238.457 8.2918 241.929C9.78392 245.532 11.9773 248.782 14.7053 251.511C17.2735 254.08 20.3095 256.177 23.6712 257.66C26.4457 258.884 29.4405 259.694 32.5757 260.011L32.5757 227.632L64.9451 227.632C64.6282 224.496 63.8181 221.5 62.5946 218.725C61.1112 215.362 59.0152 212.325 56.447 209.756C53.7191 207.028 50.4697 204.833 46.8685 203.341C43.5419 201.963 39.9002 201.177 36.0751 201.114ZM47.5101 138.564C44.7356 137.34 41.7417 136.53 38.6056 136.213L38.6056 168.591L6.23618 168.591C6.55303 171.728 7.36229 174.723 8.58671 177.498C10.0701 180.861 12.1661 183.898 14.7343 186.468C17.4622 189.196 20.7115 191.391 24.3128 192.883C27.6376 194.26 31.2766 195.047 35.0991 195.111C35.258 195.108 35.416 195.107 35.5757 195.107C35.7442 195.107 35.9136 195.108 36.0822 195.111C39.9152 195.05 43.5647 194.264 46.8983 192.883C50.4996 191.391 53.7489 189.196 56.476 186.468C59.2039 183.739 61.3982 180.489 62.8895 176.887C64.0393 174.11 64.7766 171.114 65.0258 167.975L65.068 166.977L65.0899 166.301L65.0899 164.941L65.068 164.264L65.0215 163.143C64.766 160.027 64.0314 157.052 62.8895 154.294C61.3982 150.692 59.2031 147.442 56.476 144.714C53.9078 142.145 50.8726 140.048 47.5101 138.564ZM101.663 201.128L100.443 201.178L100.443 201.11C96.4947 201.131 92.7372 201.923 89.3141 203.341C85.7128 204.834 82.4635 207.028 79.7356 209.756C77.1673 212.325 75.0714 215.362 73.588 218.725C72.3645 221.5 71.5543 224.496 71.2375 227.632L103.607 227.632L103.607 260.011C106.742 259.694 109.737 258.884 112.511 257.659C115.873 256.176 118.909 254.08 121.477 251.511C124.205 248.782 126.399 245.532 127.891 241.929C129.328 238.457 130.122 234.642 130.122 230.633L130.122 230.618C130.119 226.615 129.326 222.804 127.891 219.337C126.399 215.735 124.204 212.484 121.477 209.756C118.75 207.028 115.501 204.834 111.899 203.341C108.735 202.03 105.284 201.255 101.663 201.128ZM103.607 194.998C106.742 194.682 109.737 193.871 112.511 192.647C115.873 191.163 118.909 189.067 121.477 186.498C124.205 183.769 126.4 180.519 127.891 176.917C129.328 173.445 130.122 169.63 130.122 165.621L130.122 165.591C130.118 161.593 129.324 157.788 127.891 154.324C126.399 150.722 124.204 147.471 121.477 144.744C118.75 142.016 115.501 139.821 111.9 138.328C108.428 136.891 104.615 136.096 100.606 136.096C96.5983 136.096 92.7846 136.891 89.3132 138.328C85.7128 139.82 82.4635 142.015 79.7356 144.744C77.1673 147.313 75.0714 150.349 73.588 153.712C72.3645 156.487 71.5543 159.483 71.2375 162.619L103.607 162.619L103.607 194.998ZM64.9995 233.634L38.5758 233.634L38.5758 260.228C42.2885 260.541 45.8442 261.426 49.1523 262.796C53.5084 264.601 57.4213 267.239 60.6882 270.508C63.7654 273.586 66.2827 277.236 68.0733 281.289C69.863 277.23 72.3838 273.575 75.4637 270.494C78.5603 267.396 82.2371 264.865 86.3202 263.072C89.8214 261.536 93.6193 260.547 97.6059 260.216L97.6059 233.634L71.1831 233.634L64.9995 233.634ZM35.7399 266.105L35.7399 266.191L34.2942 266.132C30.7553 266.282 27.3822 267.053 24.283 268.336C20.6817 269.828 17.4324 272.023 14.7053 274.751C11.9773 277.48 9.78393 280.73 8.2918 284.332C6.8541 287.804 6.06064 291.619 6.06064 295.629C6.06064 299.637 6.8541 303.452 8.2918 306.925C9.78393 310.527 11.9773 313.777 14.7053 316.505C17.4324 319.234 20.6817 321.428 24.283 322.921C27.7535 324.358 31.5681 325.153 35.5757 325.153C39.5834 325.153 43.398 324.358 46.8685 322.921C50.4697 321.428 53.7191 319.234 56.447 316.505C59.1741 313.777 61.3684 310.527 62.8596 306.925C64.1797 303.736 64.9574 300.258 65.075 296.607C65.0662 296.277 65.0618 295.946 65.0618 295.614C65.0618 295.287 65.0662 294.961 65.075 294.636C64.9556 290.99 64.1788 287.517 62.8596 284.332C61.3684 280.73 59.1741 277.48 56.447 274.751C53.7191 272.023 50.4697 269.828 46.8685 268.336C43.4454 266.919 39.6878 266.127 35.7399 266.105ZM97.6059 331.017C93.8826 330.707 90.3174 329.82 87.0004 328.445C82.6443 326.641 78.7314 324.003 75.4637 320.734C72.3873 317.656 69.8691 314.006 68.0794 309.952C66.2898 314.012 63.769 317.668 60.6882 320.749C57.6012 323.837 53.9385 326.362 49.8694 328.154C53.9385 329.945 57.6012 332.47 60.6882 335.558C63.7848 338.655 66.3161 342.334 68.1084 346.418C69.6356 349.9 70.6213 353.677 70.9575 357.64L97.6059 357.64L97.6059 331.017ZM97.577 266.236C94.4409 266.553 91.4461 267.363 88.6725 268.588C85.31 270.07 82.2739 272.168 79.7057 274.736C76.9786 277.465 74.7843 280.715 73.2931 284.318C71.973 287.505 71.1962 290.982 71.0777 294.633C71.0865 294.964 71.0918 295.295 71.0918 295.629C71.0918 295.955 71.0874 296.281 71.0777 296.607C71.198 300.253 71.9748 303.726 73.2931 306.91C74.7843 310.512 76.9786 313.762 79.7057 316.49C82.4337 319.219 85.683 321.414 89.2834 322.906C92.7153 324.327 96.4833 325.12 100.443 325.137L100.443 325.083L101.448 325.124C105.137 325.018 108.651 324.239 111.87 322.906C115.478 321.411 118.727 319.218 121.447 316.497L121.447 316.49C124.016 313.921 126.112 310.885 127.595 307.523C128.819 304.747 129.629 301.752 129.946 298.615L97.577 298.615L97.577 266.236ZM86.3132 393.166C82.245 391.374 78.5805 388.849 75.4935 385.762C72.3969 382.664 69.8665 378.986 68.0742 374.901C66.5469 371.42 65.5613 367.643 65.226 363.679L38.5758 363.679L38.5758 390.291C42.2885 390.603 45.8442 391.489 49.1523 392.859C53.5075 394.664 57.4213 397.303 60.6882 400.571C63.7751 403.658 66.2994 407.323 68.0917 411.393C69.8823 407.323 72.4066 403.658 75.4935 400.571C78.5814 397.483 82.2441 394.958 86.3132 393.166ZM112.512 333.615C109.738 332.391 106.742 331.58 103.607 331.263L103.607 363.642L71.2375 363.642C71.5543 366.779 72.3645 369.774 73.588 372.55C75.0714 375.912 77.1674 378.949 79.7356 381.518C82.4635 384.246 85.7128 386.441 89.3141 387.934C92.7846 389.371 96.5983 390.165 100.606 390.165C104.615 390.165 108.428 389.371 111.899 387.934C115.501 386.441 118.75 384.246 121.477 381.518C124.205 378.789 126.4 375.539 127.891 371.938C129.328 368.465 130.122 364.65 130.122 360.642C130.122 356.633 129.328 352.817 127.89 349.345C126.399 345.742 124.204 342.493 121.477 339.764C118.909 337.195 115.873 335.098 112.512 333.615ZM35.7399 396.167L35.7399 396.236L34.5154 396.186C30.8957 396.312 27.4472 397.088 24.283 398.398C20.6817 399.891 17.4324 402.086 14.7053 404.814C11.9774 407.543 9.78393 410.793 8.29181 414.395C6.8541 417.867 6.06064 421.682 6.06065 425.691C6.06065 429.7 6.8541 433.515 8.29181 436.988C9.78393 440.59 11.9774 443.84 14.7053 446.568C17.2735 449.137 20.3095 451.235 23.6712 452.718C26.4457 453.942 29.4405 454.753 32.5757 455.07L32.5757 422.69L64.9451 422.69C64.6282 419.554 63.8181 416.559 62.5946 413.783C61.1112 410.42 59.0152 407.383 56.447 404.814C53.7191 402.086 50.4697 399.891 46.8685 398.398C43.4445 396.98 39.6878 396.189 35.7399 396.167ZM23.6721 387.705C26.4457 388.929 29.4405 389.74 32.5757 390.056L32.5757 357.677L64.9451 357.677C64.6282 354.541 63.8181 351.545 62.5946 348.77C61.1112 345.408 59.0152 342.371 56.447 339.802C53.7191 337.073 50.4697 334.879 46.8693 333.386C43.398 331.949 39.5834 331.154 35.5757 331.154C31.5681 331.154 27.7535 331.949 24.2821 333.386C20.6817 334.878 17.4324 337.073 14.7053 339.802C11.9773 342.53 9.78393 345.78 8.29181 349.382C6.8541 352.854 6.06064 356.67 6.06064 360.678C6.06064 364.687 6.8541 368.503 8.29181 371.975C9.78305 375.577 11.9774 378.827 14.7053 381.556L14.7018 381.559C17.2674 384.123 20.3043 386.219 23.6721 387.705ZM64.9995 428.692L38.5758 428.692L38.5758 455.123L38.5758 461.242L38.5758 487.68L64.9995 487.68L71.1831 487.68L97.6059 487.68L97.6059 461.242L97.6059 455.123L97.6059 428.692L71.1831 428.692L64.9995 428.692ZM103.607 455.07C106.742 454.753 109.737 453.942 112.511 452.717C115.873 451.235 118.909 449.137 121.477 446.568C124.204 443.84 126.399 440.591 127.891 436.988C129.328 433.516 130.122 429.7 130.122 425.691C130.122 421.682 129.328 417.867 127.891 414.395C126.399 410.793 124.205 407.543 121.477 404.814C118.749 402.086 115.5 399.891 111.899 398.398C108.428 396.961 104.615 396.167 100.606 396.167C96.5992 396.167 92.7846 396.961 89.3141 398.398C85.712 399.891 82.4635 402.086 79.7356 404.814C77.1674 407.383 75.0714 410.42 73.588 413.783C72.3645 416.559 71.5543 419.553 71.2375 422.69L103.607 422.69L103.607 455.07ZM86.3132 523.205C82.2441 521.414 78.5814 518.889 75.4935 515.801C72.4075 512.713 69.8823 509.048 68.0917 504.979C66.3003 509.048 63.7751 512.713 60.6882 515.801C57.6012 518.888 53.9376 521.414 49.8694 523.205C53.9385 524.997 57.6012 527.522 60.6882 530.61C63.776 533.698 66.3003 537.362 68.0909 541.432C69.8823 537.362 72.4066 533.697 75.4935 530.61C78.5814 527.522 82.2441 524.997 86.3132 523.205ZM112.511 463.654C109.737 462.43 106.742 461.619 103.607 461.302L103.607 493.682L71.2375 493.682C71.5543 496.818 72.3645 499.813 73.588 502.589C75.0714 505.951 77.1674 508.988 79.7356 511.556C82.4635 514.285 85.712 516.48 89.3132 517.972C92.7846 519.41 96.5983 520.204 100.606 520.204C104.615 520.204 108.428 519.41 111.9 517.972C115.501 516.48 118.75 514.285 121.477 511.556C124.204 508.829 126.399 505.579 127.89 501.977C129.328 498.504 130.122 494.689 130.122 490.68C130.122 486.671 129.328 482.856 127.891 479.384C126.4 475.782 124.205 472.532 121.477 469.803C118.909 467.234 115.873 465.137 112.511 463.654ZM32.5757 461.302C29.4405 461.619 26.4457 462.429 23.6712 463.654C20.3095 465.137 17.2735 467.234 14.7053 469.803C11.9774 472.532 9.78393 475.782 8.29181 479.384C6.85411 482.856 6.06065 486.671 6.06065 490.68C6.06065 494.689 6.85411 498.504 8.29181 501.976C9.78394 505.579 11.9774 508.829 14.7053 511.556C17.4324 514.285 20.6817 516.48 24.2821 517.972C27.7535 519.41 31.5681 520.204 35.5757 520.204C39.5834 520.204 43.398 519.41 46.8693 517.972C50.4698 516.48 53.7191 514.285 56.447 511.556C59.0152 508.988 61.1112 505.951 62.5946 502.589C63.8181 499.813 64.6283 496.818 64.9451 493.682L32.5757 493.682L32.5757 461.302ZM65.2172 617.718C65.5297 614.004 66.4144 610.447 67.7845 607.138C69.5891 602.782 72.2258 598.868 75.4936 595.599C78.7613 592.33 82.6742 589.692 87.0303 587.887C90.3384 586.517 93.8932 585.631 97.6059 585.319L97.6059 558.731L70.9654 558.731C70.6538 562.445 69.7682 566.001 68.3981 569.31C66.5935 573.668 63.9559 577.583 60.6882 580.85C57.4213 584.119 53.5084 586.758 49.1523 588.562C45.8442 589.932 42.2885 590.818 38.5758 591.13L38.5758 617.718L65.2172 617.718ZM79.7356 599.842C77.0085 602.57 74.8142 605.82 73.3221 609.423C71.9168 612.819 71.1269 616.543 71.0927 620.456L71.0927 620.982C71.1269 624.895 71.916 628.619 73.3221 632.016C74.8142 635.618 77.0085 638.869 79.7356 641.596C82.4635 644.324 85.712 646.519 89.3141 648.012C92.7846 649.449 96.5992 650.244 100.606 650.244C104.615 650.244 108.428 649.449 111.899 648.012C115.501 646.519 118.749 644.324 121.477 641.596C124.204 638.869 126.399 635.618 127.891 632.016C129.328 628.543 130.122 624.729 130.122 620.72C130.122 616.71 129.328 612.895 127.891 609.423C126.399 605.82 124.204 602.57 121.477 599.842C118.75 597.113 115.501 594.919 111.899 593.427C108.821 592.152 105.472 591.383 101.958 591.226L100.443 591.287L100.443 591.196C96.4947 591.217 92.7372 592.009 89.3141 593.427C85.7128 594.919 82.4635 597.113 79.7356 599.842ZM14.7053 534.853C11.9774 537.582 9.78394 540.831 8.29181 544.434C6.85411 547.906 6.06065 551.722 6.06065 555.73C6.06065 559.739 6.85411 563.554 8.29181 567.027C9.78394 570.628 11.9774 573.879 14.7053 576.607C17.4324 579.335 20.6817 581.53 24.283 583.023C27.3612 584.297 30.7097 585.067 34.224 585.224L35.7399 585.161L35.7399 585.254L35.7636 585.254C39.7019 585.229 43.4515 584.438 46.8685 583.023C50.4698 581.53 53.7191 579.335 56.447 576.607C59.1741 573.879 61.3684 570.628 62.8605 567.027C64.2658 563.631 65.0566 559.906 65.0899 555.993L65.0899 555.468C65.0566 551.555 64.2658 547.83 62.8596 544.434C61.3684 540.832 59.1741 537.582 56.447 534.853C53.7191 532.125 50.4706 529.93 46.8685 528.438C43.398 527 39.5834 526.206 35.5757 526.206C31.5681 526.206 27.7535 527 24.283 528.438C20.6817 529.93 17.4324 532.125 14.7053 534.853ZM103.607 585.108C106.742 584.791 109.737 583.98 112.511 582.757C115.873 581.273 118.909 579.176 121.477 576.607C124.205 573.878 126.4 570.628 127.891 567.027C129.328 563.555 130.122 559.739 130.122 555.73C130.122 551.722 129.328 547.906 127.891 544.433C126.399 540.831 124.204 537.582 121.477 534.853C118.75 532.125 115.501 529.93 111.9 528.438C108.428 527 104.615 526.206 100.606 526.206C96.5983 526.206 92.7846 527 89.3132 528.438C85.7128 529.93 82.4635 532.124 79.7356 534.853C77.1674 537.422 75.0714 540.459 73.588 543.821C72.3645 546.597 71.5543 549.592 71.2375 552.73L103.607 552.73L103.607 585.108ZM32.5757 591.341C29.4405 591.658 26.4457 592.468 23.6712 593.692C20.3096 595.176 17.2735 597.273 14.7053 599.842C11.9774 602.57 9.78394 605.82 8.29182 609.424C6.85411 612.895 6.06065 616.71 6.06065 620.72C6.06065 624.728 6.85411 628.543 8.29182 632.015C9.78306 635.617 11.9774 638.869 14.7053 641.596C17.4324 644.324 20.6817 646.519 24.283 648.012C27.7544 649.449 31.5681 650.244 35.5757 650.244C39.5834 650.244 43.3971 649.45 46.8685 648.012C50.4698 646.519 53.7191 644.324 56.447 641.596C59.0152 639.027 61.1112 635.99 62.5946 632.627C63.8181 629.852 64.6283 626.857 64.9451 623.72L32.5757 623.72L32.5757 591.341Z" fill="#D7F200"/>
</svg>
