<svg width="109" height="34" viewBox="0 0 109 34" fill="none" xmlns="http://www.w3.org/2000/svg">
<g clip-path="url(#clip0_383_4307)">
<path fill-rule="evenodd" clip-rule="evenodd" d="M66.4041 26.4714C64.988 26.4714 63.9212 27.182 63.4453 28.261C63.0528 27.0815 62.0853 26.4714 60.7669 26.4714C59.4485 26.4714 58.4393 27.0815 57.962 28.1198V26.5282H57.2891V33.943H57.9907V29.9938C57.9907 28.2319 59.0143 27.1106 60.6691 27.1106C62.0996 27.1106 62.9551 27.9916 62.9551 29.6677V33.943H63.6567V29.9938C63.6567 28.2319 64.6803 27.1106 66.3351 27.1106C67.7656 27.1106 68.621 27.9916 68.621 29.6677V33.943H69.3226V29.6109C69.3226 27.5373 68.1724 26.4714 66.4055 26.4714H66.4041ZM77.4182 33.3605C75.9173 33.3605 74.7815 32.5086 74.4307 31.1442L80.6157 29.9225C80.5179 27.9479 79.1291 26.4699 77.1796 26.4699C75.1036 26.4699 73.617 28.0324 73.617 30.2341C73.617 32.4358 75.1884 33.9983 77.4039 33.9983C78.5253 33.9983 79.5216 33.5862 80.1671 32.7911L79.7602 32.3222C79.1995 33.0183 78.357 33.359 77.4182 33.359V33.3605ZM77.1796 27.0961C78.6805 27.0961 79.7185 28.1896 79.9141 29.5104L74.3315 30.6185C74.3171 30.4758 74.3028 30.32 74.3028 30.1788C74.3028 28.3746 75.4946 27.0961 77.1781 27.0961H77.1796ZM90.7873 23.4032V28.2479C90.1979 27.1252 89.1038 26.4728 87.7998 26.4728C85.7382 26.4728 84.1811 28.0076 84.1811 30.237C84.1811 32.4664 85.7382 34.0012 87.7998 34.0012C89.1182 34.0012 90.2266 33.3474 90.8017 32.197V33.9444H91.4889V23.4032H90.7873ZM87.8415 33.3619C86.158 33.3619 84.8957 32.098 84.8957 30.237C84.8957 28.376 86.158 27.1121 87.8415 27.1121C89.525 27.1121 90.7873 28.376 90.7873 30.237C90.7873 32.098 89.525 33.3619 87.8415 33.3619ZM96.9895 24.7254C97.3116 24.7254 97.5646 24.4691 97.5646 24.143C97.5646 23.8168 97.3116 23.5751 96.9895 23.5751C96.6675 23.5751 96.4144 23.8445 96.4144 24.1575C96.4144 24.4706 96.6675 24.7254 96.9895 24.7254ZM96.6387 33.9444H97.3403V26.5296H96.6387V33.9444ZM108.297 26.5296V28.2479C107.708 27.1252 106.613 26.4728 105.309 26.4728C103.248 26.4728 101.691 28.0076 101.691 30.237C101.691 32.4664 103.248 34.0012 105.309 34.0012C106.628 34.0012 107.736 33.3474 108.311 32.197V33.9444H108.999V26.5296H108.297ZM105.351 33.3619C103.668 33.3619 102.405 32.098 102.405 30.237C102.405 28.376 103.668 27.1121 105.351 27.1121C107.035 27.1121 108.297 28.376 108.297 30.237C108.297 32.098 107.035 33.3619 105.351 33.3619ZM8.57439 20.8156C5.9923 20.8156 3.91771 19.8691 2.35063 17.9776C0.783542 16.086 0 13.6105 0 10.5511C0 7.49172 0.826673 4.90702 2.48146 2.95139C4.16212 0.984115 6.2367 -0.000252819 8.70522 -0.000252819C10.8114 -0.000252819 12.8673 0.373982 14.8729 1.12391L19.1788 0.114784L19.8933 0.171575V20.5113H14.7421L14.9678 18.892C13.6897 19.5648 12.5855 20.0541 11.6582 20.3584C10.718 20.6627 9.69004 20.8156 8.57439 20.8156ZM9.96608 16.6073C11.5461 16.6073 13.1621 16.2957 14.8168 15.6739V10.2468C14.8168 8.54598 14.8039 6.89469 14.7795 5.29582C14.2274 5.04245 13.4827 4.80655 12.5424 4.59104C11.6151 4.37552 10.7683 4.26777 10.0035 4.26777C8.69947 4.26777 7.55938 4.81383 6.58175 5.90595C5.60412 6.98497 5.11531 8.45861 5.11531 10.324C5.11531 12.1893 5.5538 13.6251 6.43223 14.8191C7.30922 16.0132 8.48813 16.6088 9.96751 16.6088L9.96608 16.6073ZM31.4207 20.8156C28.6129 20.8156 25.8669 20.2128 23.1856 19.0071L24.7455 15.2938C27.3406 16.2709 29.6337 16.7602 31.6278 16.7602C32.5551 16.7602 33.3386 16.6073 33.9784 16.303C34.6182 15.9855 34.9373 15.4773 34.9373 14.7798C34.9373 14.1828 34.6872 13.7066 34.1854 13.3513C33.9353 13.1737 33.5399 13.0208 33.0008 12.8941C32.9504 12.881 32.8944 12.8621 32.8254 12.8431C32.7564 12.8242 32.6629 12.798 32.5493 12.7674C32.4372 12.7354 32.3365 12.7106 32.2488 12.6844C32.1612 12.6596 32.0289 12.6203 31.8477 12.5766C31.6666 12.5315 31.5401 12.5009 31.4783 12.4747L29.9169 12.0175L28.4131 11.4845C27.7359 11.218 27.2414 10.9953 26.928 10.8176C25.8368 10.158 25.0848 9.5551 24.6722 9.00904C24.0828 8.1965 23.788 7.2631 23.788 6.20883C23.788 5.33222 23.9447 4.53861 24.2524 3.82801C24.5601 3.1174 24.9669 2.52619 25.4802 2.05731C25.9935 1.58697 26.6088 1.1938 27.3161 0.882183C28.0249 0.570564 28.7639 0.349227 29.5345 0.209435C30.3051 0.0696431 31.1073 -0.000252819 31.9469 -0.000252819C34.2286 -0.000252819 36.6482 0.564739 39.2044 1.69472L37.5683 5.31329C35.7755 4.55172 33.9022 4.1702 31.9469 4.1702C29.9917 4.1702 28.8818 4.81092 28.8818 6.0938C28.8185 6.57579 29.0514 7.01409 29.5776 7.40726C29.7286 7.53395 30.1225 7.70577 30.7623 7.92129L31.5516 8.1499L32.3984 8.39745L33.3012 8.68286L34.3163 8.96827L35.3313 9.29154C35.9955 9.52015 36.6539 9.81284 37.3052 10.1681C37.8443 10.4477 38.3835 10.8788 38.9226 11.4627C39.6616 12.2374 40.0325 13.2843 40.0325 14.6051C40.0325 15.5196 39.8758 16.3379 39.5566 17.0616C39.2375 17.7853 38.8047 18.3751 38.2656 18.8396C37.7265 19.3027 37.0867 19.6842 36.342 19.9827C35.5958 20.2812 34.8194 20.4967 34.01 20.6234C33.202 20.7501 32.3365 20.8142 31.4222 20.8142L31.4207 20.8156ZM53.7006 -0.000252819C54.904 -0.000252819 56.07 0.241471 57.1985 0.723461C58.3271 1.20545 59.3177 1.88548 60.1688 2.76064C61.0458 3.63725 61.7359 4.7352 62.2377 6.05594C62.7394 7.37668 62.9896 8.7979 62.9896 10.3225C62.9896 13.5086 62.1816 16.0554 60.5642 17.9586C58.9727 19.8633 56.8406 20.8156 54.1708 20.8156C51.9265 20.8156 49.9526 20.5113 48.2475 19.9012V33.943H43.0387V0.304086L43.7533 0.113328L48.0778 1.12245C50.2344 0.373982 52.1077 -0.00170898 53.6992 -0.00170898L53.7006 -0.000252819ZM52.93 4.26631C52.1652 4.26631 51.3198 4.37407 50.3911 4.58958C49.4508 4.80509 48.7047 5.04099 48.154 5.29436C48.1296 6.89469 48.1167 8.54452 48.1167 10.2453V15.6725C49.7714 16.2942 51.3946 16.6059 52.9861 16.6059C54.4655 16.6059 55.6372 16.0088 56.5027 14.8162C57.3797 13.6222 57.8196 12.1252 57.8196 10.321C57.8196 8.51686 57.3308 6.98206 56.3532 5.90304C55.3756 4.81092 54.234 4.26486 52.9315 4.26486L52.93 4.26631ZM74.2898 20.8156C71.7077 20.8156 69.6331 19.8691 68.0661 17.9776C66.499 16.086 65.7154 13.6105 65.7154 10.5497C65.7154 7.4888 66.5421 4.90557 68.1969 2.95139C69.8761 0.984115 71.9507 -0.000252819 74.4206 -0.000252819C76.5269 -0.000252819 78.5828 0.373982 80.5883 1.12391L84.8942 0.114784L85.6088 0.171575V20.5113H80.4561L80.6818 18.892C79.4037 19.5648 78.2995 20.0541 77.3722 20.3584C76.432 20.6627 75.404 20.8156 74.2884 20.8156H74.2898ZM75.6815 16.6073C77.2615 16.6073 78.8775 16.2957 80.5323 15.6739V10.2468C80.5323 8.54598 80.5193 6.89469 80.4949 5.29582C79.9428 5.04245 79.1981 4.80655 78.2578 4.59104C77.3305 4.37552 76.4837 4.26777 75.7189 4.26777C74.4149 4.26777 73.2748 4.81383 72.2972 5.90595C71.3195 6.98497 70.8307 8.45861 70.8307 10.324C70.8307 12.1893 71.2692 13.6251 72.1462 14.8191C73.0232 16.0132 74.2021 16.6088 75.6815 16.6088V16.6073ZM95.6496 20.5113H90.4983V0.285156L91.2129 0.0943979L95.5748 1.12245C96.1887 0.869078 97.1161 0.614249 98.3582 0.360876C99.5486 0.119153 100.595 -0.000252819 101.498 -0.000252819C102.589 -0.000252819 103.578 0.158469 104.463 0.481738C105.347 0.805006 106.13 1.30738 106.819 1.98596C107.509 2.66453 108.047 3.579 108.429 4.72792C108.812 5.87683 109 7.22961 109 8.77751V20.5084H103.791V8.81683C103.791 7.34464 103.484 6.21466 102.864 5.42687C102.243 4.63909 101.397 4.24592 100.332 4.24592C98.8657 4.24592 97.3044 4.58812 95.6496 5.27398V20.5098V20.5113Z" fill="white"/>
</g>
<defs>
<clipPath id="clip0_383_4307">
<rect width="109" height="34" fill="white"/>
</clipPath>
</defs>
</svg>
