<svg width="50" height="50" viewBox="0 0 50 50" fill="none" xmlns="http://www.w3.org/2000/svg">
<g opacity="0.7">
<circle cx="25" cy="25" r="25" fill="#1C1C1C"/>
<circle cx="25" cy="25" r="25" fill="#1C1C1C"/>
<circle cx="25" cy="25" r="25" fill="#D4F000"/>
</g>
<circle cx="25" cy="25.0002" r="16.6667" fill="#1C1C1C"/>
<circle cx="25" cy="25.0002" r="16.6667" fill="#1C1C1C"/>
<circle cx="25" cy="25.0002" r="16.6667" fill="#1C1C1C"/>
<path d="M18.057 32.5061C18.057 32.3943 18.0793 32.2875 18.1197 32.1899C18.1617 32.0885 18.2231 31.9974 18.2992 31.9213C18.3706 31.8498 18.4553 31.7913 18.5494 31.7496C18.4553 31.708 18.3706 31.6494 18.2992 31.5779C18.2231 31.5019 18.1617 31.4107 18.1197 31.3093C18.0793 31.2117 18.057 31.1049 18.057 30.9932C18.057 30.8814 18.0793 30.7746 18.1197 30.677C18.1617 30.5756 18.2231 30.4844 18.2992 30.4083C18.371 30.3365 18.4563 30.2777 18.551 30.2359C18.4563 30.1943 18.371 30.1355 18.2992 30.0636C18.2231 29.9875 18.1617 29.8963 18.1197 29.7949C18.0793 29.6973 18.057 29.5906 18.057 29.4788C18.057 29.367 18.0793 29.2602 18.1197 29.1626C18.1617 29.0612 18.2231 28.9701 18.2992 28.894C18.3706 28.8225 18.4553 28.764 18.5494 28.7223C18.4553 28.6806 18.3706 28.6221 18.2992 28.5506C18.2231 28.4745 18.1617 28.3834 18.1197 28.282C18.0793 28.1844 18.057 28.0776 18.057 27.9658C18.057 27.8541 18.0793 27.7473 18.1197 27.6497C18.1617 27.5483 18.2231 27.4571 18.2992 27.381C18.3708 27.3094 18.4557 27.2508 18.55 27.2091C18.4557 27.1674 18.3708 27.1088 18.2992 27.0371C18.2231 26.961 18.1617 26.8699 18.1197 26.7685C18.0793 26.6709 18.057 26.5641 18.057 26.4523C18.057 26.3406 18.0793 26.2338 18.1197 26.1362C18.1617 26.0348 18.2231 25.9436 18.2992 25.8675C18.371 25.7957 18.4563 25.7368 18.551 25.6951C18.4563 25.6534 18.371 25.5946 18.2992 25.5228C18.2231 25.4467 18.1617 25.3555 18.1197 25.2541C18.0793 25.1565 18.057 25.0497 18.057 24.938C18.057 24.8262 18.0793 24.7194 18.1197 24.6218C18.1617 24.5204 18.2231 24.4292 18.2992 24.3532C18.3707 24.2816 18.4554 24.2231 18.5496 24.1814C18.4554 24.1397 18.3706 24.0812 18.2992 24.0097C18.2231 23.9336 18.1617 23.8425 18.1197 23.741C18.0793 23.6435 18.057 23.5367 18.057 23.4249C18.057 23.3131 18.0793 23.2063 18.1197 23.1087C18.1617 23.0073 18.2231 22.9162 18.2992 22.8401C18.3711 22.7682 18.4564 22.7093 18.5512 22.6676C18.4567 22.6259 18.3716 22.5672 18.2998 22.4955C18.2278 22.4234 18.1688 22.3378 18.1271 22.2427C18.0914 22.1613 18.0685 22.0731 18.0607 21.9805L18.0555 21.9805L18.0571 21.9423L18.0576 21.9265L18.0576 21.8949L18.0571 21.8791L18.0555 21.8408L18.8146 21.8408L18.8146 21.2212C18.7279 21.214 18.6449 21.1933 18.5677 21.1613C18.4663 21.1193 18.3752 21.0579 18.2992 20.9818C18.2231 20.9057 18.1617 20.8146 18.1197 20.7132C18.0793 20.6156 18.057 20.5088 18.057 20.397C18.057 20.2852 18.0793 20.1784 18.1197 20.0809C18.1617 19.9794 18.2231 19.8883 18.2992 19.8122C18.3706 19.7408 18.4552 19.6823 18.5493 19.6406C18.4552 19.5989 18.3706 19.5404 18.2992 19.469C18.2231 19.3929 18.1617 19.3018 18.1197 19.2004C18.0793 19.1028 18.057 18.996 18.057 18.8842C18.057 18.7724 18.0793 18.6656 18.1197 18.5681C18.1617 18.4666 18.2231 18.3755 18.2992 18.2994C18.3752 18.2233 18.4663 18.1619 18.5677 18.1199C18.6653 18.0795 18.772 18.0571 18.8838 18.0571C18.9955 18.0571 19.1023 18.0795 19.1999 18.1199C19.3012 18.1619 19.3924 18.2233 19.4684 18.2994C19.5403 18.3713 19.599 18.4566 19.6408 18.5513C19.6824 18.4566 19.7412 18.3713 19.8131 18.2994C19.8891 18.2233 19.9803 18.1619 20.0817 18.1199C20.1792 18.0795 20.286 18.0571 20.3977 18.0571C20.5094 18.0571 20.6162 18.0795 20.7138 18.1199C20.8152 18.1619 20.9063 18.2233 20.9823 18.2994C21.1164 18.4335 21.2046 18.6134 21.2215 18.8136L21.8425 18.8136L21.8425 18.0557L21.8807 18.0573L21.8965 18.0579L21.9085 18.0579L21.9085 18.0557L21.9468 18.0573C22.0522 18.0616 22.1526 18.0857 22.2442 18.1259C22.3393 18.1677 22.4248 18.2266 22.4969 18.2987C22.5687 18.3704 22.6273 18.4556 22.669 18.55C22.7107 18.4557 22.7693 18.3707 22.8409 18.2991C22.917 18.223 23.0081 18.1615 23.1095 18.1195C23.207 18.0791 23.3138 18.0568 23.4255 18.0568C23.5373 18.0568 23.644 18.0791 23.7416 18.1195C23.843 18.1615 23.9341 18.223 24.0102 18.2991C24.082 18.3709 24.1407 18.4561 24.1824 18.5508C24.2241 18.456 24.2829 18.3706 24.3548 18.2987C24.4309 18.2226 24.522 18.1612 24.6234 18.1192C24.7209 18.0788 24.8277 18.0565 24.9395 18.0565C25.0512 18.0565 25.158 18.0788 25.2555 18.1192C25.3569 18.1612 25.448 18.2226 25.5241 18.2987C25.5956 18.3702 25.6541 18.455 25.6958 18.5492C25.7374 18.4551 25.7959 18.3705 25.8673 18.2991C25.9434 18.223 26.0345 18.1615 26.1359 18.1195C26.2334 18.0791 26.3402 18.0568 26.4519 18.0568C26.5637 18.0568 26.6705 18.0791 26.768 18.1195C26.8694 18.1615 26.9605 18.223 27.0366 18.2991C27.1084 18.3709 27.1671 18.4561 27.2088 18.5508C27.2505 18.456 27.3093 18.3706 27.3812 18.2987C27.4573 18.2226 27.5484 18.1612 27.6498 18.1192C27.7473 18.0788 27.8541 18.0565 27.9659 18.0565C28.0776 18.0565 28.1844 18.0788 28.2819 18.1192C28.3833 18.1612 28.4744 18.2226 28.5505 18.2987C28.6219 18.3702 28.6804 18.4549 28.7221 18.549C28.7638 18.4549 28.8223 18.3702 28.8937 18.2987C28.9698 18.2226 29.0609 18.1612 29.1623 18.1192C29.2598 18.0788 29.3666 18.0565 29.4783 18.0565C29.5901 18.0565 29.6968 18.0788 29.7944 18.1192C29.8958 18.1612 29.9869 18.2226 30.063 18.2987C30.1346 18.3703 30.1932 18.4553 30.2349 18.5497C30.2765 18.4553 30.3351 18.3703 30.4068 18.2987C30.4828 18.2226 30.5739 18.1612 30.6753 18.1192C30.7729 18.0788 30.8796 18.0565 30.9914 18.0565C31.1031 18.0565 31.2099 18.0788 31.3074 18.1192C31.4088 18.1612 31.4999 18.2226 31.576 18.2987C31.6479 18.3706 31.7067 18.456 31.7484 18.5508C31.7901 18.4561 31.8488 18.3709 31.9207 18.2991C31.9967 18.223 32.0878 18.1615 32.1892 18.1195C32.2868 18.0791 32.3936 18.0568 32.5053 18.0568C32.6171 18.0568 32.7238 18.0791 32.8214 18.1195C32.9228 18.1615 33.0139 18.223 33.0899 18.2991C33.166 18.3751 33.2274 18.4663 33.2694 18.5677C33.3098 18.6653 33.3321 18.7721 33.3321 18.8838C33.3321 18.9956 33.3098 19.1024 33.2694 19.2C33.2274 19.3014 33.166 19.3926 33.0899 19.4686C33.0185 19.5401 32.9339 19.5985 32.84 19.6402C32.9341 19.6818 33.0188 19.7404 33.0903 19.8119C33.1624 19.884 33.2213 19.9696 33.263 20.0647C33.3032 20.1563 33.3273 20.2567 33.3316 20.3622L33.3332 20.4005L33.331 20.4005L33.3311 20.4124L33.3316 20.4283L33.3331 20.4665L32.5755 20.4665L32.5755 21.2258L32.5372 21.2243L32.5215 21.2237L32.4898 21.2237L32.4741 21.2243L32.4358 21.2258L32.4358 21.2207C32.3432 21.2129 32.255 21.1899 32.1737 21.1542C32.0787 21.1125 31.9931 21.0536 31.921 20.9815C31.8494 20.9098 31.7908 20.8248 31.7491 20.7305C31.7074 20.8251 31.6487 20.9103 31.5769 20.9822C31.5008 21.0583 31.4097 21.1197 31.3083 21.1617C31.2108 21.2021 31.104 21.2244 30.9923 21.2244C30.8805 21.2244 30.7738 21.2021 30.6762 21.1617C30.5748 21.1197 30.4837 21.0583 30.4076 20.9822C30.3358 20.9103 30.277 20.8249 30.2353 20.7302C30.1936 20.8249 30.1348 20.9103 30.063 20.9822C29.9869 21.0583 29.8958 21.1197 29.7944 21.1617C29.6969 21.2021 29.5901 21.2244 29.4783 21.2244C29.3666 21.2244 29.2598 21.2021 29.1623 21.1617C29.0609 21.1197 28.9698 21.0583 28.8937 20.9822C28.8223 20.9107 28.7637 20.8259 28.7221 20.7318C28.6804 20.8259 28.6219 20.9107 28.5505 20.9822C28.4744 21.0583 28.3833 21.1197 28.2819 21.1617C28.1844 21.2021 28.0776 21.2244 27.9659 21.2244C27.8541 21.2244 27.7473 21.2021 27.6498 21.1617C27.5484 21.1197 27.4573 21.0583 27.3812 20.9822C27.3094 20.9103 27.2506 20.8249 27.2089 20.7302C27.1672 20.8249 27.1085 20.9103 27.0366 20.9822C26.9605 21.0583 26.8694 21.1197 26.768 21.1617C26.6705 21.2021 26.5637 21.2244 26.4519 21.2244C26.3402 21.2244 26.2334 21.2021 26.1359 21.1617C26.0345 21.1197 25.9434 21.0583 25.8673 20.9822C25.7958 20.9106 25.7373 20.8258 25.6956 20.7317C25.654 20.8257 25.5955 20.9104 25.5241 20.9818C25.448 21.0579 25.3569 21.1193 25.2555 21.1613C25.158 21.2017 25.0512 21.224 24.9395 21.224C24.8277 21.224 24.7209 21.2017 24.6234 21.1613C24.522 21.1193 24.4309 21.0579 24.3548 20.9818C24.283 20.91 24.2243 20.8247 24.1826 20.73C24.1409 20.8249 24.0821 20.9102 24.0102 20.9822C23.9383 21.054 23.8531 21.1128 23.7584 21.1545C23.8525 21.1962 23.9372 21.2547 24.0087 21.3262C24.0848 21.4023 24.1462 21.4934 24.1882 21.5949C24.2286 21.6924 24.2509 21.7992 24.2509 21.911C24.2509 22.0228 24.2286 22.1296 24.1882 22.2272C24.1462 22.3286 24.0848 22.4197 24.0087 22.4958C23.937 22.5676 23.8519 22.6263 23.7575 22.668C23.8519 22.7097 23.937 22.7683 24.0087 22.8401C24.0803 22.9116 24.1388 22.9965 24.1805 23.0907C24.2222 22.9962 24.2808 22.9111 24.3525 22.8394C24.4286 22.7633 24.5197 22.7019 24.6211 22.6599C24.7186 22.6195 24.8254 22.5971 24.9372 22.5971C25.0489 22.5971 25.1557 22.6195 25.2532 22.6599C25.3546 22.7019 25.4457 22.7633 25.5218 22.8394C25.5978 22.9155 25.6592 23.0066 25.7013 23.108C25.7417 23.2056 25.764 23.3124 25.764 23.4242C25.764 23.536 25.7417 23.6428 25.7013 23.7403C25.6592 23.8418 25.5978 23.9329 25.5218 24.009C25.45 24.0808 25.3648 24.1395 25.2702 24.1813C25.3648 24.223 25.45 24.2817 25.5218 24.3535C25.5937 24.4254 25.6524 24.5107 25.6941 24.6055C25.7358 24.5107 25.7946 24.4254 25.8664 24.3535C25.9385 24.2814 26.0241 24.2225 26.1192 24.1807C26.2108 24.1405 26.3111 24.1164 26.4166 24.1121L26.4549 24.1105L26.4549 24.1127L26.4669 24.1127L26.4826 24.1122L26.5209 24.1106L26.5209 24.8685L27.28 24.8685L27.2784 24.9067L27.2779 24.9225L27.2779 24.9541L27.2784 24.9699L27.28 25.0082L27.2748 25.0082C27.2671 25.1008 27.2441 25.189 27.2084 25.2703C27.1667 25.3654 27.1078 25.451 27.0357 25.5231C26.9641 25.5948 26.8791 25.6534 26.7848 25.6951C26.8794 25.7368 26.9646 25.7955 27.0364 25.8674C27.108 25.939 27.1666 26.024 27.2083 26.1183C27.25 26.024 27.3086 25.939 27.3802 25.8674C27.4562 25.7913 27.5473 25.7298 27.6487 25.6878C27.7463 25.6474 27.853 25.6251 27.9648 25.6251C28.0766 25.6251 28.1833 25.6474 28.2809 25.6878C28.3823 25.7298 28.4734 25.7913 28.5494 25.8674C28.6255 25.9434 28.6869 26.0346 28.7289 26.136C28.7693 26.2336 28.7916 26.3404 28.7916 26.4522C28.7916 26.564 28.7693 26.6707 28.7289 26.7683C28.6869 26.8697 28.6255 26.9609 28.5494 27.037C28.4774 27.1091 28.3918 27.168 28.2967 27.2097C28.2156 27.2453 28.1278 27.2683 28.0355 27.2761L28.0355 27.896L28.6542 27.896C28.6618 27.8031 28.6849 27.7147 28.7206 27.6332C28.7623 27.5381 28.8212 27.4524 28.8933 27.3803C28.9694 27.3042 29.0605 27.2428 29.1619 27.2008C29.2594 27.1604 29.3662 27.1381 29.478 27.1381C29.5897 27.1381 29.6965 27.1604 29.794 27.2008C29.8954 27.2428 29.9865 27.3042 30.0626 27.3803C30.1387 27.4564 30.2001 27.5476 30.2421 27.649C30.2825 27.7465 30.3048 27.8534 30.3048 27.9651C30.3048 28.0769 30.2825 28.1837 30.2421 28.2813C30.2001 28.3827 30.1387 28.4739 30.0626 28.5499C29.9908 28.6218 29.9055 28.6806 29.8108 28.7223C29.9055 28.764 29.9908 28.8228 30.0626 28.8947C30.1345 28.9666 30.1932 29.0519 30.2349 29.1466C30.2766 29.0519 30.3354 28.9666 30.4073 28.8947C30.4833 28.8186 30.5744 28.7572 30.6758 28.7151C30.7734 28.6747 30.8801 28.6524 30.9919 28.6524C31.1036 28.6524 31.2104 28.6747 31.3079 28.7151C31.4093 28.7572 31.5004 28.8186 31.5765 28.8947C31.6526 28.9707 31.714 29.0619 31.756 29.1633C31.7964 29.2609 31.8187 29.3677 31.8187 29.4795C31.8187 29.5912 31.7964 29.698 31.756 29.7956C31.714 29.897 31.6526 29.9882 31.5765 30.0643C31.5049 30.1359 31.4199 30.1945 31.3256 30.2362C31.4199 30.2779 31.5049 30.3365 31.5765 30.4082C31.6483 30.48 31.707 30.5652 31.7487 30.6598C31.7904 30.5649 31.8492 30.4795 31.9212 30.4075C31.9972 30.3314 32.0883 30.27 32.1897 30.228C32.2873 30.1875 32.394 30.1652 32.5058 30.1652C32.6176 30.1652 32.7243 30.1875 32.8219 30.228C32.9233 30.27 33.0144 30.3314 33.0904 30.4075C33.1625 30.4796 33.2214 30.5652 33.2632 30.6603C33.3033 30.7519 33.3274 30.8523 33.3317 30.9578L33.3333 30.9961L33.3312 30.9961L33.3312 31.0081L33.3317 31.0239L33.3333 31.0621L32.5756 31.0621L32.5756 31.6773L32.5756 31.8215L32.5756 32.4366L33.3333 32.4366L33.3317 32.4749L33.3312 32.4906L33.3312 32.5026L33.3333 32.5026L33.3317 32.5409C33.3274 32.6464 33.3033 32.7468 33.2632 32.8384C33.2214 32.9335 33.1625 33.0191 33.0904 33.0912C33.0144 33.1673 32.9233 33.2287 32.8219 33.2708C32.7243 33.3112 32.6176 33.3335 32.5058 33.3335C32.394 33.3335 32.2873 33.3112 32.1897 33.2708C32.0883 33.2287 31.9972 33.1673 31.9212 33.0912C31.8493 33.0194 31.7905 32.934 31.7488 32.8393C31.7072 32.934 31.6484 33.0194 31.5765 33.0912C31.5004 33.1673 31.4093 33.2287 31.3079 33.2708C31.2104 33.3112 31.1036 33.3335 30.9919 33.3335C30.8801 33.3335 30.7734 33.3112 30.6758 33.2708C30.5744 33.2287 30.4833 33.1673 30.4073 33.0912C30.3352 33.0191 30.2763 32.9335 30.2345 32.8384C30.1943 32.7468 30.1703 32.6464 30.1659 32.5409L30.1643 32.5026L30.1666 32.5026L30.1666 32.4906L30.1661 32.4749L30.1645 32.4366L30.922 32.4366L30.922 31.8206L30.922 31.6772L30.922 31.0628L30.3017 31.0628C30.2939 31.1552 30.2709 31.2431 30.2353 31.3243C30.1936 31.4194 30.1347 31.505 30.0626 31.5771C29.9865 31.6532 29.8954 31.7146 29.794 31.7566C29.6965 31.797 29.5897 31.8193 29.478 31.8193C29.3662 31.8193 29.2594 31.797 29.1619 31.7566C29.0605 31.7146 28.9694 31.6532 28.8933 31.5771C28.8173 31.501 28.7559 31.4099 28.7139 31.3084C28.6735 31.2109 28.6512 31.1041 28.6512 30.9923C28.6512 30.8805 28.6735 30.7737 28.7139 30.6761C28.7559 30.5747 28.8173 30.4836 28.8933 30.4075C28.9648 30.336 29.0494 30.2775 29.1434 30.2359C29.0494 30.1942 28.9648 30.1357 28.8933 30.0643C28.8219 29.9928 28.7634 29.908 28.7217 29.814C28.6801 29.9081 28.6216 29.9928 28.5501 30.0643C28.474 30.1404 28.3829 30.2018 28.2815 30.2438C28.184 30.2842 28.0772 30.3065 27.9655 30.3065C27.8537 30.3065 27.747 30.2842 27.6494 30.2438C27.548 30.2018 27.4569 30.1404 27.3809 30.0643C27.3048 29.9882 27.2434 29.897 27.2014 29.7956C27.161 29.698 27.1387 29.5912 27.1387 29.4795C27.1387 29.3677 27.161 29.2609 27.2014 29.1633C27.2434 29.0619 27.3048 28.9708 27.3809 28.8947C27.4525 28.823 27.5376 28.7643 27.632 28.7226C27.5376 28.6809 27.4527 28.6223 27.381 28.5506C27.3092 28.4787 27.2504 28.3934 27.2087 28.2987C27.167 28.3934 27.1083 28.4787 27.0364 28.5506C26.9603 28.6267 26.8692 28.6881 26.7678 28.7302C26.6703 28.7706 26.5635 28.7929 26.4518 28.7929C26.34 28.7929 26.2333 28.7706 26.1357 28.7302C26.0343 28.6881 25.9432 28.6267 25.8671 28.5506C25.795 28.4785 25.7361 28.3929 25.6944 28.2978C25.6542 28.2062 25.6301 28.1058 25.6258 28.0003L25.6242 27.962L25.6265 27.962L25.6265 27.95L25.626 27.9343L25.6244 27.896L26.3819 27.896L26.3819 27.2763C26.2955 27.269 26.2127 27.2484 26.1357 27.2165C26.0343 27.1745 25.9432 27.1131 25.8671 27.037C25.7951 26.9649 25.7361 26.8793 25.6944 26.7841C25.6588 26.7031 25.6359 26.6152 25.6281 26.5229L25.0077 26.5229L25.0077 27.2806L24.9694 27.279L24.9537 27.2785L24.9417 27.2785L24.9417 27.2808L24.9034 27.2792C24.7979 27.2749 24.6975 27.2508 24.606 27.2106C24.5109 27.1689 24.4253 27.1099 24.3532 27.0378C24.2771 26.9617 24.2158 26.8706 24.1737 26.7692C24.1333 26.6716 24.1111 26.5648 24.1111 26.453C24.1111 26.3412 24.1333 26.2344 24.1737 26.1369C24.2158 26.0354 24.2772 25.9443 24.3532 25.8682C24.4251 25.7963 24.5104 25.7375 24.6051 25.6958C24.5101 25.6541 24.4246 25.5952 24.3525 25.5231C24.2811 25.4516 24.2226 25.3669 24.1809 25.2728C24.1392 25.3669 24.0807 25.4516 24.0093 25.5231C23.9332 25.5992 23.8421 25.6606 23.7407 25.7026C23.6432 25.7431 23.5364 25.7654 23.4247 25.7654C23.3129 25.7654 23.2062 25.7431 23.1086 25.7027C23.0072 25.6606 22.9161 25.5992 22.84 25.5231C22.764 25.447 22.7026 25.3559 22.6606 25.2545C22.6202 25.1569 22.5979 25.0501 22.5979 24.9383C22.5979 24.8265 22.6202 24.7197 22.6606 24.6222C22.7026 24.5207 22.764 24.4296 22.84 24.3535C22.9116 24.282 22.9964 24.2234 23.0906 24.1817C22.9962 24.14 22.9111 24.0814 22.8395 24.0097C22.768 23.9381 22.7094 23.8533 22.6678 23.7592C22.6262 23.8532 22.5677 23.9379 22.4963 24.0093C22.4202 24.0854 22.3291 24.1468 22.2277 24.1888C22.1301 24.2293 22.0234 24.2516 21.9116 24.2516C21.7999 24.2516 21.6931 24.2293 21.5956 24.1888C21.4942 24.1468 21.4031 24.0854 21.327 24.0093C21.2552 23.9375 21.1964 23.8522 21.1547 23.7575C21.113 23.8524 21.0542 23.9377 20.9823 24.0097C20.9102 24.0818 20.8247 24.1407 20.7296 24.1825C20.6481 24.2182 20.5597 24.2412 20.4669 24.2489L20.4669 24.8678L21.226 24.8678L21.2244 24.906L21.2238 24.9218L21.2238 24.9534L21.2244 24.9692L21.226 25.0075L21.2208 25.0075C21.213 25.1001 21.19 25.1883 21.1544 25.2696C21.1126 25.3647 21.0537 25.4503 20.9816 25.5224C20.91 25.5941 20.8251 25.6527 20.7307 25.6944C20.8253 25.7361 20.9105 25.7948 20.9823 25.8667C21.0584 25.9428 21.1198 26.0339 21.1618 26.1353C21.2022 26.2329 21.2245 26.3397 21.2245 26.4515C21.2245 26.5633 21.2022 26.6701 21.1618 26.7676C21.1198 26.8691 21.0584 26.9602 20.9823 27.0363C20.9105 27.1082 20.8252 27.1669 20.7305 27.2086C20.8252 27.2504 20.9105 27.3091 20.9823 27.381C21.0584 27.4571 21.1198 27.5483 21.1618 27.6497C21.2022 27.7473 21.2245 27.8541 21.2245 27.9658C21.2245 28.0776 21.2022 28.1844 21.1618 28.282C21.1198 28.3834 21.0584 28.4745 20.9823 28.5506C20.9109 28.6221 20.8262 28.6806 20.7321 28.7223C20.8261 28.764 20.9109 28.8225 20.9823 28.894C21.0584 28.9701 21.1198 29.0612 21.1618 29.1626C21.2022 29.2602 21.2245 29.367 21.2245 29.4788C21.2245 29.5906 21.2022 29.6973 21.1618 29.7949C21.1198 29.8963 21.0584 29.9875 20.9823 30.0636C20.9105 30.1355 20.8252 30.1943 20.7305 30.2359C20.8252 30.2777 20.9105 30.3365 20.9823 30.4083C21.0584 30.4845 21.1198 30.5756 21.1618 30.677C21.2022 30.7746 21.2245 30.8814 21.2245 30.9932C21.2245 31.1049 21.2022 31.2117 21.1618 31.3093C21.1198 31.4107 21.0584 31.5019 20.9823 31.5779C20.9109 31.6494 20.8261 31.7079 20.7321 31.7496C20.8261 31.7913 20.9109 31.8498 20.9823 31.9213C21.0584 31.9974 21.1198 32.0885 21.1618 32.1899C21.2022 32.2875 21.2245 32.3943 21.2245 32.5061C21.2245 32.6179 21.2022 32.7247 21.1618 32.8222C21.1198 32.9237 21.0584 33.0148 20.9823 33.0909C20.9063 33.167 20.8152 33.2284 20.7138 33.2704C20.6162 33.3108 20.5094 33.3331 20.3977 33.3331C20.286 33.3331 20.1792 33.3108 20.0817 33.2704C19.9803 33.2284 19.8892 33.167 19.8131 33.0909C19.7412 33.019 19.6824 32.9337 19.6408 32.839C19.599 32.9337 19.5403 33.019 19.4684 33.0909C19.3924 33.167 19.3012 33.2284 19.1999 33.2704C19.1023 33.3108 18.9955 33.3331 18.8838 33.3331C18.772 33.3331 18.6653 33.3108 18.5677 33.2704C18.4663 33.2284 18.3752 33.167 18.2992 33.0909C18.2231 33.0148 18.1617 32.9237 18.1197 32.8222C18.0793 32.7247 18.057 32.6179 18.057 32.5061ZM31.7488 32.1736C31.7905 32.0789 31.8493 31.9935 31.9212 31.9216C31.9929 31.8498 32.0781 31.7911 32.1728 31.7494C32.0781 31.7077 31.9929 31.6489 31.9212 31.5771C31.8493 31.5053 31.7907 31.4201 31.749 31.3255C31.7073 31.4204 31.6484 31.5058 31.5765 31.5778C31.5049 31.6494 31.42 31.708 31.3257 31.7497C31.42 31.7914 31.5049 31.85 31.5765 31.9216C31.6484 31.9935 31.7071 32.0789 31.7488 32.1736ZM33.1348 32.7837C33.1633 32.7191 33.1821 32.6493 33.1895 32.5763L32.4359 32.5763L32.4359 31.8225C32.3629 31.8299 32.2932 31.8487 32.2286 31.8772C32.1504 31.9118 32.0797 31.9606 32.0199 32.0204C31.9564 32.0839 31.9053 32.1596 31.8706 32.2435C31.8371 32.3243 31.8187 32.4131 31.8187 32.5065C31.8187 32.5998 31.8371 32.6886 31.8706 32.7694C31.9053 32.8533 31.9564 32.929 32.0199 32.9925C32.0834 33.056 32.159 33.1071 32.2429 33.1418C32.3237 33.1753 32.4125 33.1938 32.5058 33.1938C32.5991 33.1938 32.6879 33.1753 32.7687 33.1418C32.8526 33.107 32.9283 33.0559 32.9917 32.9925C33.0515 32.9327 33.1002 32.862 33.1348 32.7837ZM33.1895 30.9224C33.1821 30.8494 33.1633 30.7797 33.1348 30.7151C33.1002 30.6368 33.0514 30.5661 32.9917 30.5063C32.9281 30.4428 32.8525 30.3917 32.7687 30.3569C32.6879 30.3235 32.5991 30.305 32.5058 30.305C32.4125 30.305 32.3237 30.3235 32.2429 30.3569C32.159 30.3917 32.0834 30.4428 32.0199 30.5063C31.9564 30.5698 31.9053 30.6454 31.8706 30.7293C31.8371 30.8101 31.8187 30.899 31.8187 30.9923C31.8187 31.0853 31.8372 31.1746 31.8706 31.2552C31.9053 31.3391 31.9564 31.4148 32.0199 31.4783C32.0797 31.5381 32.1504 31.5869 32.2286 31.6215C32.2932 31.65 32.3629 31.6688 32.4359 31.6762L32.4359 30.9224L33.1895 30.9224ZM30.3082 32.5763C30.3155 32.6493 30.3344 32.7191 30.3629 32.7837C30.3974 32.8619 30.4462 32.9327 30.506 32.9925C30.5695 33.056 30.6451 33.1071 30.729 33.1418C30.8098 33.1753 30.8986 33.1938 30.9919 33.1938C31.0852 33.1938 31.1739 33.1753 31.2547 33.1418C31.3386 33.1071 31.4142 33.056 31.4777 32.9925C31.5412 32.929 31.5923 32.8533 31.627 32.7694C31.6605 32.6886 31.679 32.5998 31.679 32.5065C31.679 32.4131 31.6605 32.3243 31.627 32.2435C31.5923 32.1596 31.5412 32.0839 31.4777 32.0204C31.4179 31.9606 31.3473 31.9118 31.269 31.8772C31.2044 31.8487 31.1347 31.8299 31.0617 31.8225L31.0617 32.5763L30.3082 32.5763ZM31.0176 30.3061C31.0091 30.3064 31.0005 30.3065 30.9919 30.3065C30.9832 30.3065 30.9747 30.3064 30.9661 30.3061C30.8822 30.3092 30.8023 30.3272 30.729 30.3576C30.6451 30.3924 30.5695 30.4434 30.506 30.507C30.4462 30.5668 30.3974 30.6375 30.3629 30.7157C30.3344 30.7803 30.3155 30.8501 30.3082 30.9231L31.0617 30.9231L31.0617 31.6769C31.1347 31.6695 31.2044 31.6506 31.269 31.6222C31.3473 31.5876 31.4179 31.5388 31.4777 31.479C31.5412 31.4155 31.5923 31.3398 31.627 31.2559C31.6605 31.1751 31.679 31.0863 31.679 30.993C31.6789 30.8999 31.6604 30.8106 31.627 30.73C31.5923 30.6461 31.5412 30.5705 31.4777 30.507C31.4142 30.4434 31.3386 30.3923 31.2548 30.3576C31.1814 30.3272 31.1015 30.3092 31.0176 30.3061ZM30.6581 30.2362C30.5638 30.1945 30.4788 30.1359 30.4072 30.0643C30.3354 29.9924 30.2766 29.9071 30.2349 29.8123C30.1932 29.9071 30.1344 29.9924 30.0626 30.0643C29.9284 30.1985 29.7482 30.2868 29.5478 30.3036L29.5478 30.9224L30.1682 30.9224C30.176 30.8301 30.1989 30.7421 30.2345 30.661C30.2762 30.5659 30.3351 30.4803 30.4072 30.4082C30.4789 30.3365 30.5638 30.2779 30.6581 30.2362ZM31.627 29.2165C31.5923 29.1326 31.5412 29.057 31.4777 28.9935C31.4142 28.9299 31.3386 28.8788 31.2548 28.8441C31.1739 28.8106 31.0852 28.7921 30.9919 28.7921C30.8986 28.7921 30.8098 28.8106 30.729 28.8441C30.6451 28.8788 30.5695 28.9299 30.506 28.9935C30.4425 29.057 30.3914 29.1326 30.3567 29.2165C30.3232 29.2973 30.3047 29.3861 30.3047 29.4795C30.3047 29.5728 30.3232 29.6616 30.3567 29.7425C30.3914 29.8263 30.4425 29.902 30.506 29.9655C30.5695 30.029 30.6451 30.0801 30.7289 30.1148C30.8023 30.1452 30.8823 30.1632 30.9663 30.1663C30.9748 30.166 30.9833 30.1659 30.9919 30.1659C31.0004 30.1659 31.0089 30.166 31.0174 30.1663C31.1014 30.1632 31.1814 30.1452 31.2548 30.1148C31.3386 30.0801 31.4142 30.029 31.4777 29.9655C31.5412 29.902 31.5923 29.8263 31.627 29.7425C31.6605 29.6616 31.679 29.5728 31.679 29.4795C31.679 29.3861 31.6605 29.2973 31.627 29.2165ZM29.445 30.166L29.4818 30.1645L29.4818 30.1666L29.4926 30.1666L29.4966 30.1665L29.5058 30.1662C29.5889 30.1629 29.6681 30.1449 29.7409 30.1148C29.8249 30.08 29.9005 30.029 29.9638 29.9656C30.0272 29.9023 30.0783 29.8265 30.1131 29.7425C30.1466 29.6616 30.165 29.5728 30.165 29.4795C30.165 29.3861 30.1466 29.2973 30.1131 29.2165C30.0784 29.1326 30.0273 29.057 29.9638 28.9935C29.904 28.9336 29.8334 28.8848 29.7551 28.8503C29.6905 28.8218 29.6208 28.8029 29.5478 28.7956L29.5478 29.5493L28.7942 29.5493C28.8016 29.6224 28.8205 29.6921 28.849 29.7567C28.8835 29.835 28.9323 29.9057 28.9921 29.9655C29.0556 30.029 29.1312 30.0801 29.215 30.1148C29.2863 30.1443 29.3637 30.1622 29.445 30.166ZM29.4081 30.3084C29.3351 30.3157 29.2654 30.3346 29.2008 30.3631C29.1225 30.3976 29.0519 30.4465 28.9921 30.5063C28.9286 30.5698 28.8775 30.6454 28.8428 30.7293C28.8093 30.8101 28.7908 30.899 28.7908 30.9923C28.7908 31.0856 28.8093 31.1744 28.8428 31.2552C28.8775 31.3391 28.9286 31.4148 28.9921 31.4783C29.0556 31.5418 29.1312 31.5929 29.2151 31.6277C29.2959 31.6611 29.3847 31.6796 29.4779 31.6796C29.5713 31.6796 29.66 31.6611 29.7409 31.6276C29.8247 31.5929 29.9003 31.5418 29.9638 31.4783C30.0236 31.4185 30.0724 31.3478 30.1069 31.2695C30.1354 31.2049 30.1543 31.1352 30.1617 31.0621L29.4081 31.0621L29.4081 30.3084ZM29.4081 28.6503L29.4081 28.035L28.7895 28.035C28.7818 28.1278 28.7588 28.2163 28.723 28.2978C28.6813 28.3929 28.6224 28.4785 28.5503 28.5506C28.4742 28.6267 28.3831 28.6881 28.2817 28.7302C28.2047 28.7621 28.1218 28.7827 28.0353 28.79L28.0353 29.4096L28.6506 29.4096L28.793 29.4096L29.4081 29.4096L29.4081 28.7943L29.4081 28.6503ZM28.849 27.6879C28.8205 27.7525 28.8016 27.8222 28.7942 27.8953L29.5478 27.8953L29.5478 28.6491C29.6208 28.6417 29.6905 28.6228 29.7551 28.5943C29.8334 28.5598 29.904 28.511 29.9638 28.4512C30.0273 28.3876 30.0784 28.312 30.1131 28.2281C30.1466 28.1473 30.165 28.0585 30.165 27.9651C30.165 27.8718 30.1466 27.783 30.1131 27.7021C30.0784 27.6183 30.0273 27.5426 29.9638 27.4791C29.9003 27.4156 29.8247 27.3645 29.7409 27.3298C29.66 27.2963 29.5713 27.2778 29.4779 27.2778C29.3847 27.2778 29.2959 27.2963 29.2151 27.3298C29.1312 27.3645 29.0556 27.4156 28.9921 27.4791C28.9323 27.5389 28.8835 27.6096 28.849 27.6879ZM27.9084 28.6508L27.9339 28.6519L27.9496 28.6524L27.9813 28.6524L27.997 28.6519L28.0232 28.6508C28.0955 28.6448 28.1645 28.6277 28.2286 28.6012C28.3124 28.5665 28.388 28.5154 28.4515 28.4518C28.5113 28.392 28.5601 28.3213 28.5947 28.2431C28.6231 28.1784 28.642 28.1087 28.6494 28.0357L27.8958 28.0357L27.8958 27.2819C27.8228 27.2893 27.7531 27.3082 27.6885 27.3366C27.6103 27.3712 27.5396 27.42 27.4798 27.4798C27.4163 27.5433 27.3652 27.619 27.3305 27.7029C27.297 27.7837 27.2785 27.8725 27.2785 27.9658C27.2785 28.0592 27.297 28.148 27.3305 28.2288C27.3652 28.3127 27.4163 28.3883 27.4798 28.4518C27.5433 28.5154 27.6189 28.5665 27.7028 28.6012C27.7669 28.6277 27.836 28.6449 27.9084 28.6508ZM28.5945 29.7567C28.6229 29.6921 28.6418 29.6224 28.6492 29.5493L27.8956 29.5493L27.8956 28.7956C27.8226 28.8029 27.7529 28.8218 27.6883 28.8503C27.6101 28.8848 27.5394 28.9336 27.4796 28.9935C27.4161 29.057 27.365 29.1326 27.3303 29.2165C27.2968 29.2973 27.2783 29.3861 27.2783 29.4795C27.2783 29.5728 27.2968 29.6616 27.3303 29.7424C27.365 29.8263 27.4161 29.902 27.4796 29.9655C27.5431 30.029 27.6187 30.0801 27.7026 30.1148C27.7834 30.1483 27.8722 30.1668 27.9655 30.1668C28.0588 30.1668 28.1476 30.1483 28.2284 30.1148C28.3122 30.0801 28.3878 30.029 28.4513 29.9655C28.5111 29.9057 28.5599 29.835 28.5945 29.7567ZM27.2087 27.633C27.2504 27.5382 27.3092 27.4529 27.381 27.381C27.4531 27.3089 27.5387 27.25 27.6338 27.2082C27.7148 27.1727 27.8027 27.1497 27.8949 27.1419L27.8949 26.522L27.2756 26.522C27.2683 26.6085 27.2477 26.6913 27.2158 26.7683C27.1738 26.8697 27.1124 26.9609 27.0364 27.037C26.9647 27.1086 26.8797 27.1673 26.7853 27.209C26.8797 27.2507 26.9647 27.3093 27.0364 27.381C27.1083 27.4529 27.167 27.5382 27.2087 27.633ZM27.1388 26.456L27.1373 26.456L27.1384 26.4275C27.1355 26.3432 27.1174 26.2629 27.0869 26.1892C27.0522 26.1053 27.0011 26.0297 26.9376 25.9661C26.8778 25.9063 26.8072 25.8575 26.7289 25.823C26.6643 25.7945 26.5946 25.7756 26.5216 25.7682L26.5216 26.522L25.768 26.522C25.7754 26.595 25.7942 26.6648 25.8228 26.7294C25.8573 26.8077 25.9061 26.8784 25.9659 26.9382C26.0294 27.0017 26.105 27.0528 26.1889 27.0875C26.2532 27.1142 26.3227 27.1313 26.3954 27.1372L26.4202 27.1382L26.436 27.1388L26.4676 27.1388L26.4833 27.1382L26.5082 27.1372C26.5809 27.1313 26.6503 27.1142 26.7146 27.0875C26.7985 27.0528 26.8741 27.0017 26.9376 26.9382C27.0011 26.8747 27.0522 26.799 27.0869 26.7151C27.1199 26.6354 27.1383 26.5479 27.1388 26.456ZM27.3358 26.1749C27.3073 26.2395 27.2885 26.3093 27.2811 26.3823L28.0346 26.3823L28.0346 27.1361C28.1076 27.1287 28.1773 27.1098 28.2419 27.0813C28.3202 27.0468 28.3909 26.998 28.4507 26.9382C28.5142 26.8747 28.5652 26.799 28.6 26.7151C28.6334 26.6343 28.6519 26.5455 28.6519 26.4522C28.6519 26.3588 28.6334 26.27 28.6 26.1892C28.5652 26.1053 28.5142 26.0297 28.4507 25.9661C28.3872 25.9026 28.3115 25.8515 28.2277 25.8168C28.1469 25.7833 28.0581 25.7648 27.9648 25.7648C27.8715 25.7648 27.7827 25.7833 27.7019 25.8168C27.618 25.8515 27.5424 25.9026 27.4789 25.9661C27.4191 26.0259 27.3703 26.0966 27.3358 26.1749ZM25.768 28.0357C25.7754 28.1087 25.7942 28.1784 25.8228 28.2431C25.8573 28.3214 25.9061 28.3921 25.9659 28.4518C26.0294 28.5154 26.105 28.5665 26.1889 28.6012C26.2697 28.6347 26.3584 28.6532 26.4518 28.6532C26.5451 28.6532 26.6338 28.6347 26.7146 28.6012C26.7985 28.5665 26.8741 28.5154 26.9376 28.4518C27.0011 28.3883 27.0522 28.3127 27.0869 28.2288C27.1204 28.148 27.1388 28.0592 27.1388 27.9658C27.1388 27.8725 27.1204 27.7837 27.0869 27.7029C27.0522 27.619 27.0011 27.5433 26.9376 27.4798C26.8778 27.42 26.8072 27.3712 26.7289 27.3366C26.6643 27.3082 26.5946 27.2893 26.5216 27.2819L26.5216 28.0357L25.768 28.0357ZM26.3819 25.7625C26.2952 25.7553 26.2122 25.7346 26.135 25.7026C26.0336 25.6606 25.9425 25.5992 25.8664 25.5231C25.7946 25.4512 25.7358 25.3659 25.6941 25.2712C25.6524 25.3659 25.5936 25.4512 25.5218 25.5231C25.4499 25.595 25.3646 25.6538 25.2698 25.6955C25.3648 25.7372 25.4504 25.7961 25.5224 25.8682C25.5946 25.9403 25.6535 26.026 25.6952 26.121C25.7307 26.2021 25.7537 26.29 25.7615 26.3823L26.3819 26.3823L26.3819 25.7625ZM26.3812 24.2544C26.3082 24.2618 26.2385 24.2806 26.1739 24.3091C26.0956 24.3437 26.025 24.3925 25.9652 24.4523C25.9017 24.5158 25.8506 24.5915 25.8159 24.6753C25.7824 24.7562 25.7639 24.845 25.7639 24.9383C25.7639 25.0316 25.7824 25.1205 25.8159 25.2013C25.8506 25.2852 25.9017 25.3608 25.9652 25.4243C26.0287 25.4879 26.1043 25.5389 26.1881 25.5737C26.268 25.6068 26.3558 25.6252 26.4479 25.6256L26.4713 25.6253C26.5572 25.6229 26.639 25.6047 26.714 25.5737C26.7978 25.539 26.8734 25.4879 26.9369 25.4243C26.9967 25.3645 27.0455 25.2938 27.08 25.2156C27.1085 25.1509 27.1274 25.0812 27.1348 25.0082L26.3812 25.0082L26.3812 24.2544ZM24.6607 27.0822C24.7253 27.1107 24.795 27.1296 24.868 27.137L24.868 26.3832L25.6215 26.3832C25.6141 26.3102 25.5953 26.2404 25.5668 26.1758C25.5323 26.0975 25.4835 26.0268 25.4237 25.967C25.3604 25.9037 25.2847 25.8525 25.2007 25.8177C25.1199 25.7842 25.0311 25.7657 24.9378 25.7657C24.8445 25.7657 24.7557 25.7842 24.6749 25.8177C24.5911 25.8524 24.5154 25.9035 24.452 25.967C24.3885 26.0305 24.3374 26.1062 24.3027 26.1901C24.2692 26.2709 24.2507 26.3597 24.2507 26.453C24.2507 26.5464 24.2692 26.6352 24.3027 26.716C24.3374 26.7999 24.3885 26.8755 24.452 26.9391C24.5117 26.9988 24.5824 27.0477 24.6607 27.0822ZM24.8673 24.1091L24.8673 23.494L24.248 23.494C24.2408 23.5808 24.2202 23.6638 24.1882 23.741C24.1462 23.8425 24.0848 23.9336 24.0087 24.0097C23.9326 24.0858 23.8416 24.1472 23.7401 24.1892C23.6633 24.221 23.5807 24.2416 23.4945 24.249L23.4945 24.8685L24.1098 24.8685L24.2521 24.8685L24.8673 24.8685L24.8673 24.2534L24.8673 24.1091ZM24.1112 23.428L24.1096 23.428L24.1108 23.3998C24.1078 23.3156 24.0897 23.2355 24.0593 23.1619C24.0245 23.078 23.9735 23.0024 23.91 22.9388C23.8502 22.8791 23.7795 22.8302 23.7012 22.7957C23.6366 22.7672 23.5669 22.7483 23.4939 22.7409L23.4939 23.4947L22.7404 23.4947C22.7478 23.5678 22.7666 23.6375 22.7951 23.7021C22.8296 23.7804 22.8784 23.8511 22.9382 23.9109C23.0017 23.9744 23.0773 24.0255 23.1612 24.0603C23.2237 24.0861 23.291 24.1031 23.3615 24.1094L23.3931 24.1107L23.4088 24.1112L23.4405 24.1112L23.4562 24.1107L23.4857 24.1095C23.5566 24.1032 23.6242 24.0863 23.687 24.0603C23.7708 24.0255 23.8465 23.9744 23.91 23.9109C23.9735 23.8474 24.0245 23.7717 24.0593 23.6878C24.0924 23.6079 24.1108 23.5202 24.1112 23.428ZM24.3081 23.147C24.2796 23.2116 24.2608 23.2813 24.2534 23.3543L25.007 23.3543L25.007 24.1081C25.08 24.1007 25.1497 24.0819 25.2143 24.0534C25.2925 24.0188 25.3632 23.97 25.423 23.9102C25.4865 23.8467 25.5376 23.771 25.5723 23.6872C25.6058 23.6063 25.6242 23.5175 25.6242 23.4242C25.6242 23.3308 25.6058 23.242 25.5723 23.1612C25.5376 23.0773 25.4865 23.0017 25.423 22.9382C25.3595 22.8746 25.2839 22.8236 25.2 22.7888C25.1192 22.7553 25.0304 22.7369 24.9371 22.7369C24.8438 22.7369 24.755 22.7553 24.6742 22.7888C24.5904 22.8236 24.5148 22.8746 24.4513 22.9382C24.3916 22.9979 24.3427 23.0685 24.3081 23.147ZM24.2534 25.0082C24.2608 25.0812 24.2796 25.1509 24.3082 25.2155C24.3427 25.2938 24.3915 25.3645 24.4513 25.4243C24.5148 25.4879 24.5904 25.539 24.6742 25.5737C24.755 25.6072 24.8438 25.6256 24.9371 25.6256C25.0304 25.6256 25.1192 25.6071 25.2 25.5737C25.284 25.5389 25.3597 25.4878 25.423 25.4245C25.4863 25.3611 25.5375 25.2853 25.5723 25.2013C25.6058 25.1205 25.6242 25.0316 25.6242 24.9383C25.6242 24.845 25.6058 24.7562 25.5723 24.6753C25.5376 24.5915 25.4865 24.5158 25.423 24.4523C25.3632 24.3925 25.2925 24.3437 25.2143 24.3091C25.1497 24.2806 25.08 24.2618 25.007 24.2544L25.007 25.0082L24.2534 25.0082ZM24.0536 25.2156C24.0821 25.1509 24.101 25.0812 24.1084 25.0082L23.3548 25.0082L23.3548 24.2544C23.2818 24.2618 23.2121 24.2806 23.1475 24.3091C23.0692 24.3437 22.9986 24.3925 22.9388 24.4523C22.8753 24.5158 22.8242 24.5915 22.7895 24.6754C22.756 24.7562 22.7375 24.845 22.7375 24.9383C22.7375 25.0316 22.756 25.1205 22.7895 25.2013C22.8242 25.2852 22.8753 25.3608 22.9388 25.4243C23.0023 25.4879 23.0779 25.5389 23.1617 25.5737C23.2426 25.6071 23.3314 25.6256 23.4247 25.6256C23.518 25.6256 23.6067 25.6072 23.6875 25.5737C23.7714 25.5389 23.847 25.4879 23.9105 25.4243C23.9703 25.3645 24.0191 25.2938 24.0536 25.2156ZM21.9814 22.6004C22.0679 22.6077 22.1506 22.6283 22.2276 22.6602C22.3291 22.7022 22.4201 22.7636 22.4962 22.8397C22.5723 22.9158 22.6337 23.0069 22.6757 23.1084C22.7076 23.1855 22.7283 23.2684 22.7355 23.355L23.3542 23.355L23.3542 22.7351C23.2678 22.7279 23.1851 22.7073 23.108 22.6754C23.0066 22.6333 22.9155 22.5719 22.8395 22.4958C22.7634 22.4197 22.702 22.3286 22.66 22.2272C22.6281 22.15 22.6074 22.0671 22.6002 21.9805L21.9814 21.9805L21.9814 22.6004ZM21.1546 23.0919C21.1963 22.997 21.2551 22.9117 21.327 22.8397C21.3987 22.768 21.4838 22.7093 21.5782 22.6676C21.4838 22.6259 21.3987 22.5672 21.327 22.4955C21.2552 22.4237 21.1965 22.3385 21.1548 22.2439C21.1131 22.3388 21.0543 22.4242 20.9823 22.4962C20.9107 22.5678 20.8258 22.6264 20.7314 22.6681C20.8258 22.7098 20.9107 22.7684 20.9823 22.8401C21.0541 22.9119 21.1129 22.9972 21.1546 23.0919ZM22.3975 22.9385C22.334 22.875 22.2583 22.8239 22.1745 22.7891C22.1088 22.762 22.0379 22.7446 21.9636 22.7391L21.9432 22.7383L21.9274 22.7378L21.8959 22.7378L21.88 22.7383L21.8597 22.7391C21.7853 22.7446 21.7144 22.7619 21.6487 22.7892C21.5649 22.8239 21.4892 22.875 21.4257 22.9385C21.3622 23.002 21.3111 23.0777 21.2764 23.1615C21.243 23.2424 21.2245 23.3312 21.2245 23.4245C21.2245 23.5177 21.243 23.6068 21.2764 23.6875C21.3112 23.7714 21.3622 23.847 21.4257 23.9105C21.4892 23.9741 21.5649 24.0252 21.6487 24.0599C21.7295 24.0934 21.8183 24.1118 21.9116 24.1118C22.0049 24.1118 22.0937 24.0934 22.1745 24.0599C22.2583 24.0252 22.334 23.9741 22.3975 23.9105C22.461 23.847 22.512 23.7714 22.5468 23.6875C22.5764 23.6159 22.5943 23.5379 22.598 23.4562L22.5966 23.421L22.5987 23.421C22.5982 23.329 22.5798 23.2414 22.5468 23.1615C22.5121 23.0777 22.461 23.002 22.3975 22.9385ZM22.6679 21.5764C22.7096 21.4824 22.768 21.3977 22.8395 21.3262C22.9155 21.2501 23.0066 21.1887 23.108 21.1467C23.1855 21.1146 23.2687 21.0939 23.3557 21.0868L23.3557 20.4672L22.7353 20.4672C22.7275 20.5596 22.7045 20.6475 22.6689 20.7286C22.6272 20.8237 22.5683 20.9094 22.4962 20.9815C22.4245 21.0533 22.3393 21.112 22.2448 21.1537C22.3393 21.1954 22.4245 21.2541 22.4962 21.3259C22.5677 21.3974 22.6263 21.4822 22.6679 21.5764ZM23.91 21.425C23.8465 21.3615 23.7708 21.3104 23.687 21.2757C23.6129 21.245 23.5321 21.2269 23.4472 21.2241L23.4217 21.2251L23.4217 21.2237C23.3293 21.224 23.2413 21.2425 23.1612 21.2757C23.0773 21.3104 23.0017 21.3615 22.9382 21.425C22.8747 21.4885 22.8236 21.5642 22.7889 21.648C22.7593 21.7197 22.7414 21.7976 22.7377 21.8794L22.7391 21.9145L22.737 21.9145C22.7376 22.0062 22.756 22.0944 22.7889 22.174C22.8236 22.2579 22.8747 22.3335 22.9382 22.397C23.0017 22.4606 23.0773 22.5117 23.1612 22.5464C23.2269 22.5736 23.2978 22.5909 23.3722 22.5964L23.3925 22.5973L23.4083 22.5978L23.4398 22.5978L23.4557 22.5973L23.4759 22.5964C23.5503 22.5909 23.6213 22.5736 23.687 22.5464C23.7708 22.5117 23.8465 22.4606 23.91 22.397C23.9735 22.3335 24.0246 22.2579 24.0593 22.174C24.0927 22.0932 24.1112 22.0043 24.1112 21.911C24.1112 21.8177 24.0927 21.7289 24.0593 21.648C24.0246 21.5642 23.9735 21.4885 23.91 21.425ZM21.9116 21.0836C21.9171 21.0836 21.9226 21.0837 21.928 21.0838C22.0153 21.0817 22.0984 21.0635 22.1745 21.032C22.2583 20.9973 22.334 20.9462 22.3975 20.8827C22.4573 20.8229 22.5061 20.7522 22.5406 20.6739C22.5691 20.6093 22.5879 20.5395 22.5953 20.4665L21.8418 20.4665L21.8418 19.7127C21.7688 19.7201 21.699 19.739 21.6344 19.7675C21.5562 19.802 21.4855 19.8508 21.4257 19.9106C21.3622 19.9742 21.3111 20.0498 21.2764 20.1337C21.243 20.2145 21.2245 20.3033 21.2245 20.3967C21.2245 20.4899 21.243 20.5789 21.2764 20.6597C21.3112 20.7435 21.3622 20.8192 21.4257 20.8827C21.4892 20.9462 21.5649 20.9973 21.6487 21.032C21.7247 21.0635 21.8079 21.0817 21.8952 21.0838C21.9007 21.0837 21.9061 21.0836 21.9116 21.0836ZM21.1545 21.5782C21.1962 21.4833 21.255 21.3979 21.327 21.3259C21.3987 21.2541 21.4839 21.1954 21.5784 21.1537C21.4839 21.112 21.3987 21.0533 21.327 20.9815C21.2551 20.9096 21.1964 20.8244 21.1547 20.7297C21.113 20.8245 21.0542 20.9099 20.9823 20.9818C20.9104 21.0537 20.8252 21.1125 20.7304 21.1542C20.8252 21.1959 20.9104 21.2547 20.9823 21.3266C21.0541 21.3984 21.1128 21.4836 21.1545 21.5782ZM22.5953 21.8408C22.5879 21.7678 22.5691 21.6981 22.5406 21.6335C22.5061 21.5552 22.4573 21.4845 22.3975 21.4247C22.334 21.3611 22.2583 21.3101 22.1745 21.2753C22.0985 21.2438 22.0154 21.2256 21.9281 21.2236C21.9226 21.2237 21.9171 21.2237 21.9116 21.2237C21.9061 21.2237 21.9006 21.2237 21.8951 21.2236C21.8078 21.2256 21.7247 21.2438 21.6487 21.2753C21.5649 21.3101 21.4892 21.3612 21.4257 21.4247C21.3622 21.4882 21.3112 21.5638 21.2764 21.6477C21.243 21.7285 21.2245 21.8174 21.2245 21.9107C21.2246 22.0038 21.243 22.093 21.2764 22.1737C21.3111 22.2575 21.3622 22.3332 21.4257 22.3967C21.4855 22.4565 21.5562 22.5053 21.6344 22.5399C21.699 22.5684 21.7688 22.5872 21.8418 22.5946L21.8418 21.8408L22.5953 21.8408ZM32.5056 19.5696C32.5171 19.5696 32.5285 19.5699 32.5398 19.5703C32.6205 19.5663 32.6974 19.5485 32.7682 19.5192C32.852 19.4845 32.9276 19.4334 32.9911 19.3699C33.0546 19.3064 33.1057 19.2307 33.1404 19.1468C33.1739 19.066 33.1924 18.9772 33.1924 18.8838C33.1924 18.7905 33.1739 18.7017 33.1404 18.6209C33.1057 18.537 33.0546 18.4613 32.9911 18.3978C32.9276 18.3343 32.852 18.2832 32.7682 18.2485C32.6873 18.215 32.5986 18.1965 32.5053 18.1965C32.412 18.1965 32.3232 18.215 32.2424 18.2485C32.1585 18.2832 32.0829 18.3343 32.0194 18.3978C31.9559 18.4613 31.9048 18.537 31.8701 18.6209C31.8367 18.7016 31.8182 18.7903 31.8181 18.8835C31.8181 18.9768 31.8366 19.066 31.8701 19.1468C31.9048 19.2307 31.9559 19.3064 32.0194 19.3699C32.0829 19.4334 32.1585 19.4845 32.2424 19.5192C32.3132 19.5486 32.3902 19.5664 32.471 19.5703C32.4825 19.5699 32.494 19.5696 32.5056 19.5696ZM31.6817 20.3275C31.6889 20.2408 31.7095 20.1578 31.7415 20.0805C31.7835 19.9791 31.8449 19.888 31.921 19.8119C31.9924 19.7404 32.077 19.682 32.1709 19.6403C32.0768 19.5987 31.9921 19.5401 31.9206 19.4686C31.8487 19.3967 31.7899 19.3114 31.7482 19.2165C31.7065 19.3112 31.6478 19.3965 31.576 19.4683C31.5039 19.5404 31.4183 19.5994 31.3232 19.6411C31.2422 19.6767 31.1543 19.6996 31.0621 19.7074L31.0621 20.3275L31.6817 20.3275ZM33.1893 20.3268C33.182 20.2538 33.1631 20.184 33.1346 20.1194C33.1001 20.0412 33.0513 19.9705 32.9915 19.9106C32.928 19.8471 32.8523 19.796 32.7685 19.7613C32.6977 19.732 32.6207 19.7141 32.5399 19.7102C32.5284 19.7106 32.5169 19.7109 32.5053 19.7109C32.4938 19.7109 32.4824 19.7107 32.4711 19.7102C32.3904 19.7142 32.3135 19.732 32.2427 19.7613C32.1589 19.796 32.0832 19.8471 32.0197 19.9106C31.9562 19.9742 31.9052 20.0498 31.8704 20.1337C31.8373 20.2136 31.8189 20.3013 31.8185 20.3935L31.8188 20.4169C31.8213 20.5028 31.8394 20.5847 31.8704 20.6597C31.9052 20.7435 31.9562 20.8192 32.0197 20.8827C32.0795 20.9425 32.1502 20.9913 32.2284 21.0258C32.293 21.0543 32.3628 21.0732 32.4358 21.0806L32.4358 20.3268L33.1893 20.3268ZM30.2353 20.0645C30.277 19.9698 30.3357 19.8844 30.4076 19.8126C30.4797 19.7404 30.5653 19.6815 30.6603 19.6398C30.7414 19.6042 30.8293 19.5813 30.9215 19.5734L30.9215 18.9534L30.3022 18.9534C30.2949 19.0398 30.2743 19.1226 30.2424 19.1997C30.2004 19.3011 30.139 19.3922 30.0629 19.4683C29.9912 19.54 29.9062 19.5987 29.8117 19.6404C29.9061 19.6821 29.9912 19.7408 30.0629 19.8126C30.1348 19.8844 30.1936 19.9698 30.2353 20.0645ZM31.6212 20.6746C31.6497 20.61 31.6686 20.5402 31.6759 20.4672L30.9224 20.4672L30.9224 19.7134C30.8494 19.7208 30.7797 19.7397 30.7151 19.7682C30.6368 19.8027 30.5661 19.8515 30.5063 19.9113C30.4428 19.9748 30.3918 20.0505 30.357 20.1344C30.3236 20.2152 30.3051 20.304 30.3051 20.3973C30.3051 20.4907 30.3236 20.5795 30.357 20.6603C30.3918 20.7442 30.4428 20.8199 30.5063 20.8834C30.5698 20.9469 30.6455 20.998 30.7293 21.0327C30.8101 21.0662 30.8989 21.0847 30.9922 21.0847C31.0855 21.0847 31.1743 21.0662 31.2551 21.0327C31.3389 20.998 31.4146 20.9469 31.4781 20.8834C31.5379 20.8236 31.5867 20.7529 31.6212 20.6746ZM30.1654 18.8873L30.1638 18.8873L30.165 18.8589C30.162 18.7746 30.144 18.6942 30.1135 18.6205C30.0788 18.5367 30.0277 18.461 29.9642 18.3975C29.9007 18.334 29.825 18.2829 29.7412 18.2481C29.6604 18.2147 29.5716 18.1962 29.4783 18.1962C29.385 18.1962 29.2962 18.2147 29.2154 18.2481C29.1316 18.2829 29.0559 18.334 28.9924 18.3975C28.9327 18.4573 28.8838 18.528 28.8493 18.6063C28.8208 18.6709 28.802 18.7406 28.7946 18.8136L29.5481 18.8136L29.5481 19.5674C29.6211 19.56 29.6909 19.5412 29.7555 19.5127C29.8337 19.4781 29.9044 19.4293 29.9642 19.3695C30.0277 19.306 30.0787 19.2304 30.1135 19.1465C30.1465 19.0668 30.1649 18.9793 30.1654 18.8873ZM30.3624 18.6063C30.3339 18.6709 30.315 18.7406 30.3076 18.8136L31.0612 18.8136L31.0612 19.5674C31.1342 19.56 31.2039 19.5412 31.2685 19.5127C31.3467 19.4781 31.4174 19.4293 31.4772 19.3695C31.5407 19.306 31.5918 19.2303 31.6265 19.1465C31.6599 19.0658 31.6784 18.977 31.6785 18.8838C31.6785 18.7905 31.66 18.7014 31.6265 18.6205C31.5918 18.5367 31.5407 18.461 31.4772 18.3975C31.4137 18.334 31.3381 18.2829 31.2542 18.2481C31.1734 18.2147 31.0847 18.1962 30.9914 18.1962C30.8981 18.1962 30.8093 18.2147 30.7285 18.2481C30.6446 18.2829 30.569 18.334 30.5055 18.3975C30.4457 18.4573 30.3969 18.528 30.3624 18.6063ZM29.4085 19.5682L29.4085 18.9534L28.7933 18.9534L28.6509 18.9534L28.0356 18.9534L28.0356 19.5682L28.0356 19.7127L28.0356 20.3275L28.6509 20.3275L28.7933 20.3275L29.4085 20.3275L29.4085 19.7127L29.4085 19.5682ZM28.7946 20.4672C28.802 20.5402 28.8208 20.61 28.8493 20.6746C28.8838 20.7529 28.9327 20.8236 28.9924 20.8834C29.0559 20.9469 29.1316 20.998 29.2154 21.0327C29.2962 21.0662 29.385 21.0847 29.4783 21.0847C29.5716 21.0847 29.6604 21.0662 29.7412 21.0327C29.825 20.998 29.9007 20.9469 29.9642 20.8834C30.0277 20.8199 30.0787 20.7442 30.1135 20.6603C30.1469 20.5795 30.1654 20.4907 30.1654 20.3973C30.1654 20.304 30.1469 20.2152 30.1135 20.1344C30.0788 20.0505 30.0277 19.9749 29.9642 19.9113C29.9044 19.8515 29.8337 19.8027 29.7554 19.7682C29.6909 19.7397 29.6212 19.7208 29.5481 19.7134L29.5481 20.4672L28.7946 20.4672ZM27.2088 20.0645C27.2506 19.9698 27.3093 19.8844 27.3812 19.8126C27.4529 19.7408 27.538 19.6821 27.6324 19.6404C27.538 19.5987 27.4529 19.54 27.3812 19.4683C27.3094 19.3965 27.2506 19.3112 27.2089 19.2165C27.1672 19.3113 27.1084 19.3967 27.0365 19.4686C26.9649 19.5403 26.88 19.5989 26.7856 19.6406C26.88 19.6823 26.9649 19.7409 27.0365 19.8126C27.1084 19.8844 27.1672 19.9698 27.2088 20.0645ZM28.5948 20.6746C28.6233 20.61 28.6421 20.5402 28.6495 20.4672L27.896 20.4672L27.896 19.7134C27.823 19.7208 27.7533 19.7397 27.6887 19.7682C27.6104 19.8027 27.5397 19.8515 27.4799 19.9113C27.4164 19.9749 27.3654 20.0505 27.3306 20.1344C27.2972 20.2152 27.2787 20.304 27.2787 20.3973C27.2787 20.4907 27.2972 20.5795 27.3306 20.6603C27.3654 20.7442 27.4165 20.8199 27.4799 20.8834C27.5434 20.9469 27.6191 20.998 27.7029 21.0327C27.7837 21.0662 27.8725 21.0847 27.9658 21.0847C28.0591 21.0847 28.1479 21.0662 28.2287 21.0327C28.3126 20.998 28.3882 20.9469 28.4517 20.8834C28.5115 20.8236 28.5603 20.7529 28.5948 20.6746ZM28.6495 18.8136C28.6421 18.7406 28.6233 18.6709 28.5948 18.6063C28.5603 18.528 28.5115 18.4573 28.4517 18.3975C28.3882 18.334 28.3125 18.2829 28.2287 18.2481C28.1479 18.2147 28.0591 18.1962 27.9658 18.1962C27.8725 18.1962 27.7837 18.2147 27.7029 18.2481C27.6191 18.2829 27.5434 18.334 27.4799 18.3975C27.4164 18.461 27.3654 18.5367 27.3306 18.6205C27.2972 18.7014 27.2787 18.7902 27.2787 18.8835C27.2787 18.9767 27.2972 19.0658 27.3306 19.1465C27.3654 19.2303 27.4164 19.306 27.4799 19.3695C27.5397 19.4293 27.6104 19.4781 27.6887 19.5127C27.7533 19.5412 27.823 19.56 27.896 19.5674L27.896 18.8136L28.6495 18.8136ZM25.0093 19.5729C25.0957 19.5802 25.1784 19.6008 25.2555 19.6327C25.3569 19.6747 25.448 19.7361 25.524 19.8122C25.6001 19.8883 25.6615 19.9794 25.7035 20.0809C25.7355 20.158 25.7561 20.2409 25.7633 20.3275L26.3821 20.3275L26.3821 19.708C26.2956 19.7007 26.2129 19.6801 26.1359 19.6482C26.0344 19.6062 25.9434 19.5447 25.8673 19.4686C25.7912 19.3926 25.7298 19.3014 25.6878 19.2C25.6559 19.1229 25.6352 19.04 25.628 18.9534L25.0093 18.9534L25.0093 19.5729ZM24.1824 20.0643C24.2656 19.8751 24.4167 19.7238 24.6057 19.6403C24.5113 19.5986 24.4264 19.54 24.3548 19.4683C24.283 19.3965 24.2242 19.3112 24.1825 19.2165C24.1408 19.3114 24.082 19.3967 24.0101 19.4686C23.9385 19.5403 23.8535 19.5989 23.7592 19.6406C23.8535 19.6823 23.9385 19.7409 24.0101 19.8126C24.082 19.8844 24.1407 19.9696 24.1824 20.0643ZM25.4253 19.911C25.3618 19.8475 25.2862 19.7964 25.2023 19.7617C25.1392 19.7355 25.0711 19.7185 24.9999 19.7123L24.971 19.7111L24.9552 19.7106L24.9236 19.7106L24.9078 19.7111L24.8788 19.7123C24.8076 19.7185 24.7396 19.7355 24.6765 19.7616C24.5927 19.7964 24.517 19.8475 24.4535 19.911C24.39 19.9745 24.339 20.0502 24.3042 20.134C24.2708 20.2149 24.2523 20.3037 24.2523 20.397C24.2523 20.4902 24.2708 20.5793 24.3042 20.66C24.339 20.7438 24.39 20.8195 24.4535 20.883C24.5779 21.0074 24.7497 21.0843 24.9394 21.0843C25.0327 21.0843 25.1215 21.0658 25.2023 21.0324C25.2863 20.9976 25.3619 20.9465 25.4253 20.8832C25.4888 20.8197 25.5399 20.7438 25.5746 20.66C25.6042 20.5884 25.6221 20.5104 25.6258 20.4286L25.6244 20.3935L25.6265 20.3935C25.626 20.3015 25.6076 20.2138 25.5746 20.134C25.5399 20.0502 25.4888 19.9745 25.4253 19.911ZM26.9378 18.3978C26.8743 18.3343 26.7986 18.2832 26.7148 18.2485C26.634 18.215 26.5452 18.1965 26.4519 18.1965C26.3586 18.1965 26.2698 18.215 26.189 18.2485C26.1052 18.2832 26.0295 18.3343 25.966 18.3978C25.9025 18.4613 25.8515 18.537 25.8167 18.6209C25.7871 18.6925 25.7692 18.7704 25.7655 18.8522L25.7669 18.8873L25.7648 18.8873C25.7654 18.9791 25.7838 19.0673 25.8167 19.1468C25.8515 19.2307 25.9025 19.3064 25.966 19.3699C26.0295 19.4334 26.1052 19.4845 26.189 19.5192C26.2521 19.5454 26.3202 19.5624 26.3915 19.5686L26.4203 19.5698L26.4362 19.5703L26.4677 19.5703L26.4835 19.5698L26.5125 19.5685C26.5837 19.5624 26.6517 19.5454 26.7148 19.5192C26.7986 19.4845 26.8743 19.4334 26.9378 19.3699C27.0013 19.3064 27.0524 19.2307 27.0871 19.1468C27.1205 19.066 27.139 18.9772 27.139 18.8838C27.139 18.7906 27.1205 18.7016 27.0871 18.6209C27.0523 18.537 27.0013 18.4613 26.9378 18.3978ZM25.7682 20.4672C25.7756 20.5402 25.7944 20.61 25.8229 20.6746C25.8574 20.7529 25.9062 20.8236 25.966 20.8834C26.0295 20.9469 26.1052 20.998 26.189 21.0327C26.2698 21.0662 26.3586 21.0847 26.4519 21.0847C26.5452 21.0847 26.634 21.0662 26.7148 21.0327C26.7986 20.998 26.8743 20.9469 26.9378 20.8834C27.0013 20.8199 27.0524 20.7442 27.0871 20.6603C27.1205 20.5795 27.139 20.4907 27.139 20.3973C27.139 20.304 27.1205 20.2152 27.0871 20.1344C27.0524 20.0505 27.0013 19.9748 26.9378 19.9113C26.878 19.8515 26.8073 19.8027 26.7291 19.7682C26.6645 19.7397 26.5947 19.7208 26.5217 19.7134L26.5217 20.4672L25.7682 20.4672ZM25.6231 18.8136C25.6157 18.7406 25.5969 18.6709 25.5684 18.6063C25.5339 18.528 25.4851 18.4573 25.4253 18.3975C25.3618 18.334 25.2862 18.2829 25.2023 18.2481C25.1215 18.2147 25.0327 18.1962 24.9394 18.1962C24.8461 18.1962 24.7573 18.2147 24.6765 18.2481C24.5926 18.2829 24.5169 18.334 24.4535 18.3974C24.3901 18.4608 24.339 18.5366 24.3042 18.6205C24.2708 18.7014 24.2523 18.7902 24.2523 18.8835C24.2523 18.9767 24.2708 19.0657 24.3042 19.1465C24.339 19.2303 24.39 19.306 24.4535 19.3695C24.5133 19.4293 24.584 19.4781 24.6623 19.5127C24.7269 19.5412 24.7966 19.56 24.8696 19.5674L24.8696 18.8136L25.6231 18.8136ZM22.7387 18.8608C22.739 18.8683 22.7391 18.8759 22.7391 18.8835C22.7391 18.8912 22.7389 18.8989 22.7387 18.9066C22.7415 18.9916 22.7596 19.0726 22.7903 19.1468C22.825 19.2307 22.8761 19.3064 22.9396 19.3699C23.0031 19.4334 23.0788 19.4845 23.1626 19.5192C23.236 19.5496 23.3159 19.5677 23.3999 19.5707C23.4084 19.5705 23.4169 19.5703 23.4255 19.5703C23.4341 19.5703 23.4426 19.5705 23.4511 19.5707C23.535 19.5677 23.615 19.5496 23.6884 19.5192C23.7722 19.4845 23.8479 19.4334 23.9114 19.3699C23.9749 19.3064 24.0259 19.2307 24.0607 19.1468C24.0941 19.066 24.1126 18.9772 24.1126 18.8838C24.1126 18.7906 24.0941 18.7016 24.0607 18.6209C24.0259 18.537 23.9749 18.4613 23.9114 18.3978C23.8479 18.3343 23.7722 18.2832 23.6884 18.2485C23.6076 18.215 23.5188 18.1965 23.4255 18.1965C23.3322 18.1965 23.2434 18.215 23.1626 18.2485C23.0788 18.2832 23.0031 18.3343 22.9396 18.3978C22.8761 18.4613 22.825 18.537 22.7903 18.6209C22.7596 18.695 22.7415 18.7759 22.7387 18.8608ZM22.6688 19.2173C22.6271 19.3117 22.5685 19.3967 22.4969 19.4683C22.4208 19.5444 22.3297 19.6058 22.2283 19.6478C22.1511 19.6798 22.0681 19.7005 21.9814 19.7077L21.9814 20.3268L22.6018 20.3268C22.6096 20.2344 22.6326 20.1465 22.6681 20.0654C22.7099 19.9703 22.7688 19.8846 22.8409 19.8126C22.9125 19.7409 22.9975 19.6823 23.0918 19.6406C22.9974 19.5989 22.9125 19.5403 22.8409 19.4686C22.7692 19.3969 22.7105 19.3118 22.6688 19.2173ZM21.5778 19.6399C21.4838 19.5983 21.3991 19.5398 21.3276 19.4683C21.2557 19.3963 21.1968 19.3109 21.1551 19.2159C21.1134 19.3111 21.0544 19.3968 20.9823 19.469C20.9109 19.5404 20.8262 19.599 20.7322 19.6406C20.8262 19.6823 20.9109 19.7408 20.9823 19.8122C21.0541 19.8841 21.1129 19.9693 21.1545 20.064C21.1962 19.9692 21.255 19.8838 21.327 19.8119C21.3985 19.7402 21.4835 19.6816 21.5778 19.6399ZM22.1894 18.2543C22.1248 18.2258 22.0551 18.207 21.9821 18.1996L21.9821 18.9534L21.2286 18.9534C21.236 19.0264 21.2548 19.0961 21.2833 19.1607C21.3178 19.239 21.3666 19.3097 21.4264 19.3695C21.4899 19.433 21.5655 19.4842 21.6494 19.5189C21.7217 19.5488 21.8003 19.5668 21.8829 19.5702L21.9154 19.5689L21.9154 19.5708C22.0076 19.5704 22.0953 19.552 22.1752 19.5189C22.259 19.4841 22.3347 19.433 22.3981 19.3695C22.4616 19.306 22.5127 19.2303 22.5474 19.1465C22.5781 19.0723 22.5962 18.9915 22.599 18.9066C22.5988 18.8991 22.5987 18.8914 22.5987 18.8838C22.5987 18.8761 22.5988 18.8684 22.599 18.8607C22.5963 18.7757 22.5782 18.6947 22.5474 18.6205C22.5127 18.5367 22.4616 18.461 22.3981 18.3975C22.3384 18.3377 22.2677 18.2889 22.1894 18.2543ZM23.4511 19.7105C23.4426 19.7108 23.4341 19.7109 23.4255 19.7109C23.4169 19.7109 23.4084 19.7108 23.3999 19.7105C23.3159 19.7136 23.236 19.7316 23.1626 19.762C23.0788 19.7967 23.0031 19.8478 22.9396 19.9113C22.8798 19.9711 22.831 20.0418 22.7965 20.1201C22.768 20.1847 22.7492 20.2545 22.7418 20.3275L23.4953 20.3275L23.4953 21.0813C23.5683 21.0739 23.6381 21.055 23.7026 21.0265C23.7809 20.992 23.8516 20.9432 23.9114 20.8834C23.9749 20.8199 24.0259 20.7442 24.0607 20.6603C24.0941 20.5795 24.1126 20.4907 24.1126 20.3974C24.1126 20.3041 24.0941 20.2151 24.0607 20.1344C24.0259 20.0504 23.9748 19.9747 23.9114 19.9113C23.8479 19.8478 23.7722 19.7967 23.6884 19.762C23.615 19.7316 23.5351 19.7136 23.4511 19.7105ZM19.5687 18.9541L18.9536 18.9541L18.9536 19.5692L18.9536 19.7118L18.9536 20.3271L19.5738 20.3271C19.5811 20.2407 19.6017 20.1579 19.6336 20.0808C19.6756 19.9794 19.737 19.8883 19.813 19.8122C19.8891 19.7361 19.9802 19.6747 20.0816 19.6327C20.1586 19.6008 20.2414 19.5802 20.3278 19.5729L20.3278 18.9541L19.7127 18.9541L19.5687 18.9541ZM18.6066 19.5134C18.6712 19.5419 18.7409 19.5607 18.8139 19.5681L18.8139 18.8144L19.5675 18.8144C19.5601 18.7413 19.5412 18.6716 19.5127 18.607C19.4782 18.5287 19.4294 18.458 19.3696 18.3982C19.3061 18.3347 19.2305 18.2836 19.1466 18.2488C19.0658 18.2154 18.977 18.1969 18.8837 18.1969C18.7904 18.1969 18.7017 18.2154 18.6209 18.2488C18.537 18.2836 18.4614 18.3347 18.3979 18.3982C18.3344 18.4617 18.2833 18.5374 18.2486 18.6212C18.2151 18.7021 18.1966 18.7909 18.1966 18.8842C18.1966 18.9775 18.2151 19.0664 18.2486 19.1472C18.2833 19.231 18.3344 19.3067 18.3979 19.3702C18.4576 19.43 18.5283 19.4788 18.6066 19.5134ZM20.4307 19.7105L20.3939 19.712L20.3939 19.7097C20.3021 19.7103 20.2143 19.7287 20.1348 19.7616C20.0509 19.7964 19.9753 19.8475 19.9118 19.911C19.8483 19.9745 19.7972 20.0502 19.7625 20.134C19.7298 20.2131 19.7114 20.2998 19.7106 20.3909L19.7106 20.4031C19.7114 20.4942 19.7298 20.5809 19.7625 20.66C19.7972 20.7438 19.8483 20.8195 19.9118 20.883C19.9753 20.9465 20.0509 20.9976 20.1348 21.0324C20.2156 21.0658 20.3044 21.0843 20.3977 21.0843C20.491 21.0843 20.5798 21.0658 20.6606 21.0324C20.7444 20.9976 20.8201 20.9465 20.8835 20.883C20.947 20.8195 20.9981 20.7438 21.0328 20.66C21.0663 20.5792 21.0848 20.4904 21.0848 20.397C21.0847 20.3038 21.0663 20.2147 21.0328 20.134C20.9981 20.0502 20.947 19.9745 20.8835 19.911C20.8201 19.8475 20.7444 19.7964 20.6606 19.7616C20.5894 19.7321 20.5119 19.7143 20.4307 19.7105ZM20.4675 19.5681C20.5405 19.5607 20.6102 19.5419 20.6748 19.5134C20.7531 19.4788 20.8238 19.43 20.8835 19.3702C20.947 19.3067 20.9981 19.2311 21.0328 19.1472C21.0663 19.0664 21.0848 18.9775 21.0848 18.8842C21.0848 18.7909 21.0663 18.7021 21.0328 18.6212C20.9981 18.5374 20.947 18.4617 20.8835 18.3982C20.82 18.3347 20.7444 18.2836 20.6606 18.2488C20.5798 18.2154 20.491 18.1969 20.3977 18.1969C20.3044 18.1969 20.2156 18.2154 20.1348 18.2488C20.0509 18.2836 19.9753 18.3347 19.9118 18.3982C19.852 18.458 19.8032 18.5287 19.7687 18.607C19.7402 18.6716 19.7213 18.7413 19.714 18.8143L20.4675 18.8143L20.4675 19.5681ZM20.0649 21.1542C19.9702 21.1125 19.8849 21.0537 19.813 20.9818C19.7412 20.9099 19.6824 20.8246 19.6407 20.7299C19.599 20.8246 19.5402 20.9099 19.4684 20.9818C19.3968 21.0534 19.3119 21.112 19.2176 21.1537C19.3122 21.1954 19.3973 21.2541 19.4691 21.3259C19.5408 21.3977 19.5995 21.4828 19.6412 21.5774C19.6829 21.4831 19.7415 21.3982 19.813 21.3266C19.8849 21.2547 19.9702 21.1959 20.0649 21.1542ZM18.8139 19.7131C18.7409 19.7205 18.6712 19.7393 18.6066 19.7678C18.5283 19.8024 18.4577 19.8512 18.3979 19.911C18.3344 19.9745 18.2833 20.0502 18.2486 20.134C18.2151 20.2149 18.1966 20.3037 18.1966 20.397C18.1966 20.4903 18.2151 20.5792 18.2486 20.66C18.2833 20.7438 18.3344 20.8195 18.3979 20.883C18.4614 20.9465 18.537 20.9976 18.6208 21.0324C18.7007 21.0655 18.7885 21.0839 18.8806 21.0843L18.8806 21.0829L18.9065 21.084C18.9915 21.0812 19.0724 21.0631 19.1467 21.0324C19.2305 20.9976 19.3061 20.9465 19.3696 20.883C19.4294 20.8232 19.4782 20.7525 19.5127 20.6742C19.5412 20.6096 19.5601 20.5399 19.5675 20.4669L18.8139 20.4669L18.8139 19.7131ZM19.7083 21.9812C19.7009 22.0674 19.6803 22.15 19.6485 22.2268C19.6065 22.3283 19.5451 22.4194 19.4691 22.4955C19.3972 22.5674 19.3118 22.6262 19.217 22.6679C19.3115 22.7096 19.3966 22.7683 19.4684 22.8401C19.5402 22.9119 19.599 22.9973 19.6407 23.092C19.6824 22.9973 19.7412 22.9119 19.813 22.8401C19.8891 22.764 19.9802 22.7026 20.0816 22.6606C20.1586 22.6286 20.2414 22.608 20.3278 22.6008L20.3278 21.9812L19.7083 21.9812ZM18.8954 22.7377C18.8917 22.7377 18.8881 22.7377 18.8844 22.7377C18.8806 22.7377 18.8767 22.7377 18.8728 22.7376C18.7835 22.739 18.6985 22.7574 18.6209 22.7895C18.537 22.8243 18.4614 22.8753 18.3979 22.9388C18.3344 23.0024 18.2833 23.078 18.2486 23.1619C18.2151 23.2427 18.1966 23.3315 18.1966 23.4249C18.1966 23.5182 18.2151 23.607 18.2486 23.6878C18.2833 23.7717 18.3344 23.8474 18.3979 23.9109C18.4577 23.9707 18.5283 24.0195 18.6066 24.0541C18.6712 24.0826 18.7409 24.1014 18.8139 24.1088L18.8139 23.355L19.5675 23.355C19.5601 23.282 19.5412 23.2123 19.5127 23.1477C19.4782 23.0694 19.4294 22.9987 19.3696 22.9388C19.3061 22.8753 19.2305 22.8242 19.1466 22.7895C19.0692 22.7574 18.9844 22.7391 18.8954 22.7377ZM19.1616 21.2815C19.097 21.253 19.0273 21.2341 18.9543 21.2268L18.9543 21.9805L18.2007 21.9805C18.2081 22.0536 18.2269 22.1233 18.2554 22.1879C18.29 22.2662 18.3388 22.3369 18.3986 22.3967C18.4621 22.4602 18.5377 22.5113 18.6215 22.546C18.6989 22.5781 18.7837 22.5964 18.8727 22.5979C18.8763 22.5978 18.88 22.5978 18.8837 22.5978C18.8877 22.5978 18.8916 22.5978 18.8955 22.5979C18.9848 22.5965 19.0697 22.5782 19.1473 22.546C19.2312 22.5113 19.3068 22.4602 19.3703 22.3967C19.4338 22.3332 19.4849 22.2575 19.5196 22.1736C19.5464 22.109 19.5635 22.0393 19.5693 21.9662L19.5703 21.9429L19.5708 21.9272L19.5708 21.8955L19.5703 21.8798L19.5692 21.8537C19.5633 21.7811 19.5462 21.7119 19.5196 21.6477C19.4849 21.5638 19.4338 21.4882 19.3703 21.4247C19.3105 21.3649 19.2399 21.316 19.1616 21.2815ZM20.4223 22.738L20.3939 22.7391L20.3939 22.7376C20.3019 22.7381 20.2145 22.7565 20.1348 22.7895C20.0509 22.8243 19.9753 22.8753 19.9118 22.9388C19.852 22.9987 19.8032 23.0694 19.7687 23.1477C19.7402 23.2123 19.7213 23.282 19.714 23.355L20.4675 23.355L20.4675 24.1088C20.5405 24.1014 20.6102 24.0826 20.6748 24.054C20.7531 24.0195 20.8238 23.9707 20.8835 23.9109C20.947 23.8474 20.9981 23.7717 21.0328 23.6878C21.0663 23.607 21.0848 23.5182 21.0848 23.4249C21.0847 23.3317 21.0663 23.2426 21.0328 23.1619C20.9981 23.078 20.947 23.0024 20.8835 22.9388C20.8201 22.8753 20.7444 22.8243 20.6606 22.7895C20.5869 22.759 20.5066 22.7409 20.4223 22.738ZM20.4675 22.5953C20.5405 22.5879 20.6102 22.569 20.6748 22.5406C20.7531 22.506 20.8238 22.4572 20.8835 22.3974C20.947 22.3339 20.9981 22.2582 21.0328 22.1744C21.0663 22.0935 21.0848 22.0047 21.0848 21.9114C21.0847 21.8183 21.0662 21.729 21.0328 21.6484C20.9981 21.5645 20.947 21.4889 20.8835 21.4254C20.8201 21.3619 20.7444 21.3108 20.6606 21.276C20.5798 21.2425 20.491 21.224 20.3977 21.224C20.3044 21.224 20.2156 21.2425 20.1348 21.276C20.0509 21.3107 19.9753 21.3618 19.9118 21.4254C19.852 21.4852 19.8032 21.5559 19.7687 21.6341C19.7402 21.6988 19.7213 21.7685 19.714 21.8415L20.4675 21.8415L20.4675 22.5953ZM19.5687 23.4947L18.9536 23.4947L18.9536 24.1138C19.04 24.1211 19.1228 24.1417 19.1998 24.1736C19.3012 24.2157 19.3923 24.2771 19.4684 24.3532C19.54 24.4248 19.5986 24.5098 19.6403 24.6041C19.682 24.5097 19.7406 24.4245 19.8123 24.3528C19.8844 24.2807 19.97 24.2218 20.0651 24.18C20.1466 24.1443 20.235 24.1213 20.3278 24.1136L20.3278 23.4947L19.7127 23.4947L19.5687 23.4947ZM18.8876 24.2506L18.8876 24.2527L18.8539 24.2513C18.7715 24.2548 18.693 24.2727 18.6209 24.3026C18.537 24.3373 18.4614 24.3884 18.3979 24.4519C18.3344 24.5155 18.2833 24.5911 18.2486 24.675C18.2151 24.7558 18.1966 24.8446 18.1966 24.938C18.1966 25.0313 18.2151 25.1201 18.2486 25.2009C18.2833 25.2848 18.3344 25.3605 18.3979 25.424C18.4614 25.4875 18.537 25.5386 18.6209 25.5733C18.7016 25.6068 18.7904 25.6253 18.8837 25.6253C18.977 25.6253 19.0658 25.6068 19.1466 25.5733C19.2305 25.5386 19.3061 25.4875 19.3696 25.424C19.4331 25.3605 19.4842 25.2848 19.5189 25.2009C19.5496 25.1267 19.5678 25.0457 19.5705 24.9607C19.5703 24.9531 19.5702 24.9453 19.5702 24.9376C19.5702 24.93 19.5703 24.9224 19.5705 24.9149C19.5677 24.83 19.5496 24.7491 19.5189 24.675C19.4842 24.5911 19.4331 24.5155 19.3696 24.4519C19.3061 24.3884 19.2305 24.3373 19.1466 24.3026C19.067 24.2696 18.9795 24.2512 18.8876 24.2506ZM20.3278 25.7618C20.2411 25.7546 20.1581 25.7339 20.0809 25.7019C19.9795 25.6599 19.8884 25.5985 19.8123 25.5224C19.7407 25.4508 19.6821 25.3658 19.6404 25.2714C19.5988 25.3659 19.5401 25.451 19.4684 25.5228C19.3965 25.5947 19.3112 25.6535 19.2165 25.6951C19.3112 25.7368 19.3965 25.7956 19.4684 25.8675C19.5405 25.9396 19.5994 26.0253 19.6411 26.1204C19.6767 26.2014 19.6996 26.2893 19.7074 26.3816L20.3278 26.3816L20.3278 25.7618ZM20.3271 24.2537C20.2541 24.2611 20.1844 24.2799 20.1198 24.3085C20.0416 24.343 19.9709 24.3918 19.9111 24.4516C19.8476 24.5151 19.7965 24.5908 19.7618 24.6746C19.7311 24.7489 19.713 24.8298 19.7102 24.9148C19.7104 24.9225 19.7106 24.9302 19.7106 24.938C19.7106 24.9456 19.7105 24.9532 19.7102 24.9607C19.713 25.0456 19.7311 25.1265 19.7618 25.2006C19.7965 25.2845 19.8476 25.3601 19.9111 25.4236C19.9746 25.4872 20.0502 25.5383 20.1341 25.573C20.214 25.6061 20.3017 25.6245 20.3939 25.6249L20.4173 25.6246C20.5031 25.6222 20.5849 25.604 20.6599 25.573C20.7439 25.5382 20.8195 25.4871 20.8828 25.4238C20.9426 25.364 20.9914 25.2931 21.026 25.2149C21.0544 25.1503 21.0733 25.0805 21.0807 25.0075L20.3271 25.0075L20.3271 24.2537ZM20.0649 27.2086C19.9702 27.1669 19.8849 27.1082 19.813 27.0363C19.7409 26.9642 19.682 26.8785 19.6403 26.7834C19.6048 26.7024 19.5818 26.6145 19.574 26.5222L18.9536 26.5222L18.9536 27.1417C19.04 27.149 19.1228 27.1696 19.1998 27.2015C19.3012 27.2435 19.3923 27.3049 19.4684 27.381C19.5402 27.4529 19.599 27.5382 19.6407 27.633C19.6824 27.5382 19.7412 27.4529 19.813 27.381C19.8849 27.3091 19.9702 27.2504 20.0649 27.2086ZM20.6748 25.8223C20.6102 25.7938 20.5405 25.7749 20.4675 25.7675L20.4675 26.5213L19.714 26.5213C19.7213 26.5943 19.7402 26.6641 19.7687 26.7287C19.8032 26.807 19.852 26.8777 19.9118 26.9375C19.9753 27.001 20.0509 27.0521 20.1348 27.0868C20.2156 27.1203 20.3044 27.1388 20.3977 27.1388C20.491 27.1388 20.5798 27.1203 20.6606 27.0868C20.7444 27.0521 20.8201 27.001 20.8835 26.9375C20.947 26.874 20.9981 26.7983 21.0328 26.7144C21.0663 26.6336 21.0848 26.5448 21.0848 26.4515C21.0848 26.3581 21.0663 26.2693 21.0328 26.1885C20.9981 26.1046 20.947 26.029 20.8835 25.9654C20.8238 25.9056 20.7531 25.8568 20.6748 25.8223ZM18.8876 27.2785L18.8876 27.2801L18.8591 27.2789C18.7748 27.2819 18.6945 27.3 18.6209 27.3305C18.537 27.3652 18.4614 27.4163 18.3979 27.4798C18.3344 27.5433 18.2833 27.619 18.2486 27.7029C18.2151 27.7837 18.1966 27.8725 18.1966 27.9658C18.1966 28.0592 18.2151 28.148 18.2486 28.2288C18.2833 28.3127 18.3344 28.3883 18.3979 28.4518C18.4577 28.5117 18.5283 28.5605 18.6066 28.595C18.6712 28.6235 18.7409 28.6424 18.8139 28.6498L18.8139 27.896L19.5675 27.896C19.5601 27.823 19.5412 27.7532 19.5127 27.6886C19.4782 27.6103 19.4294 27.5396 19.3696 27.4798C19.3061 27.4163 19.2305 27.3652 19.1466 27.3305C19.0669 27.2974 18.9795 27.279 18.8876 27.2785ZM18.6066 27.0815C18.6712 27.11 18.7409 27.1289 18.8139 27.1362L18.8139 26.3825L19.5675 26.3825C19.5601 26.3095 19.5412 26.2397 19.5127 26.1751C19.4782 26.0968 19.4294 26.0261 19.3696 25.9663C19.3061 25.9028 19.2305 25.8517 19.1467 25.817C19.0658 25.7835 18.977 25.765 18.8837 25.765C18.7904 25.765 18.7016 25.7835 18.6208 25.817C18.537 25.8517 18.4614 25.9028 18.3979 25.9663C18.3344 26.0298 18.2833 26.1055 18.2486 26.1894C18.2151 26.2702 18.1966 26.359 18.1966 26.4523C18.1966 26.5457 18.2151 26.6345 18.2486 26.7153C18.2833 26.7992 18.3344 26.8748 18.3979 26.9384C18.4576 26.9981 18.5282 27.0469 18.6066 27.0815ZM19.5687 28.0357L18.9536 28.0357L18.9536 28.651L18.9536 28.7935L18.9536 29.4089L19.5687 29.4089L19.7127 29.4089L20.3278 29.4089L20.3278 28.7935L20.3278 28.651L20.3278 28.0357L19.7127 28.0357L19.5687 28.0357ZM20.4675 28.6498C20.5405 28.6424 20.6102 28.6235 20.6748 28.595C20.7531 28.5605 20.8238 28.5117 20.8835 28.4518C20.947 28.3883 20.9981 28.3127 21.0328 28.2288C21.0663 28.148 21.0848 28.0592 21.0848 27.9658C21.0848 27.8725 21.0663 27.7837 21.0328 27.7029C20.9981 27.619 20.947 27.5433 20.8835 27.4798C20.82 27.4163 20.7444 27.3652 20.6606 27.3305C20.5798 27.297 20.491 27.2785 20.3977 27.2785C20.3044 27.2785 20.2156 27.297 20.1348 27.3305C20.0509 27.3652 19.9753 27.4163 19.9118 27.4798C19.852 27.5396 19.8032 27.6103 19.7687 27.6886C19.7402 27.7532 19.7213 27.8229 19.714 27.896L20.4675 27.896L20.4675 28.6498ZM20.0649 30.2359C19.9702 30.1943 19.8849 30.1355 19.813 30.0636C19.7412 29.9917 19.6824 29.9064 19.6407 29.8116C19.599 29.9064 19.5402 29.9917 19.4684 30.0636C19.3965 30.1355 19.3112 30.1943 19.2165 30.2359C19.3112 30.2777 19.3965 30.3365 19.4684 30.4083C19.5403 30.4802 19.599 30.5655 19.6407 30.6603C19.6824 30.5655 19.7412 30.4802 19.813 30.4083C19.8849 30.3365 19.9702 30.2777 20.0649 30.2359ZM20.6748 28.8496C20.6102 28.8211 20.5405 28.8022 20.4675 28.7949L20.4675 29.5487L19.714 29.5487C19.7213 29.6217 19.7402 29.6914 19.7687 29.756C19.8032 29.8343 19.852 29.905 19.9118 29.9648C19.9753 30.0283 20.0509 30.0794 20.1348 30.1141C20.2156 30.1476 20.3044 30.1661 20.3977 30.1661C20.491 30.1661 20.5798 30.1476 20.6606 30.1141C20.7444 30.0794 20.8201 30.0283 20.8835 29.9648C20.947 29.9013 20.9981 29.8256 21.0328 29.7418C21.0663 29.6609 21.0848 29.5721 21.0848 29.4788C21.0848 29.3854 21.0663 29.2966 21.0328 29.2158C20.9981 29.132 20.947 29.0563 20.8835 28.9928C20.8238 28.933 20.7531 28.8841 20.6748 28.8496ZM18.8139 28.7949C18.7409 28.8022 18.6712 28.8211 18.6066 28.8496C18.5283 28.8841 18.4577 28.933 18.3979 28.9928C18.3344 29.0563 18.2833 29.132 18.2486 29.2158C18.2151 29.2966 18.1966 29.3854 18.1966 29.4788C18.1966 29.5721 18.2151 29.6609 18.2486 29.7417C18.2833 29.8256 18.3344 29.9013 18.3979 29.9648C18.4614 30.0283 18.537 30.0794 18.6208 30.1141C18.7016 30.1476 18.7904 30.1661 18.8837 30.1661C18.977 30.1661 19.0658 30.1476 19.1467 30.1141C19.2305 30.0794 19.3061 30.0283 19.3696 29.9648C19.4294 29.905 19.4782 29.8343 19.5127 29.756C19.5412 29.6914 19.5601 29.6217 19.5675 29.5487L18.8139 29.5487L18.8139 28.7949ZM19.5738 32.4362C19.5811 32.3498 19.6017 32.267 19.6336 32.1899C19.6756 32.0885 19.737 31.9974 19.813 31.9213C19.8891 31.8452 19.9802 31.7838 20.0816 31.7418C20.1586 31.7099 20.2414 31.6892 20.3278 31.682L20.3278 31.063L19.7076 31.063C19.7004 31.1495 19.6797 31.2323 19.6479 31.3093C19.6058 31.4107 19.5444 31.5019 19.4684 31.5779C19.3923 31.654 19.3012 31.7155 19.1998 31.7575C19.1228 31.7894 19.04 31.81 18.9536 31.8173L18.9536 32.4362L19.5738 32.4362ZM19.9118 32.0201C19.8483 32.0836 19.7972 32.1592 19.7625 32.2431C19.7298 32.3222 19.7114 32.4089 19.7106 32.5L19.7106 32.5122C19.7114 32.6033 19.7297 32.69 19.7625 32.7691C19.7972 32.8529 19.8483 32.9286 19.9118 32.9921C19.9753 33.0556 20.0509 33.1067 20.1348 33.1415C20.2156 33.1749 20.3044 33.1934 20.3977 33.1934C20.491 33.1934 20.5798 33.1749 20.6606 33.1415C20.7444 33.1067 20.82 33.0556 20.8835 32.9921C20.947 32.9286 20.9981 32.8529 21.0328 32.7691C21.0663 32.6882 21.0848 32.5994 21.0848 32.5061C21.0848 32.4128 21.0663 32.3239 21.0328 32.2431C20.9981 32.1592 20.947 32.0836 20.8835 32.0201C20.8201 31.9565 20.7444 31.9055 20.6606 31.8707C20.5889 31.841 20.5109 31.8231 20.4291 31.8195L20.3939 31.8209L20.3939 31.8188C20.3019 31.8193 20.2145 31.8377 20.1348 31.8707C20.0509 31.9055 19.9753 31.9565 19.9118 32.0201ZM18.3979 30.5071C18.3344 30.5706 18.2833 30.6463 18.2486 30.7302C18.2151 30.811 18.1966 30.8998 18.1966 30.9932C18.1966 31.0865 18.2151 31.1753 18.2486 31.2561C18.2833 31.34 18.3344 31.4157 18.3979 31.4792C18.4614 31.5427 18.537 31.5938 18.6209 31.6285C18.6925 31.6582 18.7705 31.6761 18.8523 31.6798L18.8876 31.6783L18.8876 31.6805C18.9793 31.6799 19.0671 31.6615 19.1466 31.6285C19.2305 31.5938 19.3061 31.5427 19.3696 31.4792C19.4331 31.4157 19.4842 31.34 19.5189 31.2561C19.5517 31.1771 19.5701 31.0904 19.5708 30.9993L19.5708 30.987C19.5701 30.8959 19.5517 30.8092 19.5189 30.7302C19.4842 30.6463 19.4331 30.5706 19.3696 30.5071C19.3061 30.4436 19.2305 30.3925 19.1466 30.3578C19.0658 30.3243 18.977 30.3058 18.8837 30.3058C18.7904 30.3058 18.7016 30.3243 18.6209 30.3578C18.537 30.3925 18.4614 30.4436 18.3979 30.5071ZM20.4675 31.6771C20.5405 31.6697 20.6102 31.6508 20.6748 31.6223C20.7531 31.5878 20.8238 31.539 20.8835 31.4792C20.947 31.4156 20.9981 31.34 21.0328 31.2561C21.0663 31.1753 21.0848 31.0865 21.0848 30.9932C21.0848 30.8998 21.0663 30.811 21.0328 30.7302C20.9981 30.6463 20.947 30.5706 20.8835 30.5071C20.8201 30.4436 20.7444 30.3925 20.6606 30.3578C20.5798 30.3243 20.491 30.3058 20.3977 30.3058C20.3044 30.3058 20.2156 30.3243 20.1348 30.3578C20.0509 30.3925 19.9753 30.4436 19.9118 30.5071C19.852 30.5669 19.8032 30.6376 19.7687 30.7159C19.7402 30.7805 19.7213 30.8503 19.714 30.9233L20.4675 30.9233L20.4675 31.6771ZM18.8139 31.8222C18.7409 31.8295 18.6712 31.8484 18.6066 31.8769C18.5283 31.9114 18.4577 31.9603 18.3979 32.0201C18.3344 32.0836 18.2833 32.1592 18.2486 32.2431C18.2151 32.3239 18.1966 32.4128 18.1966 32.5061C18.1966 32.5994 18.2151 32.6882 18.2486 32.7691C18.2833 32.8529 18.3344 32.9286 18.3979 32.9921C18.4614 33.0556 18.537 33.1067 18.6209 33.1415C18.7017 33.1749 18.7904 33.1934 18.8837 33.1934C18.977 33.1934 19.0658 33.1749 19.1466 33.1415C19.2305 33.1067 19.3061 33.0556 19.3696 32.9921C19.4294 32.9323 19.4782 32.8616 19.5127 32.7833C19.5412 32.7187 19.5601 32.649 19.5675 32.5759L18.8139 32.5759L18.8139 31.8222Z" fill="#D7F200" stroke="#D4F000" stroke-width="0.2"/>
</svg>
