<svg width="1920" height="218" viewBox="0 0 1920 218" fill="none" xmlns="http://www.w3.org/2000/svg">
<g clip-path="url(#clip0_417_2150)">
<rect width="1990.75" height="46.004" transform="matrix(0.996272 -0.0862706 0.0880499 0.996116 -36 172)" fill="#E3FF00"/>
<path d="M-19.1401 199.648L-22.8861 199.973L-24.0659 186.625L-16.2751 185.95C-12.7483 185.645 -10.7649 186.959 -10.5342 189.568C-10.3476 191.68 -11.2927 193.027 -13.8149 193.566L-13.7973 193.766C-12.3908 194.005 -11.8943 194.625 -11.3064 195.597L-9.35671 198.801L-13.6805 199.176L-15.5634 196.046C-16.1296 195.092 -16.5528 194.847 -18.0073 194.973L-19.5416 195.106L-19.1401 199.648ZM-20.0224 189.667L-19.7881 192.317L-15.7831 191.97C-14.6872 191.875 -14.3063 191.642 -14.4067 190.506C-14.5 189.45 -14.9214 189.226 -16.0173 189.32L-20.0224 189.667ZM4.59078 197.593L-7.26485 198.62L-8.44472 185.272L3.41092 184.245L3.70852 187.612L-4.40113 188.315L-4.26025 189.908L3.55052 189.232L3.84637 192.579L-3.9644 193.255L-3.81648 194.929L4.29318 194.227L4.59078 197.593ZM13.6433 197.01C9.55862 197.364 6.93939 196.125 6.64002 192.739L6.62945 192.619L10.3754 192.295L10.4124 192.713C10.4917 193.61 10.8316 193.821 13.3422 193.604C15.6137 193.407 15.837 193.207 15.7841 192.609C15.7419 192.131 15.4652 191.954 14.357 191.91L10.1233 191.714C7.60273 191.591 6.22944 190.365 6.03926 188.214C5.85083 186.082 7.30741 183.707 12.1294 183.29C16.3735 182.922 18.5696 184.599 18.8338 187.587L18.8444 187.707L15.0984 188.031L15.072 187.732C14.9874 186.776 14.5408 186.494 12.0302 186.711C10.1174 186.877 9.72184 187.172 9.77291 187.75C9.80989 188.168 10.0666 188.347 10.7927 188.384L15.0317 188.639C18.3417 188.835 19.3663 190.432 19.5178 192.145C19.7203 194.436 18.1465 196.62 13.6433 197.01ZM30.4347 195.356L26.6887 195.68L25.8065 185.699L21.0841 186.108L20.7865 182.741L33.9572 181.6L34.2548 184.967L29.5524 185.374L30.4347 195.356ZM41.2822 194.416L37.5362 194.741L36.3564 181.393L44.1472 180.718C47.674 180.413 49.6574 181.726 49.8881 184.336C50.0748 186.448 49.1297 187.795 46.6074 188.334L46.625 188.533C48.0315 188.773 48.528 189.392 49.116 190.365L51.0656 193.569L46.7418 193.943L44.859 190.814C44.2927 189.86 43.8695 189.615 42.415 189.741L40.8807 189.874L41.2822 194.416ZM40.4 184.435L40.6342 187.085L44.6392 186.738C45.7351 186.643 46.116 186.409 46.0156 185.274C45.9223 184.218 45.5009 183.993 44.405 184.088L40.4 184.435ZM56.9035 193.064L53.1575 193.388L51.9776 180.04L55.7236 179.716L56.9035 193.064ZM66.7851 192.409C62.1425 192.811 59.1732 190.338 58.8051 186.174C58.4371 182.01 60.9274 179.064 65.57 178.662C70.0532 178.274 72.9316 180.173 73.2468 183.739L73.2767 184.077L69.0924 184.44L69.0625 184.101C68.9286 182.587 68.1585 182.051 65.9468 182.243C63.2369 182.478 62.556 183.179 62.7902 185.829C63.0244 188.478 63.818 189.052 66.5279 188.817C68.7396 188.626 69.4041 187.966 69.2703 186.452L69.2403 186.113L73.4247 185.751L73.4546 186.09C73.7698 189.656 71.2683 192.02 66.7851 192.409ZM84.5914 190.666L80.8454 190.99L79.9632 181.009L75.2408 181.418L74.9432 178.051L88.1139 176.911L88.4115 180.278L83.7091 180.685L84.5914 190.666ZM103.549 189.024L91.693 190.051L90.5131 176.703L102.369 175.676L102.666 179.043L94.5567 179.746L94.6976 181.339L102.508 180.663L102.804 184.01L94.9934 184.686L95.1413 186.36L103.251 185.657L103.549 189.024ZM113.082 188.199L106.327 188.784L105.147 175.436L111.902 174.851C116.305 174.47 119.311 176.678 119.685 180.902C120.058 185.126 117.485 187.818 113.082 188.199ZM112.199 178.218L109.191 178.478L109.775 185.093L112.784 184.832C115.155 184.627 115.946 184.257 115.68 181.249C115.414 178.241 114.571 178.012 112.199 178.218ZM144.106 185.512L131.215 186.629L130.917 183.262L137.469 176.291L137.446 176.032L130.452 176.637L130.154 173.27L142.807 172.175L143.105 175.542L136.234 182.54L136.257 182.799L143.809 182.145L144.106 185.512ZM153.913 184.864C149.27 185.266 146.281 182.795 145.913 178.631C145.545 174.467 148.055 171.52 152.698 171.118C157.46 170.705 160.409 173.18 160.777 177.344C161.145 181.507 158.675 184.452 153.913 184.864ZM153.596 181.278C156.306 181.043 157.026 180.338 156.792 177.689C156.558 175.039 155.724 174.469 153.015 174.704C150.305 174.938 149.664 175.636 149.898 178.286C150.132 180.935 150.886 181.513 153.596 181.278ZM167.606 183.477L163.86 183.802L162.681 170.454L166.666 170.109L170.814 174.788L173.038 177.687L173.297 177.665L172.86 174.772L172.404 169.612L176.15 169.287L177.33 182.635L173.345 182.98L168.945 178.182L167.019 175.699L166.76 175.721L167.145 178.258L167.606 183.477ZM191.882 181.375L180.026 182.402L178.847 169.054L190.702 168.027L191 171.394L182.89 172.096L183.031 173.69L190.842 173.014L191.138 176.361L183.327 177.037L183.475 178.711L191.584 178.008L191.882 181.375Z" fill="black"/>
<path d="M255.128 165.072C255.119 164.86 255.459 164.745 255.579 164.921C256.143 165.742 257.084 166.939 258.075 167.435C259.067 167.929 260.59 167.963 261.584 167.92C261.796 167.911 261.909 168.251 261.734 168.371C260.913 168.933 259.72 169.872 259.225 170.862C258.731 171.852 258.701 173.375 258.746 174.369C258.755 174.58 258.413 174.693 258.295 174.518C257.732 173.697 256.79 172.502 255.797 172.006C254.806 171.51 253.283 171.477 252.291 171.521C252.079 171.529 251.963 171.187 252.139 171.07C252.959 170.507 254.154 169.569 254.649 168.576C255.142 167.586 255.173 166.064 255.128 165.072Z" fill="black"/>
<path d="M327.562 169.626L323.816 169.951L322.637 156.603L330.427 155.928C333.954 155.623 335.938 156.936 336.168 159.546C336.355 161.658 335.41 163.004 332.888 163.544L332.905 163.743C334.312 163.983 334.808 164.602 335.396 165.575L337.346 168.779L333.022 169.153L331.139 166.024C330.573 165.069 330.15 164.825 328.695 164.951L327.161 165.084L327.562 169.626ZM326.68 159.645L326.914 162.295L330.919 161.948C332.015 161.853 332.396 161.619 332.296 160.484C332.203 159.428 331.781 159.203 330.685 159.298L326.68 159.645ZM351.293 167.571L339.438 168.598L338.258 155.25L350.113 154.223L350.411 157.59L342.301 158.292L342.442 159.886L350.253 159.21L350.549 162.557L342.738 163.233L342.886 164.907L350.996 164.204L351.293 167.571ZM360.346 166.988C356.261 167.342 353.642 166.103 353.343 162.716L353.332 162.597L357.078 162.272L357.115 162.691C357.194 163.587 357.534 163.799 360.045 163.581C362.316 163.385 362.54 163.185 362.487 162.587C362.444 162.109 362.168 161.932 361.06 161.888L356.826 161.692C354.305 161.569 352.932 160.343 352.742 158.191C352.553 156.06 354.01 153.685 358.832 153.268C363.076 152.9 365.272 154.577 365.536 157.565L365.547 157.685L361.801 158.009L361.775 157.71C361.69 156.754 361.243 156.471 358.733 156.689C356.82 156.855 356.424 157.15 356.475 157.727C356.512 158.146 356.769 158.324 357.495 158.362L361.734 158.617C365.044 158.812 366.069 160.41 366.22 162.123C366.423 164.414 364.849 166.598 360.346 166.988ZM377.137 165.333L373.391 165.658L372.509 155.677L367.787 156.086L367.489 152.719L380.66 151.578L380.957 154.945L376.255 155.352L377.137 165.333ZM387.985 164.394L384.239 164.718L383.059 151.37L390.85 150.696C394.377 150.39 396.36 151.704 396.591 154.314C396.777 156.426 395.832 157.772 393.31 158.312L393.328 158.511C394.734 158.751 395.231 159.37 395.819 160.343L397.768 163.547L393.444 163.921L391.562 160.792C390.995 159.837 390.572 159.593 389.118 159.719L387.583 159.852L387.985 164.394ZM387.103 154.413L387.337 157.063L391.342 156.716C392.438 156.621 392.819 156.387 392.718 155.252C392.625 154.196 392.203 153.971 391.108 154.066L387.103 154.413ZM403.606 163.041L399.86 163.366L398.68 150.018L402.426 149.693L403.606 163.041ZM413.488 162.386C408.845 162.788 405.876 160.315 405.508 156.152C405.14 151.988 407.63 149.042 412.273 148.64C416.756 148.252 419.634 150.151 419.949 153.717L419.979 154.055L415.795 154.418L415.765 154.079C415.631 152.565 414.861 152.029 412.649 152.221C409.939 152.455 409.259 153.157 409.493 155.806C409.727 158.456 410.521 159.03 413.23 158.795C415.442 158.604 416.107 157.944 415.973 156.43L415.943 156.091L420.127 155.729L420.157 156.067C420.472 159.634 417.971 161.998 413.488 162.386ZM431.294 160.644L427.548 160.968L426.666 150.987L421.943 151.396L421.646 148.029L434.817 146.889L435.114 150.255L430.412 150.663L431.294 160.644ZM450.251 159.002L438.396 160.029L437.216 146.681L449.071 145.654L449.369 149.021L441.259 149.723L441.4 151.317L449.211 150.641L449.507 153.988L441.696 154.664L441.844 156.338L449.954 155.635L450.251 159.002ZM459.784 158.177L453.03 158.762L451.85 145.414L458.604 144.829C463.008 144.447 466.014 146.656 466.387 150.88C466.761 155.103 464.188 157.795 459.784 158.177ZM458.902 148.196L455.893 148.456L456.478 155.07L459.487 154.81C461.858 154.604 462.648 154.235 462.382 151.227C462.116 148.218 461.273 147.99 458.902 148.196ZM490.809 155.49L477.917 156.606L477.62 153.24L484.171 146.268L484.148 146.009L477.154 146.615L476.857 143.248L489.509 142.153L489.807 145.519L482.937 152.518L482.96 152.777L490.511 152.123L490.809 155.49ZM500.615 154.842C495.973 155.244 492.983 152.772 492.615 148.609C492.247 144.445 494.757 141.497 499.4 141.095C504.162 140.683 507.112 143.158 507.48 147.321C507.848 151.485 505.377 154.429 500.615 154.842ZM500.298 151.256C503.008 151.021 503.729 150.316 503.495 147.667C503.26 145.017 502.427 144.447 499.717 144.681C497.007 144.916 496.366 145.614 496.6 148.264C496.835 150.913 497.588 151.49 500.298 151.256ZM514.309 153.455L510.563 153.78L509.383 140.432L513.368 140.086L517.516 144.766L519.74 147.665L519.999 147.643L519.563 144.749L519.107 139.59L522.853 139.265L524.033 152.613L520.047 152.958L515.648 148.16L513.722 145.677L513.463 145.699L513.848 148.236L514.309 153.455ZM538.585 151.353L526.729 152.38L525.549 139.032L537.405 138.005L537.702 141.372L529.593 142.074L529.734 143.668L537.544 142.992L537.84 146.339L530.029 147.015L530.177 148.688L538.287 147.986L538.585 151.353Z" fill="black"/>
<path d="M601.831 135.05C601.822 134.838 602.162 134.723 602.281 134.898C602.845 135.72 603.786 136.916 604.778 137.413C605.769 137.907 607.292 137.941 608.286 137.898C608.498 137.889 608.612 138.229 608.437 138.349C607.616 138.911 606.423 139.85 605.928 140.84C605.433 141.83 605.404 143.353 605.449 144.346C605.458 144.558 605.116 144.671 604.998 144.496C604.434 143.674 603.493 142.48 602.5 141.984C601.508 141.487 599.985 141.455 598.993 141.498C598.781 141.507 598.666 141.165 598.841 141.047C599.662 140.485 600.857 139.546 601.351 138.554C601.844 137.564 601.876 136.042 601.831 135.05Z" fill="black"/>
<path d="M674.265 139.604L670.519 139.928L669.339 126.58L677.13 125.906C680.657 125.6 682.64 126.914 682.871 129.524C683.058 131.636 682.112 132.982 679.59 133.522L679.608 133.721C681.014 133.961 681.511 134.58 682.099 135.553L684.048 138.757L679.725 139.131L677.842 136.002C677.275 135.047 676.852 134.803 675.398 134.929L673.864 135.062L674.265 139.604ZM673.383 129.623L673.617 132.273L677.622 131.926C678.718 131.831 679.099 131.597 678.998 130.462C678.905 129.406 678.484 129.181 677.388 129.276L673.383 129.623ZM697.996 137.549L686.14 138.576L684.96 125.228L696.816 124.201L697.114 127.568L689.004 128.27L689.145 129.864L696.956 129.188L697.251 132.535L689.441 133.211L689.589 134.884L697.698 134.182L697.996 137.549ZM707.048 136.966C702.964 137.32 700.345 136.081 700.045 132.694L700.035 132.575L703.781 132.25L703.818 132.669C703.897 133.565 704.237 133.777 706.747 133.559C709.019 133.362 709.242 133.162 709.189 132.565C709.147 132.087 708.87 131.91 707.762 131.865L703.528 131.67C701.008 131.547 699.635 130.321 699.444 128.169C699.256 126.037 700.713 123.663 705.534 123.245C709.779 122.878 711.975 124.555 712.239 127.543L712.249 127.663L708.504 127.987L708.477 127.688C708.393 126.732 707.946 126.449 705.435 126.667C703.523 126.832 703.127 127.128 703.178 127.705C703.215 128.124 703.472 128.302 704.198 128.34L708.437 128.595C711.747 128.79 712.771 130.388 712.923 132.101C713.125 134.392 711.552 136.576 707.048 136.966ZM723.84 135.311L720.094 135.635L719.212 125.654L714.489 126.063L714.192 122.696L727.362 121.556L727.66 124.923L722.958 125.33L723.84 135.311ZM734.687 134.372L730.941 134.696L729.761 121.348L737.552 120.674C741.079 120.368 743.063 121.682 743.293 124.292C743.48 126.404 742.535 127.75 740.012 128.29L740.03 128.489C741.437 128.728 741.933 129.348 742.521 130.321L744.471 133.525L740.147 133.899L738.264 130.77C737.698 129.815 737.275 129.571 735.82 129.697L734.286 129.829L734.687 134.372ZM733.805 124.391L734.039 127.04L738.044 126.694C739.14 126.599 739.521 126.365 739.421 125.229C739.327 124.173 738.906 123.949 737.81 124.044L733.805 124.391ZM750.309 133.019L746.563 133.343L745.383 119.996L749.129 119.671L750.309 133.019ZM760.19 132.364C755.548 132.766 752.578 130.293 752.21 126.129C751.842 121.966 754.332 119.02 758.975 118.618C763.458 118.23 766.337 120.128 766.652 123.694L766.682 124.033L762.498 124.395L762.468 124.057C762.334 122.543 761.564 122.007 759.352 122.199C756.642 122.433 755.961 123.135 756.195 125.784C756.43 128.434 757.223 129.008 759.933 128.773C762.145 128.581 762.809 127.922 762.675 126.408L762.645 126.069L766.83 125.707L766.86 126.045C767.175 129.611 764.673 131.976 760.19 132.364ZM777.997 130.621L774.251 130.946L773.368 120.965L768.646 121.374L768.348 118.007L781.519 116.866L781.817 120.233L777.114 120.64L777.997 130.621ZM796.954 128.98L785.098 130.007L783.918 116.659L795.774 115.632L796.071 118.999L787.962 119.701L788.103 121.295L795.913 120.619L796.209 123.965L788.399 124.642L788.546 126.315L796.656 125.613L796.954 128.98ZM806.487 128.154L799.732 128.739L798.552 115.391L805.307 114.806C809.71 114.425 812.717 116.634 813.09 120.858C813.463 125.081 810.89 127.773 806.487 128.154ZM805.605 118.173L802.596 118.434L803.18 125.048L806.189 124.788C808.56 124.582 809.351 124.213 809.085 121.204C808.819 118.196 807.976 117.968 805.605 118.173ZM837.511 125.468L824.62 126.584L824.322 123.217L830.874 116.246L830.851 115.987L823.857 116.593L823.559 113.226L836.212 112.13L836.51 115.497L829.639 122.496L829.662 122.755L837.214 122.101L837.511 125.468ZM847.318 124.819C842.675 125.221 839.686 122.75 839.318 118.586C838.95 114.423 841.46 111.475 846.103 111.073C850.865 110.661 853.814 113.135 854.182 117.299C854.55 121.463 852.08 124.407 847.318 124.819ZM847.001 121.233C849.711 120.999 850.431 120.294 850.197 117.644C849.963 114.995 849.13 114.424 846.42 114.659C843.71 114.894 843.069 115.592 843.303 118.241C843.537 120.891 844.291 121.468 847.001 121.233ZM861.011 123.433L857.266 123.757L856.086 110.409L860.071 110.064L864.219 114.744L866.443 117.643L866.702 117.62L866.265 114.727L865.809 109.567L869.555 109.243L870.735 122.591L866.75 122.936L862.35 118.138L860.424 115.655L860.165 115.677L860.55 118.213L861.011 123.433ZM885.287 121.331L873.432 122.357L872.252 109.009L884.107 107.983L884.405 111.35L876.295 112.052L876.436 113.646L884.247 112.969L884.543 116.316L876.732 116.993L876.88 118.666L884.99 117.964L885.287 121.331Z" fill="black"/>
<path d="M948.533 105.027C948.524 104.816 948.864 104.701 948.984 104.876C949.548 105.698 950.489 106.894 951.481 107.39C952.472 107.885 953.995 107.919 954.989 107.875C955.201 107.867 955.314 108.207 955.139 108.326C954.318 108.889 953.125 109.827 952.631 110.818C952.136 111.808 952.106 113.33 952.151 114.324C952.16 114.536 951.818 114.649 951.7 114.473C951.137 113.652 950.196 112.457 949.202 111.961C948.211 111.465 946.688 111.433 945.696 111.476C945.484 111.485 945.368 111.143 945.544 111.025C946.364 110.463 947.56 109.524 948.054 108.532C948.547 107.542 948.578 106.019 948.533 105.027Z" fill="black"/>
<path d="M1020.97 109.582L1017.22 109.906L1016.04 96.5584L1023.83 95.8838C1027.36 95.5784 1029.34 96.8922 1029.57 99.502C1029.76 101.614 1028.82 102.96 1026.29 103.5L1026.31 103.699C1027.72 103.939 1028.21 104.558 1028.8 105.531L1030.75 108.735L1026.43 109.109L1024.54 105.98C1023.98 105.025 1023.55 104.781 1022.1 104.907L1020.57 105.04L1020.97 109.582ZM1020.09 99.6009L1020.32 102.251L1024.32 101.904C1025.42 101.809 1025.8 101.575 1025.7 100.44C1025.61 99.3837 1025.19 99.1592 1024.09 99.2541L1020.09 99.6009ZM1044.7 107.527L1032.84 108.554L1031.66 95.2057L1043.52 94.1791L1043.82 97.546L1035.71 98.2482L1035.85 99.842L1043.66 99.1656L1043.95 102.513L1036.14 103.189L1036.29 104.862L1044.4 104.16L1044.7 107.527ZM1053.75 106.944C1049.67 107.298 1047.05 106.059 1046.75 102.672L1046.74 102.553L1050.48 102.228L1050.52 102.647C1050.6 103.543 1050.94 103.755 1053.45 103.537C1055.72 103.34 1055.94 103.14 1055.89 102.543C1055.85 102.065 1055.57 101.888 1054.46 101.843L1050.23 101.648C1047.71 101.525 1046.34 100.299 1046.15 98.1471C1045.96 96.0154 1047.42 93.6409 1052.24 93.2234C1056.48 92.8559 1058.68 94.5327 1058.94 97.521L1058.95 97.6405L1055.21 97.9649L1055.18 97.6661C1055.1 96.7098 1054.65 96.4273 1052.14 96.6447C1050.23 96.8103 1049.83 97.1055 1049.88 97.6833C1049.92 98.1017 1050.17 98.2802 1050.9 98.3177L1055.14 98.5729C1058.45 98.7681 1059.47 100.366 1059.63 102.079C1059.83 104.37 1058.25 106.554 1053.75 106.944ZM1070.54 105.289L1066.8 105.614L1065.91 95.6324L1061.19 96.0413L1060.89 92.6745L1074.06 91.534L1074.36 94.9008L1069.66 95.308L1070.54 105.289ZM1081.39 104.35L1077.64 104.674L1076.46 91.3262L1084.25 90.6516C1087.78 90.3462 1089.77 91.66 1090 94.2698C1090.18 96.3816 1089.24 97.7281 1086.72 98.2677L1086.73 98.467C1088.14 98.7065 1088.64 99.326 1089.22 100.299L1091.17 103.503L1086.85 103.877L1084.97 100.748C1084.4 99.7931 1083.98 99.5487 1082.52 99.6747L1080.99 99.8075L1081.39 104.35ZM1080.51 94.3687L1080.74 97.0184L1084.75 96.6716C1085.84 96.5767 1086.22 96.343 1086.12 95.2074C1086.03 94.1515 1085.61 93.927 1084.51 94.0219L1080.51 94.3687ZM1097.01 102.997L1093.27 103.321L1092.09 89.9735L1095.83 89.6492L1097.01 102.997ZM1106.89 102.342C1102.25 102.744 1099.28 100.271 1098.91 96.1074C1098.54 91.9436 1101.04 88.9978 1105.68 88.5958C1110.16 88.2076 1113.04 90.1063 1113.35 93.6724L1113.38 94.0111L1109.2 94.3734L1109.17 94.0347C1109.04 92.5206 1108.27 91.9851 1106.05 92.1766C1103.34 92.4113 1102.66 93.1126 1102.9 95.7623C1103.13 98.412 1103.93 98.9856 1106.64 98.751C1108.85 98.5595 1109.51 97.8997 1109.38 96.3856L1109.35 96.0469L1113.53 95.6846L1113.56 96.0232C1113.88 99.5893 1111.38 101.954 1106.89 102.342ZM1124.7 100.6L1120.95 100.924L1120.07 90.9428L1115.35 91.3517L1115.05 87.9849L1128.22 86.8444L1128.52 90.2112L1123.82 90.6184L1124.7 100.6ZM1143.66 98.9579L1131.8 99.9846L1130.62 86.6366L1142.48 85.61L1142.77 88.9769L1134.66 89.6791L1134.81 91.2729L1142.62 90.5965L1142.91 93.9435L1135.1 94.6198L1135.25 96.2933L1143.36 95.5911L1143.66 98.9579ZM1153.19 98.1324L1146.43 98.7174L1145.25 85.3694L1152.01 84.7845C1156.41 84.4032 1159.42 86.6121 1159.79 90.8356C1160.17 95.0591 1157.59 97.7511 1153.19 98.1324ZM1152.31 88.1514L1149.3 88.4119L1149.88 95.0261L1152.89 94.7656C1155.26 94.5603 1156.05 94.1907 1155.79 91.1824C1155.52 88.1741 1154.68 87.946 1152.31 88.1514ZM1184.21 95.4459L1171.32 96.5623L1171.02 93.1954L1177.58 86.2242L1177.55 85.9652L1170.56 86.5708L1170.26 83.2039L1182.91 82.1083L1183.21 85.4752L1176.34 92.474L1176.36 92.733L1183.92 92.079L1184.21 95.4459ZM1194.02 94.7975C1189.38 95.1995 1186.39 92.7282 1186.02 88.5644C1185.65 84.4007 1188.16 81.4531 1192.81 81.0511C1197.57 80.6387 1200.52 83.1135 1200.88 87.2773C1201.25 91.441 1198.78 94.3851 1194.02 94.7975ZM1193.7 91.2115C1196.41 90.9768 1197.13 90.272 1196.9 87.6224C1196.67 84.9727 1195.83 84.4025 1193.12 84.6371C1190.41 84.8718 1189.77 85.5697 1190.01 88.2193C1190.24 90.869 1190.99 91.4461 1193.7 91.2115ZM1207.71 93.411L1203.97 93.7353L1202.79 80.3874L1206.77 80.0423L1210.92 84.7219L1213.15 87.6208L1213.4 87.5984L1212.97 84.7053L1212.51 79.5454L1216.26 79.221L1217.44 92.569L1213.45 92.914L1209.05 88.1157L1207.13 85.6326L1206.87 85.6551L1207.25 88.1913L1207.71 93.411ZM1231.99 91.3089L1220.13 92.3355L1218.95 78.9875L1230.81 77.9609L1231.11 81.3278L1223 82.03L1223.14 83.6238L1230.95 82.9474L1231.25 86.2944L1223.43 86.9707L1223.58 88.6442L1231.69 87.942L1231.99 91.3089Z" fill="black"/>
<path d="M1295.24 75.0053C1295.23 74.7934 1295.57 74.6789 1295.69 74.8542C1296.25 75.6755 1297.19 76.8721 1298.18 77.3682C1299.17 77.8625 1300.7 77.8969 1301.69 77.8533C1301.9 77.8447 1302.02 78.1848 1301.84 78.3044C1301.02 78.8666 1299.83 79.8053 1299.33 80.7955C1298.84 81.7858 1298.81 83.3082 1298.85 84.3021C1298.86 84.514 1298.52 84.6267 1298.4 84.4513C1297.84 83.63 1296.9 82.4353 1295.9 81.9393C1294.91 81.4432 1293.39 81.4107 1292.4 81.4541C1292.19 81.4627 1292.07 81.1208 1292.25 81.0032C1293.07 80.441 1294.26 79.5021 1294.76 78.5099C1295.25 77.5198 1295.28 75.9972 1295.24 75.0053Z" fill="black"/>
<path d="M1367.67 79.5599L1363.92 79.8843L1362.74 66.5363L1370.54 65.8617C1374.06 65.5563 1376.05 66.8701 1376.28 69.4799C1376.46 71.5917 1375.52 72.9382 1373 73.4778L1373.01 73.677C1374.42 73.9166 1374.92 74.5361 1375.5 75.509L1377.45 78.7127L1373.13 79.0871L1371.25 75.9579C1370.68 75.0032 1370.26 74.7588 1368.8 74.8847L1367.27 75.0176L1367.67 79.5599ZM1366.79 69.5788L1367.02 72.2285L1371.03 71.8817C1372.12 71.7868 1372.5 71.553 1372.4 70.4175C1372.31 69.3616 1371.89 69.1371 1370.79 69.232L1366.79 69.5788ZM1391.4 77.5049L1379.55 78.5316L1378.37 65.1836L1390.22 64.157L1390.52 67.5239L1382.41 68.2261L1382.55 69.8199L1390.36 69.1435L1390.66 72.4905L1382.85 73.1668L1382.99 74.8403L1391.1 74.1381L1391.4 77.5049ZM1400.45 76.9218C1396.37 77.2755 1393.75 76.0369 1393.45 72.6501L1393.44 72.5305L1397.19 72.2062L1397.22 72.6245C1397.3 73.521 1397.64 73.7325 1400.15 73.5151C1402.42 73.3184 1402.65 73.1184 1402.59 72.5207C1402.55 72.0426 1402.28 71.8658 1401.17 71.8212L1396.93 71.6257C1394.41 71.5027 1393.04 70.2766 1392.85 68.125C1392.66 65.9933 1394.12 63.6188 1398.94 63.2013C1403.18 62.8338 1405.38 64.5106 1405.64 67.4989L1405.65 67.6184L1401.91 67.9428L1401.88 67.644C1401.8 66.6877 1401.35 66.4052 1398.84 66.6226C1396.93 66.7882 1396.53 67.0835 1396.58 67.6612C1396.62 68.0796 1396.88 68.2581 1397.6 68.2956L1401.84 68.5508C1405.15 68.746 1406.18 70.3436 1406.33 72.0569C1406.53 74.3479 1404.96 76.5319 1400.45 76.9218ZM1417.24 75.267L1413.5 75.5914L1412.62 65.6103L1407.89 66.0193L1407.6 62.6524L1420.77 61.5119L1421.07 64.8788L1416.36 65.286L1417.24 75.267ZM1428.09 74.3277L1424.35 74.6521L1423.17 61.3041L1430.96 60.6295C1434.48 60.3241 1436.47 61.6379 1436.7 64.2477C1436.89 66.3595 1435.94 67.706 1433.42 68.2456L1433.44 68.4449C1434.84 68.6844 1435.34 69.3039 1435.93 70.2768L1437.88 73.4805L1433.55 73.8549L1431.67 70.7257C1431.1 69.771 1430.68 69.5266 1429.23 69.6526L1427.69 69.7854L1428.09 74.3277ZM1427.21 64.3466L1427.44 66.9963L1431.45 66.6495C1432.55 66.5546 1432.93 66.3209 1432.83 65.1853C1432.73 64.1294 1432.31 63.9049 1431.22 63.9998L1427.21 64.3466ZM1443.71 72.975L1439.97 73.2994L1438.79 59.9514L1442.53 59.6271L1443.71 72.975ZM1453.6 72.3201C1448.95 72.7221 1445.98 70.249 1445.62 66.0853C1445.25 61.9215 1447.74 58.9757 1452.38 58.5737C1456.86 58.1855 1459.74 60.0842 1460.06 63.6503L1460.09 63.989L1455.9 64.3513L1455.87 64.0126C1455.74 62.4986 1454.97 61.963 1452.76 62.1545C1450.05 62.3892 1449.37 63.0905 1449.6 65.7402C1449.83 68.3899 1450.63 68.9635 1453.34 68.7289C1455.55 68.5374 1456.21 67.8776 1456.08 66.3635L1456.05 66.0248L1460.23 65.6625L1460.26 66.0011C1460.58 69.5672 1458.08 71.9319 1453.6 72.3201ZM1471.4 70.5774L1467.66 70.9018L1466.77 60.9207L1462.05 61.3296L1461.75 57.9628L1474.92 56.8223L1475.22 60.1891L1470.52 60.5963L1471.4 70.5774ZM1490.36 68.9359L1478.5 69.9625L1477.32 56.6145L1489.18 55.5879L1489.48 58.9548L1481.37 59.657L1481.51 61.2508L1489.32 60.5744L1489.61 63.9214L1481.8 64.5977L1481.95 66.2712L1490.06 65.569L1490.36 68.9359ZM1499.89 68.1104L1493.14 68.6953L1491.96 55.3473L1498.71 54.7624C1503.12 54.3811 1506.12 56.59 1506.5 60.8135C1506.87 65.037 1504.3 67.729 1499.89 68.1104ZM1499.01 58.1293L1496 58.3898L1496.59 65.004L1499.59 64.7435C1501.97 64.5382 1502.76 64.1686 1502.49 61.1603C1502.22 58.152 1501.38 57.9239 1499.01 58.1293ZM1530.92 65.4238L1518.02 66.5402L1517.73 63.1733L1524.28 56.2021L1524.26 55.9431L1517.26 56.5487L1516.96 53.1819L1529.62 52.0862L1529.91 55.4531L1523.04 62.4519L1523.07 62.7109L1530.62 62.0569L1530.92 65.4238ZM1540.72 64.7754C1536.08 65.1774 1533.09 62.7061 1532.72 58.5423C1532.35 54.3786 1534.87 51.431 1539.51 51.029C1544.27 50.6166 1547.22 53.0914 1547.59 57.2552C1547.96 61.4189 1545.49 64.363 1540.72 64.7754ZM1540.41 61.1894C1543.12 60.9547 1543.84 60.2499 1543.6 57.6003C1543.37 54.9506 1542.53 54.3804 1539.82 54.615C1537.11 54.8497 1536.47 55.5476 1536.71 58.1973C1536.94 60.8469 1537.7 61.424 1540.41 61.1894ZM1554.42 63.3889L1550.67 63.7133L1549.49 50.3653L1553.48 50.0202L1557.62 54.6998L1559.85 57.5987L1560.11 57.5763L1559.67 54.6832L1559.21 49.5233L1562.96 49.1989L1564.14 62.5469L1560.16 62.892L1555.76 58.0936L1553.83 55.6105L1553.57 55.633L1553.96 58.1692L1554.42 63.3889ZM1578.69 61.2868L1566.84 62.3134L1565.66 48.9654L1577.51 47.9388L1577.81 51.3057L1569.7 52.0079L1569.84 53.6017L1577.65 52.9253L1577.95 56.2723L1570.14 56.9487L1570.29 58.6221L1578.39 57.9199L1578.69 61.2868Z" fill="black"/>
<path d="M1641.94 44.9833C1641.93 44.7713 1642.27 44.6568 1642.39 44.8321C1642.95 45.6534 1643.89 46.85 1644.89 47.3461C1645.88 47.8404 1647.4 47.8748 1648.39 47.8312C1648.61 47.8226 1648.72 48.1627 1648.54 48.2823C1647.72 48.8445 1646.53 49.7832 1646.04 50.7735C1645.54 51.7637 1645.51 53.2861 1645.56 54.28C1645.57 54.4919 1645.22 54.6046 1645.11 54.4292C1644.54 53.6079 1643.6 52.4132 1642.61 51.9172C1641.62 51.4211 1640.09 51.3886 1639.1 51.432C1638.89 51.4407 1638.77 51.0987 1638.95 50.9811C1639.77 50.4189 1640.96 49.48 1641.46 48.4878C1641.95 47.4977 1641.98 45.9751 1641.94 44.9833Z" fill="black"/>
<path d="M1714.37 49.5377L1710.63 49.862L1709.45 36.5141L1717.24 35.8395C1720.76 35.5341 1722.75 36.8478 1722.98 39.4577C1723.17 41.5694 1722.22 42.916 1719.7 43.4556L1719.72 43.6548C1721.12 43.8944 1721.62 44.5138 1722.21 45.4868L1724.16 48.6905L1719.83 49.0649L1717.95 45.9357C1717.38 44.981 1716.96 44.7366 1715.51 44.8625L1713.97 44.9954L1714.37 49.5377ZM1713.49 39.5566L1713.72 42.2063L1717.73 41.8594C1718.83 41.7645 1719.21 41.5308 1719.11 40.3952C1719.01 39.3394 1718.59 39.1149 1717.5 39.2098L1713.49 39.5566ZM1738.1 47.4827L1726.25 48.5094L1725.07 35.1614L1736.92 34.1348L1737.22 37.5016L1729.11 38.2039L1729.25 39.7977L1737.06 39.1213L1737.36 42.4683L1729.55 43.1446L1729.7 44.8181L1737.81 44.1159L1738.1 47.4827ZM1747.16 46.8996C1743.07 47.2533 1740.45 46.0146 1740.15 42.6279L1740.14 42.5083L1743.89 42.1839L1743.93 42.6023C1744 43.4988 1744.34 43.7103 1746.86 43.4929C1749.13 43.2962 1749.35 43.0962 1749.3 42.4985C1749.25 42.0204 1748.98 41.8436 1747.87 41.799L1743.64 41.6035C1741.12 41.4805 1739.74 40.2544 1739.55 38.1028C1739.36 35.9711 1740.82 33.5966 1745.64 33.1791C1749.89 32.8116 1752.08 34.4883 1752.35 37.4767L1752.36 37.5962L1748.61 37.9206L1748.58 37.6218C1748.5 36.6655 1748.05 36.383 1745.54 36.6004C1743.63 36.766 1743.23 37.0612 1743.29 37.639C1743.32 38.0573 1743.58 38.2359 1744.31 38.2734L1748.54 38.5286C1751.85 38.7238 1752.88 40.3213 1753.03 42.0347C1753.23 44.3257 1751.66 46.5096 1747.16 46.8996ZM1763.95 45.2448L1760.2 45.5692L1759.32 35.5881L1754.6 35.997L1754.3 32.6302L1767.47 31.4897L1767.77 34.8565L1763.07 35.2637L1763.95 45.2448ZM1774.8 44.3055L1771.05 44.6299L1769.87 31.2819L1777.66 30.6073C1781.19 30.3019 1783.17 31.6157 1783.4 34.2255C1783.59 36.3373 1782.64 37.6838 1780.12 38.2234L1780.14 38.4226C1781.54 38.6622 1782.04 39.2817 1782.63 40.2546L1784.58 43.4583L1780.25 43.8327L1778.37 40.7035C1777.81 39.7488 1777.38 39.5044 1775.93 39.6303L1774.39 39.7632L1774.8 44.3055ZM1773.91 34.3244L1774.15 36.9741L1778.15 36.6273C1779.25 36.5324 1779.63 36.2986 1779.53 35.1631C1779.44 34.1072 1779.01 33.8827 1777.92 33.9776L1773.91 34.3244ZM1790.42 42.9528L1786.67 43.2772L1785.49 29.9292L1789.24 29.6048L1790.42 42.9528ZM1800.3 42.2979C1795.66 42.6999 1792.69 40.2268 1792.32 36.0631C1791.95 31.8993 1794.44 28.9535 1799.08 28.5515C1803.57 28.1632 1806.44 30.062 1806.76 33.6281L1806.79 33.9668L1802.61 34.3291L1802.58 33.9904C1802.44 32.4763 1801.67 31.9408 1799.46 32.1323C1796.75 32.367 1796.07 33.0683 1796.3 35.718C1796.54 38.3677 1797.33 38.9413 1800.04 38.7067C1802.25 38.5151 1802.92 37.8554 1802.78 36.3413L1802.75 36.0026L1806.94 35.6403L1806.97 35.9789C1807.28 39.545 1804.78 41.9096 1800.3 42.2979ZM1818.1 40.5552L1814.36 40.8796L1813.48 30.8985L1808.75 31.3074L1808.46 27.9405L1821.63 26.8001L1821.92 30.1669L1817.22 30.5741L1818.1 40.5552ZM1837.06 38.9136L1825.21 39.9403L1824.03 26.5923L1835.88 25.5657L1836.18 28.9326L1828.07 29.6348L1828.21 31.2286L1836.02 30.5522L1836.32 33.8992L1828.51 34.5755L1828.65 36.249L1836.76 35.5468L1837.06 38.9136ZM1846.59 38.0881L1839.84 38.6731L1838.66 25.3251L1845.41 24.7402C1849.82 24.3589 1852.82 26.5678 1853.2 30.7913C1853.57 35.0148 1851 37.7068 1846.59 38.0881ZM1845.71 28.1071L1842.7 28.3676L1843.29 34.9818L1846.3 34.7213C1848.67 34.5159 1849.46 34.1464 1849.19 31.1381C1848.93 28.1298 1848.08 27.9017 1845.71 28.1071ZM1877.62 35.4016L1864.73 36.5179L1864.43 33.1511L1870.98 26.1799L1870.96 25.9209L1863.96 26.5265L1863.67 23.1596L1876.32 22.064L1876.62 25.4309L1869.75 32.4297L1869.77 32.6887L1877.32 32.0347L1877.62 35.4016ZM1887.43 34.7532C1882.78 35.1552 1879.79 32.6839 1879.43 28.5201C1879.06 24.3564 1881.57 21.4088 1886.21 21.0068C1890.97 20.5944 1893.92 23.0692 1894.29 27.233C1894.66 31.3967 1892.19 34.3408 1887.43 34.7532ZM1887.11 31.1672C1889.82 30.9325 1890.54 30.2277 1890.3 27.578C1890.07 24.9284 1889.24 24.3582 1886.53 24.5928C1883.82 24.8275 1883.18 25.5254 1883.41 28.175C1883.64 30.8247 1884.4 31.4018 1887.11 31.1672ZM1901.12 33.3667L1897.37 33.691L1896.19 20.3431L1900.18 19.998L1904.33 24.6776L1906.55 27.5765L1906.81 27.5541L1906.37 24.661L1905.92 19.5011L1909.66 19.1767L1910.84 32.5247L1906.86 32.8697L1902.46 28.0714L1900.53 25.5883L1900.27 25.6108L1900.66 28.147L1901.12 33.3667ZM1925.39 31.2645L1913.54 32.2912L1912.36 18.9432L1924.22 17.9166L1924.51 21.2835L1916.4 21.9857L1916.54 23.5795L1924.35 22.9031L1924.65 26.2501L1916.84 26.9264L1916.99 28.5999L1925.1 27.8977L1925.39 31.2645Z" fill="black"/>
</g>
<g clip-path="url(#clip1_417_2150)">
<rect width="1990.31" height="46.004" transform="matrix(0.996279 0.0861849 -0.0881373 0.996108 -27.8999 0)" fill="#E3FF00"/>
<path d="M-16.1493 30.1247L-19.8953 29.8006L-18.7143 16.4527L-10.9234 17.1267C-7.39654 17.4318 -5.67391 19.0664 -5.90483 21.6762C-6.09168 23.7879 -7.25879 24.9516 -9.83747 25.0498L-9.85509 25.249C-8.51196 25.7265 -8.13177 26.4219 -7.72353 27.481L-6.36584 30.971L-10.6897 30.597L-11.9947 27.1918C-12.3847 26.1543 -12.7586 25.841 -14.2131 25.7151L-15.7474 25.5824L-16.1493 30.1247ZM-15.2662 20.1437L-15.5006 22.7933L-11.4956 23.1398C-10.3997 23.2346 -9.98353 23.0698 -9.88305 21.9343C-9.78962 20.8784 -10.1652 20.5849 -11.2611 20.4901L-15.2662 20.1437ZM7.58175 32.1776L-4.27397 31.152L-3.09293 17.8041L8.76279 18.8297L8.46489 22.1965L0.355177 21.495L0.214157 23.0888L8.02499 23.7645L7.72884 27.1114L-0.0819842 26.4357L-0.230055 28.1092L7.87966 28.8107L7.58175 32.1776ZM16.5991 33.1584C12.5144 32.805 10.1524 31.1352 10.452 27.7485L10.4626 27.6289L14.2086 27.953L14.1716 28.3713C14.0923 29.2678 14.3899 29.5345 16.9006 29.7517C19.1721 29.9482 19.4271 29.7896 19.4799 29.1919C19.5222 28.7138 19.2808 28.4921 18.1973 28.2579L14.0623 27.3381C11.6015 26.7839 10.4643 25.3406 10.6547 23.189C10.8433 21.0573 12.6946 18.9691 17.5165 19.3862C21.7607 19.7534 23.6292 21.7819 23.3648 24.7703L23.3542 24.8898L19.6082 24.5657L19.6346 24.2669C19.7192 23.3106 19.329 22.9557 16.8184 22.7385C14.9055 22.573 14.4642 22.7958 14.413 23.3736C14.376 23.7919 14.5975 24.0118 15.306 24.1735L19.4357 25.1531C22.6612 25.9139 23.3899 27.6632 23.2383 29.3765C23.0356 31.6675 21.1023 33.5479 16.5991 33.1584ZM33.4259 34.4132L29.6798 34.0892L30.563 24.1082L25.8406 23.6997L26.1385 20.3328L39.3093 21.4722L39.0114 24.839L34.309 24.4322L33.4259 34.4132ZM44.2735 35.3516L40.5275 35.0276L41.7085 21.6797L49.4994 22.3537C53.0262 22.6588 54.7489 24.2933 54.5179 26.9031C54.3311 29.0149 53.164 30.1786 50.5853 30.2768L50.5677 30.476C51.9108 30.9535 52.291 31.6489 52.6993 32.708L54.0569 36.198L49.7331 35.8239L48.4281 32.4188C48.038 31.3813 47.6642 31.0679 46.2096 30.9421L44.6754 30.8094L44.2735 35.3516ZM45.1566 25.3706L44.9222 28.0203L48.9272 28.3667C50.0231 28.4615 50.4392 28.2968 50.5397 27.1612C50.6332 26.1054 50.2576 25.8119 49.1616 25.7171L45.1566 25.3706ZM59.8948 36.703L56.1488 36.3789L57.3298 23.0311L61.0759 23.3551L59.8948 36.703ZM69.7413 37.7555C65.0986 37.3539 62.6086 34.4083 62.977 30.2446C63.3454 26.0809 66.3149 23.6076 70.9576 24.0092C75.4408 24.3971 77.9422 26.7614 77.6266 30.3275L77.5967 30.6662L73.4123 30.3042L73.4423 29.9655C73.5762 28.4514 72.9118 27.7917 70.7001 27.6004C67.9902 27.366 67.1965 27.9397 66.9621 30.5893C66.7276 33.239 67.4085 33.9403 70.1184 34.1747C72.3301 34.366 73.1003 33.8304 73.2343 32.3163L73.2642 31.9777L77.4486 32.3396L77.4186 32.6783C77.1031 36.2444 74.2245 38.1434 69.7413 37.7555ZM87.583 39.0982L83.837 38.7742L84.7201 28.7931L79.9977 28.3846L80.2956 25.0178L93.4665 26.1571L93.1685 29.524L88.4661 29.1172L87.583 39.0982ZM106.54 40.7381L94.6846 39.7125L95.8656 26.3647L107.721 27.3903L107.423 30.7571L99.3137 30.0556L99.1727 31.6494L106.984 32.3251L106.687 35.672L98.8766 34.9963L98.7285 36.6698L106.838 37.3713L106.54 40.7381ZM116.073 41.5628L109.319 40.9785L110.5 27.6306L117.254 28.215C121.658 28.5959 124.231 31.2877 123.857 35.5112C123.483 39.7347 120.477 41.9438 116.073 41.5628ZM116.957 31.5818L113.948 31.3215L113.363 37.9357L116.371 38.196C118.742 38.4011 119.586 38.1729 119.852 35.1647C120.118 32.1564 119.328 31.7869 116.957 31.5818ZM147.098 44.2467L134.207 43.1315L134.504 39.7646L142.18 34.0248L142.203 33.7658L135.209 33.1608L135.507 29.794L148.16 30.8885L147.862 34.2553L139.867 39.9676L139.844 40.2266L147.396 40.8798L147.098 44.2467ZM156.869 45.2927C152.227 44.8911 149.717 41.9438 150.085 37.7801C150.454 33.6163 153.443 31.1448 158.086 31.5464C162.848 31.9584 165.318 34.9022 164.95 39.0659C164.581 43.2297 161.632 45.7047 156.869 45.2927ZM157.187 41.7067C159.897 41.9411 160.73 41.3709 160.965 38.7212C161.199 36.0716 160.478 35.3668 157.768 35.1324C155.059 34.898 154.305 35.4752 154.07 38.1248C153.836 40.7745 154.477 41.4723 157.187 41.7067ZM170.599 46.2796L166.853 45.9556L168.034 32.6077L172.019 32.9525L175.282 38.2735L176.964 41.5105L177.223 41.5329L177.301 38.6087L177.757 33.4489L181.503 33.7729L180.322 47.1208L176.337 46.776L172.847 41.2948L171.386 38.5186L171.127 38.4962L171.06 41.06L170.599 46.2796ZM194.874 48.3797L183.019 47.3541L184.2 34.0062L196.055 35.0318L195.758 38.3986L187.648 37.6971L187.507 39.2909L195.318 39.9666L195.022 43.3135L187.211 42.6378L187.063 44.3113L195.172 45.0128L194.874 48.3797Z" fill="black"/>
<path d="M260.021 43.1887C260.05 42.9784 260.404 42.9241 260.492 43.1172C260.903 44.0229 261.62 45.363 262.509 46.022C263.399 46.679 264.892 46.9745 265.879 47.1024C266.089 47.1303 266.141 47.4847 265.948 47.5724C265.041 47.9851 263.701 48.7045 263.04 49.5948C262.379 50.4851 262.083 51.9792 261.953 52.9657C261.924 53.176 261.568 53.2283 261.482 53.0352C261.071 52.1296 260.354 50.7914 259.463 50.1323C258.574 49.4733 257.08 49.1797 256.095 49.052C255.885 49.0241 255.831 48.6676 256.024 48.5818C256.931 48.1691 258.273 47.4499 258.934 46.5577C259.593 45.6673 259.892 44.1733 260.021 43.1887Z" fill="black"/>
<path d="M330.556 60.117L326.81 59.7929L327.991 46.4451L335.782 47.119C339.309 47.4241 341.031 49.0587 340.8 51.6685C340.613 53.7802 339.446 54.944 336.868 55.0421L336.85 55.2413C338.193 55.7188 338.573 56.4142 338.982 57.4733L340.339 60.9633L336.015 60.5893L334.71 57.1841C334.32 56.1467 333.947 55.8333 332.492 55.7074L330.958 55.5747L330.556 60.117ZM331.439 50.136L331.205 52.7856L335.21 53.1321C336.305 53.2269 336.722 53.0621 336.822 51.9266C336.916 50.8707 336.54 50.5772 335.444 50.4824L331.439 50.136ZM354.287 62.1699L342.431 61.1443L343.612 47.7964L355.468 48.822L355.17 52.1889L347.06 51.4873L346.919 53.0811L354.73 53.7568L354.434 57.1037L346.623 56.428L346.475 58.1015L354.585 58.803L354.287 62.1699ZM363.304 63.1507C359.22 62.7973 356.858 61.1275 357.157 57.7408L357.168 57.6212L360.914 57.9453L360.877 58.3637C360.797 59.2602 361.095 59.5268 363.606 59.744C365.877 59.9405 366.132 59.7819 366.185 59.1842C366.227 58.7061 365.986 58.4844 364.902 58.2502L360.767 57.3304C358.307 56.7763 357.169 55.3329 357.36 53.1813C357.548 51.0496 359.4 48.9614 364.222 49.3785C368.466 49.7457 370.334 51.7743 370.07 54.7626L370.059 54.8821L366.313 54.5581L366.34 54.2592C366.424 53.303 366.034 52.948 363.524 52.7308C361.611 52.5653 361.169 52.7881 361.118 53.3659C361.081 53.7842 361.303 54.0042 362.011 54.1658L366.141 55.1454C369.366 55.9062 370.095 57.6555 369.943 59.3688C369.741 61.6599 367.807 63.5402 363.304 63.1507ZM380.131 64.4056L376.385 64.0815L377.268 54.1005L372.546 53.692L372.844 50.3251L386.014 51.4645L385.717 54.8313L381.014 54.4246L380.131 64.4056ZM390.979 65.3439L387.233 65.0199L388.414 51.672L396.205 52.346C399.731 52.6511 401.454 54.2856 401.223 56.8955C401.036 59.0072 399.869 60.1709 397.29 60.2691L397.273 60.4683C398.616 60.9458 398.996 61.6412 399.404 62.7003L400.762 66.1903L396.438 65.8162L395.133 62.4111C394.743 61.3736 394.369 61.0602 392.915 60.9344L391.381 60.8017L390.979 65.3439ZM391.862 55.3629L391.627 58.0126L395.632 58.3591C396.728 58.4539 397.144 58.2891 397.245 57.1535C397.338 56.0977 396.963 55.8042 395.867 55.7094L391.862 55.3629ZM406.6 66.6953L402.854 66.3712L404.035 53.0234L407.781 53.3475L406.6 66.6953ZM416.446 67.7478C411.804 67.3462 409.314 64.4007 409.682 60.2369C410.051 56.0732 413.02 53.5999 417.663 54.0015C422.146 54.3894 424.647 56.7537 424.332 60.3198L424.302 60.6585L420.117 60.2965L420.147 59.9578C420.281 58.4437 419.617 57.784 417.405 57.5927C414.695 57.3583 413.902 57.932 413.667 60.5817C413.433 63.2313 414.114 63.9326 416.823 64.167C419.035 64.3583 419.805 63.8227 419.939 62.3087L419.969 61.97L424.154 62.332L424.124 62.6706C423.808 66.2367 420.93 68.1357 416.446 67.7478ZM434.288 69.0905L430.542 68.7665L431.425 58.7855L426.703 58.3769L427.001 55.0101L440.172 56.1495L439.874 59.5163L435.171 59.1095L434.288 69.0905ZM453.245 70.7305L441.39 69.7049L442.571 56.357L454.426 57.3826L454.129 60.7494L446.019 60.0479L445.878 61.6417L453.689 62.3174L453.393 65.6643L445.582 64.9886L445.434 66.6621L453.543 67.3636L453.245 70.7305ZM462.779 71.5551L456.024 70.9708L457.205 57.623L463.96 58.2073C468.363 58.5882 470.936 61.28 470.562 65.5035C470.189 69.727 467.182 71.9361 462.779 71.5551ZM463.662 61.5741L460.653 61.3139L460.068 67.928L463.076 68.1883C465.448 68.3934 466.291 68.1652 466.557 65.157C466.823 62.1488 466.033 61.7793 463.662 61.5741ZM493.803 74.239L480.912 73.1238L481.21 69.7569L488.885 64.0171L488.908 63.7581L481.914 63.1531L482.212 59.7863L494.865 60.8808L494.567 64.2477L486.573 69.9599L486.55 70.2189L494.101 70.8722L493.803 74.239ZM503.575 75.285C498.932 74.8834 496.422 71.9361 496.79 67.7724C497.159 63.6086 500.148 61.1371 504.791 61.5387C509.553 61.9507 512.023 64.8945 511.655 69.0583C511.286 73.222 508.337 75.697 503.575 75.285ZM503.892 71.699C506.602 71.9335 507.435 71.3632 507.67 68.7135C507.904 66.0639 507.184 65.3591 504.474 65.1247C501.764 64.8903 501.01 65.4675 500.775 68.1171C500.541 70.7668 501.182 71.4646 503.892 71.699ZM517.304 76.2719L513.558 75.9479L514.739 62.6L518.724 62.9448L521.988 68.2658L523.669 71.5028L523.928 71.5252L524.006 68.601L524.462 63.4412L528.208 63.7652L527.027 77.1131L523.042 76.7684L519.552 71.2871L518.091 68.5109L517.832 68.4885L517.766 71.0523L517.304 76.2719ZM541.58 78.372L529.724 77.3464L530.905 63.9985L542.761 65.0241L542.463 68.391L534.353 67.6894L534.212 69.2832L542.023 69.9589L541.727 73.3058L533.916 72.6301L533.768 74.3036L541.877 75.0051L541.58 78.372Z" fill="black"/>
<path d="M606.727 73.181C606.755 72.9708 607.11 72.9164 607.197 73.1096C607.608 74.0152 608.325 75.3554 609.214 76.0143C610.104 76.6713 611.598 76.9668 612.584 77.0947C612.795 77.1226 612.846 77.477 612.653 77.5647C611.746 77.9774 610.406 78.6968 609.745 79.5871C609.084 80.4774 608.788 81.9715 608.658 82.958C608.63 83.1683 608.273 83.2206 608.188 83.0276C607.777 82.1219 607.059 80.7837 606.168 80.1246C605.279 79.4656 603.785 79.172 602.8 79.0443C602.59 79.0164 602.536 78.6599 602.73 78.5741C603.636 78.1615 604.978 77.4422 605.639 76.55C606.298 75.6596 606.597 74.1656 606.727 73.181Z" fill="black"/>
<path d="M677.261 90.1094L673.515 89.7853L674.696 76.4375L682.487 77.1115C686.014 77.4166 687.736 79.0511 687.505 81.6609C687.319 83.7726 686.152 84.9364 683.573 85.0345L683.555 85.2337C684.898 85.7113 685.279 86.4066 685.687 87.4657L687.044 90.9557L682.721 90.5817L681.416 87.1766C681.026 86.1391 680.652 85.8257 679.197 85.6999L677.663 85.5671L677.261 90.1094ZM678.144 80.1284L677.91 82.778L681.915 83.1245C683.011 83.2193 683.427 83.0546 683.527 81.919C683.621 80.8631 683.245 80.5697 682.149 80.4749L678.144 80.1284ZM700.992 92.1623L689.136 91.1367L690.317 77.7888L702.173 78.8144L701.875 82.1813L693.765 81.4797L693.624 83.0735L701.435 83.7492L701.139 87.0961L693.328 86.4204L693.18 88.0939L701.29 88.7955L700.992 92.1623ZM710.009 93.1431C705.925 92.7898 703.563 91.12 703.862 87.7332L703.873 87.6137L707.619 87.9377L707.582 88.3561C707.503 89.2526 707.8 89.5192 710.311 89.7364C712.582 89.9329 712.837 89.7743 712.89 89.1766C712.933 88.6985 712.691 88.4769 711.608 88.2426L707.473 87.3228C705.012 86.7687 703.875 85.3253 704.065 83.1737C704.254 81.042 706.105 78.9538 710.927 79.371C715.171 79.7381 717.039 81.7667 716.775 84.755L716.764 84.8745L713.018 84.5505L713.045 84.2517C713.13 83.2954 712.739 82.9404 710.229 82.7233C708.316 82.5578 707.874 82.7806 707.823 83.3583C707.786 83.7767 708.008 83.9966 708.716 84.1582L712.846 85.1378C716.072 85.8986 716.8 87.6479 716.649 89.3612C716.446 91.6523 714.513 93.5327 710.009 93.1431ZM726.836 94.398L723.09 94.0739L723.973 84.0929L719.251 83.6844L719.549 80.3176L732.72 81.4569L732.422 84.8238L727.719 84.417L726.836 94.398ZM737.684 95.3364L733.938 95.0123L735.119 81.6645L742.91 82.3384C746.437 82.6435 748.159 84.2781 747.928 86.8879C747.741 88.9996 746.574 90.1634 743.996 90.2615L743.978 90.4607C745.321 90.9383 745.701 91.6336 746.11 92.6927L747.467 96.1827L743.143 95.8087L741.838 92.4035C741.448 91.3661 741.075 91.0527 739.62 90.9269L738.086 90.7941L737.684 95.3364ZM738.567 85.3554L738.332 88.005L742.338 88.3515C743.433 88.4463 743.85 88.2815 743.95 87.146C744.043 86.0901 743.668 85.7966 742.572 85.7018L738.567 85.3554ZM753.305 96.6877L749.559 96.3637L750.74 83.0158L754.486 83.3399L753.305 96.6877ZM763.152 97.7403C758.509 97.3386 756.019 94.3931 756.387 90.2294C756.756 86.0656 759.725 83.5924 764.368 83.994C768.851 84.3818 771.352 86.7462 771.037 90.3122L771.007 90.6509L766.823 90.2889L766.853 89.9503C766.987 88.4362 766.322 87.7765 764.11 87.5851C761.4 87.3507 760.607 87.9244 760.372 90.5741C760.138 93.2237 760.819 93.925 763.529 94.1594C765.74 94.3508 766.511 93.8152 766.645 92.3011L766.675 91.9624L770.859 92.3244L770.829 92.6631C770.513 96.2291 767.635 98.1281 763.152 97.7403ZM780.993 99.0829L777.247 98.7589L778.13 88.7779L773.408 88.3694L773.706 85.0025L786.877 86.1419L786.579 89.5087L781.876 89.1019L780.993 99.0829ZM799.951 100.723L788.095 99.6973L789.276 86.3494L801.132 87.375L800.834 90.7419L792.724 90.0403L792.583 91.6341L800.394 92.3098L800.098 95.6567L792.287 94.981L792.139 96.6545L800.249 97.356L799.951 100.723ZM809.484 101.548L802.729 100.963L803.91 87.6154L810.665 88.1997C815.068 88.5807 817.641 91.2724 817.267 95.4959C816.894 99.7194 813.887 101.929 809.484 101.548ZM810.367 91.5666L807.358 91.3063L806.773 97.9204L809.782 98.1807C812.153 98.3858 812.996 98.1577 813.262 95.1494C813.529 92.1412 812.738 91.7717 810.367 91.5666ZM840.509 104.231L827.617 103.116L827.915 99.7494L835.59 94.0095L835.613 93.7506L828.62 93.1455L828.917 89.7787L841.57 90.8732L841.272 94.2401L833.278 99.9523L833.255 100.211L840.807 100.865L840.509 104.231ZM850.28 105.277C845.637 104.876 843.127 101.929 843.496 97.7648C843.864 93.6011 846.853 91.1295 851.496 91.5312C856.258 91.9431 858.728 94.887 858.36 99.0507C857.992 103.214 855.042 105.689 850.28 105.277ZM850.597 101.691C853.307 101.926 854.14 101.356 854.375 98.706C854.609 96.0563 853.889 95.3516 851.179 95.1171C848.469 94.8827 847.715 95.4599 847.481 98.1096C847.246 100.759 847.887 101.457 850.597 101.691ZM864.009 106.264L860.263 105.94L861.444 92.5925L865.429 92.9372L868.693 98.2583L870.374 101.495L870.633 101.518L870.711 98.5935L871.168 93.4336L874.914 93.7577L873.733 107.106L869.747 106.761L866.257 101.28L864.796 98.5033L864.537 98.4809L864.471 101.045L864.009 106.264ZM888.285 108.364L876.429 107.339L877.61 93.9909L889.466 95.0165L889.168 98.3834L881.058 97.6818L880.917 99.2756L888.728 99.9513L888.432 103.298L880.621 102.623L880.473 104.296L888.583 104.998L888.285 108.364Z" fill="black"/>
<path d="M953.432 103.173C953.46 102.963 953.815 102.909 953.902 103.102C954.313 104.008 955.03 105.348 955.919 106.007C956.809 106.664 958.303 106.959 959.289 107.087C959.5 107.115 959.551 107.469 959.358 107.557C958.451 107.97 957.111 108.689 956.45 109.58C955.789 110.47 955.493 111.964 955.363 112.95C955.335 113.161 954.978 113.213 954.893 113.02C954.482 112.114 953.765 110.776 952.873 110.117C951.984 109.458 950.49 109.164 949.505 109.037C949.295 109.009 949.242 108.652 949.435 108.567C950.342 108.154 951.683 107.435 952.345 106.542C953.004 105.652 953.302 104.158 953.432 103.173Z" fill="black"/>
<path d="M1023.97 120.102L1020.22 119.778L1021.4 106.43L1029.19 107.104C1032.72 107.409 1034.44 109.043 1034.21 111.653C1034.02 113.765 1032.86 114.929 1030.28 115.027L1030.26 115.226C1031.6 115.704 1031.98 116.399 1032.39 117.458L1033.75 120.948L1029.43 120.574L1028.12 117.169C1027.73 116.131 1027.36 115.818 1025.9 115.692L1024.37 115.559L1023.97 120.102ZM1024.85 110.121L1024.61 112.77L1028.62 113.117C1029.72 113.212 1030.13 113.047 1030.23 111.911C1030.33 110.855 1029.95 110.562 1028.85 110.467L1024.85 110.121ZM1047.7 122.155L1035.84 121.129L1037.02 107.781L1048.88 108.807L1048.58 112.174L1040.47 111.472L1040.33 113.066L1048.14 113.742L1047.84 117.088L1040.03 116.413L1039.89 118.086L1048 118.788L1047.7 122.155ZM1056.71 123.135C1052.63 122.782 1050.27 121.112 1050.57 117.726L1050.58 117.606L1054.32 117.93L1054.29 118.348C1054.21 119.245 1054.51 119.512 1057.02 119.729C1059.29 119.925 1059.54 119.767 1059.6 119.169C1059.64 118.691 1059.4 118.469 1058.31 118.235L1054.18 117.315C1051.72 116.761 1050.58 115.318 1050.77 113.166C1050.96 111.034 1052.81 108.946 1057.63 109.363C1061.88 109.73 1063.74 111.759 1063.48 114.747L1063.47 114.867L1059.72 114.543L1059.75 114.244C1059.83 113.288 1059.44 112.933 1056.93 112.716C1055.02 112.55 1054.58 112.773 1054.53 113.351C1054.49 113.769 1054.71 113.989 1055.42 114.151L1059.55 115.13C1062.78 115.891 1063.51 117.64 1063.35 119.354C1063.15 121.645 1061.22 123.525 1056.71 123.135ZM1073.54 124.39L1069.8 124.066L1070.68 114.085L1065.96 113.677L1066.25 110.31L1079.42 111.449L1079.13 114.816L1074.42 114.409L1073.54 124.39ZM1084.39 125.329L1080.64 125.005L1081.82 111.657L1089.61 112.331C1093.14 112.636 1094.86 114.27 1094.63 116.88C1094.45 118.992 1093.28 120.156 1090.7 120.254L1090.68 120.453C1092.03 120.931 1092.41 121.626 1092.81 122.685L1094.17 126.175L1089.85 125.801L1088.54 122.396C1088.15 121.358 1087.78 121.045 1086.33 120.919L1084.79 120.786L1084.39 125.329ZM1085.27 115.348L1085.04 117.997L1089.04 118.344C1090.14 118.439 1090.55 118.274 1090.66 117.138C1090.75 116.082 1090.37 115.789 1089.28 115.694L1085.27 115.348ZM1100.01 126.68L1096.26 126.356L1097.45 113.008L1101.19 113.332L1100.01 126.68ZM1109.86 127.733C1105.21 127.331 1102.72 124.385 1103.09 120.222C1103.46 116.058 1106.43 113.585 1111.07 113.986C1115.56 114.374 1118.06 116.738 1117.74 120.305L1117.71 120.643L1113.53 120.281L1113.56 119.943C1113.69 118.428 1113.03 117.769 1110.82 117.577C1108.11 117.343 1107.31 117.917 1107.08 120.566C1106.84 123.216 1107.52 123.917 1110.23 124.152C1112.45 124.343 1113.22 123.807 1113.35 122.293L1113.38 121.955L1117.56 122.317L1117.53 122.655C1117.22 126.221 1114.34 128.12 1109.86 127.733ZM1127.7 129.075L1123.95 128.751L1124.84 118.77L1120.11 118.362L1120.41 114.995L1133.58 116.134L1133.28 119.501L1128.58 119.094L1127.7 129.075ZM1146.66 130.715L1134.8 129.69L1135.98 116.342L1147.84 117.367L1147.54 120.734L1139.43 120.033L1139.29 121.626L1147.1 122.302L1146.8 125.649L1138.99 124.973L1138.84 126.647L1146.95 127.348L1146.66 130.715ZM1156.19 131.54L1149.43 130.956L1150.62 117.608L1157.37 118.192C1161.77 118.573 1164.35 121.265 1163.97 125.488C1163.6 129.712 1160.59 131.921 1156.19 131.54ZM1157.07 121.559L1154.06 121.299L1153.48 127.913L1156.49 128.173C1158.86 128.378 1159.7 128.15 1159.97 125.142C1160.23 122.133 1159.44 121.764 1157.07 121.559ZM1187.21 134.224L1174.32 133.109L1174.62 129.742L1182.3 124.002L1182.32 123.743L1175.32 123.138L1175.62 119.771L1188.28 120.866L1187.98 124.232L1179.98 129.945L1179.96 130.204L1187.51 130.857L1187.21 134.224ZM1196.98 135.27C1192.34 134.868 1189.83 131.921 1190.2 127.757C1190.57 123.593 1193.56 121.122 1198.2 121.523C1202.96 121.935 1205.43 124.879 1205.07 129.043C1204.7 133.207 1201.75 135.682 1196.98 135.27ZM1197.3 131.684C1200.01 131.918 1200.85 131.348 1201.08 128.698C1201.31 126.049 1200.59 125.344 1197.88 125.109C1195.17 124.875 1194.42 125.452 1194.19 128.102C1193.95 130.752 1194.59 131.449 1197.3 131.684ZM1210.71 136.257L1206.97 135.933L1208.15 122.585L1212.13 122.93L1215.4 128.251L1217.08 131.488L1217.34 131.51L1217.42 128.586L1217.87 123.426L1221.62 123.75L1220.44 137.098L1216.45 136.753L1212.96 131.272L1211.5 128.496L1211.24 128.473L1211.18 131.037L1210.71 136.257ZM1234.99 138.357L1223.13 137.331L1224.32 123.983L1236.17 125.009L1235.87 128.376L1227.76 127.674L1227.62 129.268L1235.43 129.944L1235.14 133.291L1227.33 132.615L1227.18 134.288L1235.29 134.99L1234.99 138.357Z" fill="black"/>
<path d="M1300.14 133.166C1300.17 132.955 1300.52 132.901 1300.61 133.094C1301.02 134 1301.74 135.34 1302.62 135.999C1303.51 136.656 1305.01 136.952 1305.99 137.079C1306.2 137.107 1306.26 137.462 1306.06 137.549C1305.16 137.962 1303.82 138.682 1303.16 139.572C1302.49 140.462 1302.2 141.956 1302.07 142.943C1302.04 143.153 1301.68 143.205 1301.6 143.012C1301.19 142.107 1300.47 140.768 1299.58 140.109C1298.69 139.45 1297.2 139.157 1296.21 139.029C1296 139.001 1295.95 138.645 1296.14 138.559C1297.05 138.146 1298.39 137.427 1299.05 136.535C1299.71 135.644 1300.01 134.15 1300.14 133.166Z" fill="black"/>
<path d="M1370.67 150.094L1366.93 149.77L1368.11 136.422L1375.9 137.096C1379.42 137.401 1381.15 139.036 1380.92 141.646C1380.73 143.758 1379.56 144.921 1376.98 145.019L1376.97 145.219C1378.31 145.696 1378.69 146.391 1379.1 147.451L1380.45 150.941L1376.13 150.567L1374.83 147.161C1374.44 146.124 1374.06 145.811 1372.61 145.685L1371.07 145.552L1370.67 150.094ZM1371.55 140.113L1371.32 142.763L1375.33 143.109C1376.42 143.204 1376.84 143.039 1376.94 141.904C1377.03 140.848 1376.66 140.555 1375.56 140.46L1371.55 140.113ZM1394.4 152.147L1382.55 151.122L1383.73 137.774L1395.58 138.799L1395.29 142.166L1387.18 141.465L1387.03 143.058L1394.85 143.734L1394.55 147.081L1386.74 146.405L1386.59 148.079L1394.7 148.78L1394.4 152.147ZM1403.42 153.128C1399.34 152.775 1396.97 151.105 1397.27 147.718L1397.28 147.599L1401.03 147.923L1400.99 148.341C1400.91 149.237 1401.21 149.504 1403.72 149.721C1405.99 149.918 1406.25 149.759 1406.3 149.162C1406.34 148.683 1406.1 148.462 1405.02 148.227L1400.88 147.308C1398.42 146.754 1397.28 145.31 1397.48 143.159C1397.66 141.027 1399.52 138.939 1404.34 139.356C1408.58 139.723 1410.45 141.752 1410.19 144.74L1410.17 144.859L1406.43 144.535L1406.46 144.237C1406.54 143.28 1406.15 142.925 1403.64 142.708C1401.73 142.543 1401.28 142.765 1401.23 143.343C1401.2 143.762 1401.42 143.981 1402.13 144.143L1406.26 145.123C1409.48 145.883 1410.21 147.633 1410.06 149.346C1409.86 151.637 1407.92 153.518 1403.42 153.128ZM1420.25 154.383L1416.5 154.059L1417.38 144.078L1412.66 143.669L1412.96 140.302L1426.13 141.442L1425.83 144.809L1421.13 144.402L1420.25 154.383ZM1431.09 155.321L1427.35 154.997L1428.53 141.649L1436.32 142.323C1439.85 142.628 1441.57 144.263 1441.34 146.873C1441.15 148.984 1439.98 150.148 1437.41 150.246L1437.39 150.446C1438.73 150.923 1439.11 151.618 1439.52 152.678L1440.88 156.168L1436.55 155.794L1435.25 152.388C1434.86 151.351 1434.48 151.038 1433.03 150.912L1431.5 150.779L1431.09 155.321ZM1431.98 145.34L1431.74 147.99L1435.75 148.336C1436.84 148.431 1437.26 148.266 1437.36 147.131C1437.45 146.075 1437.08 145.782 1435.98 145.687L1431.98 145.34ZM1446.72 156.673L1442.97 156.349L1444.15 143.001L1447.9 143.325L1446.72 156.673ZM1456.56 157.725C1451.92 157.324 1449.43 154.378 1449.8 150.214C1450.17 146.05 1453.14 143.577 1457.78 143.979C1462.26 144.367 1464.76 146.731 1464.45 150.297L1464.42 150.636L1460.23 150.274L1460.26 149.935C1460.4 148.421 1459.73 147.761 1457.52 147.57C1454.81 147.336 1454.02 147.909 1453.78 150.559C1453.55 153.209 1454.23 153.91 1456.94 154.144C1459.15 154.336 1459.92 153.8 1460.05 152.286L1460.08 151.947L1464.27 152.309L1464.24 152.648C1463.92 156.214 1461.05 158.113 1456.56 157.725ZM1474.4 159.068L1470.66 158.744L1471.54 148.763L1466.82 148.354L1467.12 144.987L1480.29 146.127L1479.99 149.494L1475.29 149.087L1474.4 159.068ZM1493.36 160.708L1481.51 159.682L1482.69 146.334L1494.54 147.36L1494.24 150.727L1486.13 150.025L1485.99 151.619L1493.8 152.295L1493.51 155.642L1485.7 154.966L1485.55 156.639L1493.66 157.341L1493.36 160.708ZM1502.89 161.532L1496.14 160.948L1497.32 147.6L1504.08 148.185C1508.48 148.566 1511.05 151.257 1510.68 155.481C1510.3 159.704 1507.3 161.913 1502.89 161.532ZM1503.78 151.551L1500.77 151.291L1500.18 157.905L1503.19 158.166C1505.56 158.371 1506.41 158.143 1506.67 155.134C1506.94 152.126 1506.15 151.757 1503.78 151.551ZM1533.92 164.216L1521.03 163.101L1521.33 159.734L1529 153.994L1529.02 153.735L1522.03 153.13L1522.33 149.764L1534.98 150.858L1534.68 154.225L1526.69 159.937L1526.67 160.196L1534.22 160.849L1533.92 164.216ZM1543.69 165.262C1539.05 164.861 1536.54 161.913 1536.91 157.75C1537.27 153.586 1540.26 151.114 1544.91 151.516C1549.67 151.928 1552.14 154.872 1551.77 159.036C1551.4 163.199 1548.45 165.674 1543.69 165.262ZM1544.01 161.676C1546.72 161.911 1547.55 161.34 1547.79 158.691C1548.02 156.041 1547.3 155.336 1544.59 155.102C1541.88 154.868 1541.13 155.445 1540.89 158.094C1540.66 160.744 1541.3 161.442 1544.01 161.676ZM1557.42 166.249L1553.67 165.925L1554.85 152.577L1558.84 152.922L1562.1 158.243L1563.78 161.48L1564.04 161.502L1564.12 158.578L1564.58 153.418L1568.32 153.743L1567.14 167.09L1563.16 166.746L1559.67 161.264L1558.21 158.488L1557.95 158.466L1557.88 161.03L1557.42 166.249ZM1581.7 168.349L1569.84 167.324L1571.02 153.976L1582.88 155.001L1582.58 158.368L1574.47 157.667L1574.33 159.26L1582.14 159.936L1581.84 163.283L1574.03 162.607L1573.88 164.281L1581.99 164.982L1581.7 168.349Z" fill="black"/>
<path d="M1646.84 163.158C1646.87 162.948 1647.23 162.894 1647.31 163.087C1647.72 163.992 1648.44 165.333 1649.33 165.991C1650.22 166.648 1651.71 166.944 1652.7 167.072C1652.91 167.1 1652.96 167.454 1652.77 167.542C1651.86 167.955 1650.52 168.674 1649.86 169.564C1649.2 170.455 1648.9 171.949 1648.77 172.935C1648.75 173.145 1648.39 173.198 1648.3 173.005C1647.89 172.099 1647.17 170.761 1646.28 170.102C1645.39 169.443 1643.9 169.149 1642.92 169.021C1642.71 168.994 1642.65 168.637 1642.85 168.551C1643.75 168.139 1645.09 167.419 1645.75 166.527C1646.41 165.637 1646.71 164.143 1646.84 163.158Z" fill="black"/>
<path d="M1717.38 180.087L1713.63 179.763L1714.81 166.415L1722.6 167.089C1726.13 167.394 1727.85 169.028 1727.62 171.638C1727.43 173.75 1726.27 174.914 1723.69 175.012L1723.67 175.211C1725.01 175.689 1725.39 176.384 1725.8 177.443L1727.16 180.933L1722.84 180.559L1721.53 177.154C1721.14 176.116 1720.77 175.803 1719.31 175.677L1717.78 175.544L1717.38 180.087ZM1718.26 170.106L1718.03 172.755L1722.03 173.102C1723.13 173.197 1723.54 173.032 1723.64 171.896C1723.74 170.84 1723.36 170.547 1722.26 170.452L1718.26 170.106ZM1741.11 182.14L1729.25 181.114L1730.43 167.766L1742.29 168.792L1741.99 172.159L1733.88 171.457L1733.74 173.051L1741.55 173.727L1741.25 177.073L1733.44 176.398L1733.3 178.071L1741.41 178.773L1741.11 182.14ZM1750.12 183.12C1746.04 182.767 1743.68 181.097 1743.98 177.71L1743.99 177.591L1747.73 177.915L1747.7 178.333C1747.62 179.23 1747.92 179.497 1750.43 179.714C1752.7 179.91 1752.95 179.752 1753.01 179.154C1753.05 178.676 1752.81 178.454 1751.72 178.22L1747.59 177.3C1745.13 176.746 1743.99 175.303 1744.18 173.151C1744.37 171.019 1746.22 168.931 1751.04 169.348C1755.29 169.715 1757.15 171.744 1756.89 174.732L1756.88 174.852L1753.13 174.528L1753.16 174.229C1753.24 173.273 1752.85 172.918 1750.34 172.701C1748.43 172.535 1747.99 172.758 1747.94 173.336C1747.9 173.754 1748.12 173.974 1748.83 174.136L1752.96 175.115C1756.19 175.876 1756.92 177.625 1756.76 179.339C1756.56 181.63 1754.63 183.51 1750.12 183.12ZM1766.95 184.375L1763.21 184.051L1764.09 174.07L1759.37 173.662L1759.66 170.295L1772.84 171.434L1772.54 174.801L1767.83 174.394L1766.95 184.375ZM1777.8 185.314L1774.05 184.99L1775.23 171.642L1783.03 172.316C1786.55 172.621 1788.27 174.255 1788.04 176.865C1787.86 178.977 1786.69 180.141 1784.11 180.239L1784.09 180.438C1785.44 180.916 1785.82 181.611 1786.23 182.67L1787.58 186.16L1783.26 185.786L1781.95 182.381C1781.56 181.343 1781.19 181.03 1779.74 180.904L1778.2 180.771L1777.8 185.314ZM1778.68 175.333L1778.45 177.982L1782.45 178.329C1783.55 178.424 1783.97 178.259 1784.07 177.123C1784.16 176.067 1783.78 175.774 1782.69 175.679L1778.68 175.333ZM1793.42 186.665L1789.67 186.341L1790.86 172.993L1794.6 173.317L1793.42 186.665ZM1803.27 187.718C1798.62 187.316 1796.13 184.37 1796.5 180.207C1796.87 176.043 1799.84 173.57 1804.48 173.971C1808.97 174.359 1811.47 176.723 1811.15 180.29L1811.12 180.628L1806.94 180.266L1806.97 179.928C1807.1 178.413 1806.44 177.754 1804.23 177.562C1801.52 177.328 1800.72 177.902 1800.49 180.551C1800.25 183.201 1800.93 183.902 1803.64 184.137C1805.86 184.328 1806.63 183.792 1806.76 182.278L1806.79 181.94L1810.97 182.302L1810.94 182.64C1810.63 186.206 1807.75 188.105 1803.27 187.718ZM1821.11 189.06L1817.36 188.736L1818.25 178.755L1813.52 178.347L1813.82 174.98L1826.99 176.119L1826.69 179.486L1821.99 179.079L1821.11 189.06ZM1840.07 190.7L1828.21 189.675L1829.39 176.327L1841.25 177.352L1840.95 180.719L1832.84 180.018L1832.7 181.611L1840.51 182.287L1840.21 185.634L1832.4 184.958L1832.25 186.632L1840.36 187.333L1840.07 190.7ZM1849.6 191.525L1842.84 190.941L1844.03 177.593L1850.78 178.177C1855.18 178.558 1857.76 181.25 1857.38 185.473C1857.01 189.697 1854 191.906 1849.6 191.525ZM1850.48 181.544L1847.47 181.284L1846.89 187.898L1849.9 188.158C1852.27 188.363 1853.11 188.135 1853.38 185.127C1853.64 182.118 1852.85 181.749 1850.48 181.544ZM1880.62 194.209L1867.73 193.093L1868.03 189.727L1875.71 183.987L1875.73 183.728L1868.73 183.123L1869.03 179.756L1881.69 180.851L1881.39 184.217L1873.39 189.93L1873.37 190.189L1880.92 190.842L1880.62 194.209ZM1890.4 195.255C1885.75 194.853 1883.24 191.906 1883.61 187.742C1883.98 183.578 1886.97 181.107 1891.61 181.508C1896.37 181.92 1898.84 184.864 1898.48 189.028C1898.11 193.192 1895.16 195.667 1890.4 195.255ZM1890.71 191.669C1893.42 191.903 1894.26 191.333 1894.49 188.683C1894.72 186.034 1894 185.329 1891.29 185.094C1888.58 184.86 1887.83 185.437 1887.6 188.087C1887.36 190.736 1888 191.434 1890.71 191.669ZM1904.12 196.242L1900.38 195.918L1901.56 182.57L1905.54 182.914L1908.81 188.236L1910.49 191.472L1910.75 191.495L1910.83 188.571L1911.28 183.411L1915.03 183.735L1913.85 197.083L1909.86 196.738L1906.37 191.257L1904.91 188.481L1904.65 188.458L1904.59 191.022L1904.12 196.242ZM1928.4 198.342L1916.54 197.316L1917.73 183.968L1929.58 184.994L1929.28 188.361L1921.17 187.659L1921.03 189.253L1928.84 189.929L1928.55 193.276L1920.74 192.6L1920.59 194.273L1928.7 194.975L1928.4 198.342Z" fill="black"/>
</g>
<defs>
<clipPath id="clip0_417_2150">
<rect width="1990.75" height="46.004" fill="white" transform="matrix(0.996272 -0.0862706 0.0880499 0.996116 -36 172)"/>
</clipPath>
<clipPath id="clip1_417_2150">
<rect width="1990.31" height="46.004" fill="white" transform="matrix(0.996279 0.0861849 -0.0881373 0.996108 -27.8999 0)"/>
</clipPath>
</defs>
</svg>
