<svg width="51" height="51" viewBox="0 0 51 51" fill="none" xmlns="http://www.w3.org/2000/svg">
<g clip-path="url(#clip0_417_2142)">
<path d="M35.4027 51.0038C36.5549 51.0007 37.5632 50.229 37.867 49.1177L40.2168 40.3445L49.116 37.9654C50.472 37.5967 51.2749 36.2018 50.9135 34.8442L46.2994 17.6468L46.6646 16.2873C46.9949 15.0351 46.3336 13.7344 45.1274 13.2629L43.0498 5.50733C42.6779 4.1525 41.2865 3.34846 39.927 3.70244L24.7504 7.77356L12.0243 4.36177C11.5027 4.21862 10.9488 4.24858 10.4458 4.44696L7.26664 1.27323C6.19498 0.191847 4.62698 -0.233703 3.15584 0.158005C1.6847 0.549713 0.535632 1.69839 0.143535 3.16953C-0.248563 4.64067 0.176209 6.20906 1.2572 7.28072L7.05192 13.0754L0.109304 38.9928C-0.254008 40.3519 0.549636 41.7487 1.90719 42.1183L34.7411 50.9155C34.9566 50.9743 35.1791 51.0042 35.4027 51.0038ZM49.2693 35.2834C49.3895 35.7342 49.1238 36.1979 48.6741 36.322L40.7256 38.4462L45.4172 20.9322L49.2693 35.2834ZM40.3619 5.3459C40.5809 5.286 40.8147 5.31634 41.0111 5.42992C41.2076 5.54312 41.3503 5.73061 41.4079 5.95L43.2206 12.7211L28.033 8.65228L40.3619 5.3459ZM25.7462 25.7653L21.456 24.3354L24.3163 21.4725L25.7462 25.7622V25.7653ZM22.2877 21.1021L15.0775 13.8911C14.7457 13.5593 14.2073 13.5593 13.8755 13.8915C13.5437 14.2233 13.5441 14.7617 13.8763 15.0935L21.0869 22.3026L19.8857 23.5053L7.86762 11.4872L9.06919 10.2856L11.472 12.6896C11.6871 12.9043 11.9998 12.9883 12.2935 12.9093C12.5868 12.8308 12.8159 12.6016 12.8945 12.3084C12.9731 12.0151 12.8894 11.7019 12.6747 11.4872L10.2715 9.08405L11.4731 7.8817L23.4893 19.8998L22.2877 21.1021ZM5.46369 9.08405L9.06919 5.47855L10.2708 6.68012L6.66604 10.2856L5.46369 9.08405ZM1.7127 4.27697C1.7127 3.24577 2.33391 2.31571 3.28654 1.92128C4.23955 1.52684 5.3361 1.74507 6.06506 2.47441L7.86762 4.27697L4.26211 7.88248L2.45878 6.07914C1.97955 5.60225 1.71076 4.95342 1.7127 4.27697ZM1.75199 39.4389L8.44098 14.4645L19.284 25.3075C19.3726 25.3942 19.4792 25.46 19.5967 25.5004C19.6033 25.5004 19.6084 25.5097 19.6161 25.5121L25.2136 27.3815C25.3883 27.4391 25.5715 27.4675 25.7555 27.4667C26.0756 27.4656 26.3888 27.3734 26.658 27.2007L36.43 29.8248C36.502 29.8446 36.5763 29.8547 36.651 29.8543C37.0777 29.8543 37.4379 29.5381 37.4931 29.1152C37.5488 28.6924 37.2823 28.2941 36.8704 28.184L27.4383 25.6517C27.4297 25.5074 27.4036 25.3646 27.3601 25.2266L25.4906 19.6287C25.4906 19.6209 25.4813 19.6158 25.4778 19.6081C25.4373 19.4917 25.3716 19.3856 25.2856 19.2973L12.1519 6.15811L44.4179 14.801C44.6361 14.8593 44.822 15.0017 44.9348 15.1973C45.0476 15.3926 45.078 15.6248 45.0196 15.8431L36.2262 48.673C36.1683 48.8913 36.0255 49.0776 35.8298 49.1904C35.6342 49.3032 35.4016 49.3335 35.1837 49.2748L2.35336 40.4806C2.13553 40.4223 1.94959 40.2799 1.8364 40.0846C1.72359 39.889 1.69325 39.6568 1.75199 39.4389Z" fill="black"/>
<path d="M39.2922 20.0018C39.7185 20.0014 40.0787 19.6851 40.1343 19.2623C40.1896 18.8399 39.9231 18.4411 39.5116 18.3311L27.4254 15.0928C27.129 15.0045 26.8085 15.0842 26.5879 15.3009C26.3674 15.5171 26.2818 15.8365 26.3643 16.1341C26.4467 16.432 26.6848 16.6615 26.9851 16.7335L39.072 19.9726C39.144 19.992 39.2179 20.0018 39.2922 20.0018Z" fill="black"/>
<path d="M37.9716 24.9258C38.3979 24.9254 38.7581 24.6096 38.8137 24.1867C38.8694 23.7639 38.6029 23.3656 38.191 23.2551L29.9737 21.057C29.6784 20.9729 29.361 21.0542 29.1428 21.2705C28.9246 21.4864 28.8402 21.8034 28.9215 22.0994C29.0028 22.3955 29.2373 22.6246 29.5353 22.6985L37.7526 24.897C37.8238 24.9161 37.8977 24.9258 37.9716 24.9258Z" fill="black"/>
<path d="M11.7509 26.7272L9.28664 26.0671C8.99101 25.9807 8.67165 26.0609 8.45227 26.2772C8.23288 26.493 8.1473 26.8108 8.22899 27.108C8.31068 27.4048 8.5464 27.6343 8.84553 27.7078L11.3098 28.3691C11.3821 28.3882 11.456 28.3979 11.5307 28.3979C11.9574 28.3983 12.318 28.082 12.3736 27.6592C12.4293 27.2364 12.1628 26.8377 11.7509 26.7272Z" fill="black"/>
<path d="M36.1539 34.1449C36.2752 33.6917 36.006 33.2265 35.5533 33.1047L16.6742 28.0471C16.2363 27.9615 15.8068 28.2299 15.6909 28.6609C15.5754 29.0919 15.813 29.5393 16.2351 29.6844L35.1129 34.7423C35.1849 34.7622 35.2588 34.7719 35.3331 34.7719C35.717 34.7723 36.0535 34.5152 36.1539 34.1449Z" fill="black"/>
<path d="M10.4303 31.6518L7.96603 30.9913C7.51364 30.8726 7.05036 31.1418 6.92938 31.5934C6.80841 32.0454 7.07564 32.5102 7.52686 32.6332L9.99109 33.2925C10.0627 33.3123 10.1366 33.3225 10.2113 33.3221C10.6376 33.3225 10.9982 33.0062 11.0538 32.5834C11.1098 32.1606 10.8434 31.7618 10.431 31.6518H10.4303Z" fill="black"/>
<path d="M34.2334 38.0299L15.3556 32.9712C15.0592 32.8833 14.7387 32.963 14.5181 33.1793C14.2975 33.396 14.212 33.7149 14.2944 34.0129C14.3769 34.3105 14.615 34.54 14.9153 34.6123L33.7935 39.6707C33.8655 39.6905 33.9398 39.7006 34.0144 39.7006C34.4408 39.7002 34.801 39.384 34.8566 38.9612C34.9118 38.5383 34.6454 38.14 34.2334 38.0299Z" fill="black"/>
</g>
<defs>
<clipPath id="clip0_417_2142">
<rect width="51" height="51" fill="white"/>
</clipPath>
</defs>
</svg>
