<svg width="50" height="50" viewBox="0 0 50 50" fill="none" xmlns="http://www.w3.org/2000/svg">
<g clip-path="url(#clip0_396_12772)">
<path d="M24.5479 42.2646C24.3663 42.083 24.1143 41.9784 23.8575 41.9784C23.6006 41.9784 23.3487 42.0829 23.1671 42.2646C22.9854 42.4462 22.8809 42.6981 22.8809 42.955C22.8809 43.2129 22.9854 43.4637 23.1671 43.6454C23.3487 43.828 23.6006 43.9315 23.8575 43.9315C24.1143 43.9315 24.3663 43.828 24.5479 43.6454C24.7296 43.4637 24.834 43.2119 24.834 42.955C24.834 42.6981 24.7295 42.4462 24.5479 42.2646Z" fill="black"/>
<path d="M29.1975 33.2557V26.07C29.1975 25.7456 29.0364 25.4423 28.7675 25.2607C28.4987 25.0792 28.1572 25.0431 27.8561 25.1641L11.0287 31.9412H5.6088C2.51623 31.9412 0.00012207 34.4573 0.00012207 37.5501C0.00012207 40.6428 2.51623 43.1589 5.609 43.1589H6.25441V49.0234C6.25441 49.5626 6.69161 49.9999 7.23097 49.9999H11.2177C11.757 49.9999 12.1942 49.5626 12.1942 49.0234V43.63L27.8566 49.9294C27.9741 49.9767 28.0978 50 28.2209 50C28.4131 50 28.6039 49.9433 28.7677 49.8327C29.0365 49.6511 29.1975 49.3478 29.1975 49.0235V41.8378C31.1559 41.3922 32.6225 39.6381 32.6225 37.5468C32.6225 35.4555 31.1559 33.7013 29.1975 33.2557ZM10.241 48.0468H8.20753V43.1588H10.2411V48.0468H10.241ZM10.2412 41.2057H5.609C3.59318 41.2057 1.95324 39.5658 1.95324 37.5501C1.95324 35.5342 3.59318 33.8943 5.609 33.8943H10.2416L10.2412 41.2057ZM27.2445 47.578H27.2444L12.1947 41.525V33.5771L22.8809 29.2734V38.9648C22.8809 39.5041 23.3181 39.9414 23.8575 39.9414C24.3969 39.9414 24.8341 39.5041 24.8341 38.9648V28.4868L27.2445 27.516V47.578ZM29.1975 39.7914V35.3021C30.0629 35.68 30.6694 36.5437 30.6694 37.5467C30.6694 38.5498 30.063 39.4134 29.1975 39.7914Z" fill="black"/>
<path d="M41.9387 36.599H36.4096C35.8703 36.599 35.433 37.0363 35.433 37.5756C35.433 38.1148 35.8703 38.5521 36.4096 38.5521H41.9387C42.4781 38.5521 42.9153 38.1148 42.9153 37.5756C42.9153 37.0363 42.4781 36.599 41.9387 36.599Z" fill="black"/>
<path d="M37.4042 29.4432C37.0229 29.0619 36.4045 29.0619 36.0231 29.4432L34.1158 31.3504C33.7345 31.7317 33.7345 32.3501 34.1158 32.7315C34.3067 32.9222 34.5566 33.0176 34.8065 33.0176C35.0564 33.0176 35.3064 32.9222 35.497 32.7315L37.4042 30.8243C37.7856 30.443 37.7856 29.8246 37.4042 29.4432Z" fill="black"/>
<path d="M37.4759 44.2359L35.5049 42.2648C35.1236 41.8836 34.5052 41.8836 34.1238 42.2648C33.7424 42.6462 33.7424 43.2645 34.1238 43.646L36.0949 45.6171C36.2856 45.8077 36.5355 45.9031 36.7854 45.9031C37.0353 45.9031 37.2853 45.8077 37.4759 45.6171C37.8573 45.2357 37.8573 44.6174 37.4759 44.2359Z" fill="black"/>
<path d="M46.0937 0H27.9297C25.7758 0 24.0235 1.75234 24.0235 3.90624V4.29687H7.61724C6.32486 4.29687 5.2735 5.34833 5.2735 6.64061V22.0703C5.2735 23.3626 6.32486 24.414 7.61724 24.414H8.62632V27.4088C8.62632 27.8039 8.86431 28.1599 9.22916 28.3111C9.34996 28.3611 9.47681 28.3854 9.60269 28.3854C9.85679 28.3854 10.1066 28.2862 10.2934 28.0994L13.9788 24.414H33.377C34.6693 24.414 35.7207 23.3626 35.7207 22.0703V19.1406H46.0937C48.2476 19.1406 50 17.3882 50 15.2343V3.90624C49.9999 1.75234 48.2476 0 46.0937 0ZM33.7676 22.0703C33.7676 22.2857 33.5924 22.4609 33.377 22.4609H13.5743C13.3153 22.4609 13.0668 22.5638 12.8837 22.7469L10.5795 25.0512V23.4375C10.5795 22.8982 10.1423 22.4609 9.60298 22.4609H7.61724C7.40181 22.4609 7.22662 22.2857 7.22662 22.0703V6.64061C7.22662 6.42518 7.40181 6.24999 7.61724 6.24999H24.0235V15.2343C24.0235 17.3882 25.7758 19.1406 27.9297 19.1406H33.7676V22.0703ZM48.0469 15.2343C48.0469 16.3113 47.1707 17.1875 46.0937 17.1875H27.9297C26.8528 17.1875 25.9766 16.3113 25.9766 15.2343V3.90624C25.9766 2.82929 26.8528 1.95312 27.9297 1.95312H46.0937C47.1707 1.95312 48.0469 2.82929 48.0469 3.90624V15.2343Z" fill="black"/>
<path d="M40.935 8.72465L34.2515 4.86587C33.9493 4.69136 33.577 4.69136 33.2749 4.86587C32.9728 5.04028 32.7866 5.36274 32.7866 5.71157V13.429C32.7866 13.7779 32.9728 14.1003 33.2749 14.2747C33.426 14.362 33.5945 14.4056 33.7632 14.4056C33.9318 14.4056 34.1004 14.362 34.2515 14.2747L40.935 10.416C41.2372 10.2415 41.4233 9.91908 41.4233 9.57025C41.4233 9.22143 41.2373 8.89906 40.935 8.72465ZM34.7397 11.7376V7.40307L38.4936 9.57035L34.7397 11.7376Z" fill="black"/>
<path d="M20.9484 10.2539H11.1828C10.6434 10.2539 10.2062 10.6912 10.2062 11.2305C10.2062 11.7697 10.6434 12.207 11.1828 12.207H20.9484C21.4878 12.207 21.925 11.7697 21.925 11.2305C21.925 10.6912 21.4878 10.2539 20.9484 10.2539Z" fill="black"/>
<path d="M21.6387 16.0088C21.4571 15.827 21.2051 15.7227 20.9483 15.7227C20.6915 15.7227 20.4395 15.827 20.2579 16.0088C20.0762 16.1904 19.9717 16.4424 19.9717 16.6992C19.9717 16.9561 20.0762 17.208 20.2579 17.3895C20.4395 17.5712 20.6915 17.6758 20.9483 17.6758C21.2061 17.6758 21.4571 17.5713 21.6387 17.3895C21.8204 17.208 21.9249 16.9561 21.9249 16.6992C21.9249 16.4424 21.8204 16.1904 21.6387 16.0088Z" fill="black"/>
<path d="M17.2852 15.7227H11.1828C10.6434 15.7227 10.2062 16.16 10.2062 16.6992C10.2062 17.2385 10.6434 17.6758 11.1828 17.6758H17.2852C17.8246 17.6758 18.2618 17.2385 18.2618 16.6992C18.2618 16.16 17.8246 15.7227 17.2852 15.7227Z" fill="black"/>
</g>
<defs>
<clipPath id="clip0_396_12772">
<rect width="50" height="50" fill="white"/>
</clipPath>
</defs>
</svg>
