<svg width="53" height="53" viewBox="0 0 53 53" fill="none" xmlns="http://www.w3.org/2000/svg">
<g clip-path="url(#clip0_417_2118)">
<path d="M20.0493 36.8619C20.0493 36.4047 20.4191 36.0329 20.8762 36.0329C21.3333 36.0329 21.7047 36.4039 21.7047 36.8619V44.0289C21.7047 44.7291 21.4199 45.3651 20.9582 45.8243C20.9412 45.8433 20.9242 45.8586 20.9048 45.8739C20.4493 46.3046 19.8348 46.5708 19.1628 46.5708H2.55063C1.85003 46.5708 1.21445 46.2859 0.755252 45.8243C0.293987 45.3651 0.00869751 44.7291 0.00869751 44.0289V31.3739C0.00869751 30.6737 0.293572 30.0373 0.755252 29.5785C1.21445 29.1177 1.85003 28.8315 2.55063 28.8315H12.5747C13.0318 28.8315 13.4032 29.2025 13.4032 29.6605C13.4032 30.1164 13.0322 30.4874 12.5747 30.4874H2.55063C2.30757 30.4874 2.08522 30.5868 1.92456 30.7474C1.76556 30.9089 1.66412 31.1304 1.66412 31.3739V44.0289C1.66412 44.2715 1.76556 44.4939 1.92456 44.6549C2.08522 44.816 2.30716 44.9154 2.55063 44.9154H19.1628C19.391 44.9154 19.6013 44.8268 19.7582 44.6852C19.7673 44.6736 19.7773 44.6636 19.7868 44.6549C19.9475 44.4939 20.0489 44.2715 20.0489 44.0285L20.0493 36.8619Z" fill="black"/>
<path d="M13.0111 20.2212C13.4682 20.2212 13.84 20.5922 13.84 21.0497C13.84 21.5072 13.4686 21.8766 13.0111 21.8766C12.19 21.8766 11.4434 21.5416 10.9035 21.0017C10.364 20.4621 10.029 19.716 10.029 18.8945V2.98208C10.029 2.16141 10.364 1.41651 10.9035 0.874914C11.4434 0.335391 12.1896 0 13.0111 0H40.0059C40.8261 0 41.571 0.334977 42.1135 0.874914C42.653 1.41651 42.988 2.16099 42.988 2.98208V18.8945C42.988 19.7156 42.6522 20.4621 42.1135 21.0017C41.571 21.542 40.8274 21.8766 40.0059 21.8766C39.5488 21.8766 39.1769 21.5068 39.1769 21.0497C39.1769 20.5926 39.5479 20.2212 40.0059 20.2212C40.3694 20.2212 40.7007 20.0717 40.9417 19.8307C41.1831 19.5914 41.3317 19.258 41.3317 18.8945V2.98208C41.3317 2.61853 41.1831 2.28728 40.9417 2.0463C40.7007 1.8049 40.3694 1.65584 40.0059 1.65584H13.0111C12.6471 1.65584 12.3163 1.8049 12.0749 2.0463C11.8339 2.28728 11.6848 2.61853 11.6848 2.98208V18.8945C11.6848 19.258 11.8339 19.5914 12.0749 19.8307C12.3163 20.0717 12.6471 20.2212 13.0111 20.2212Z" fill="black"/>
<path d="M17.1952 3.3324C18.1007 3.3324 18.9218 3.70009 19.5156 4.29344C19.5326 4.31041 19.5479 4.3278 19.5632 4.34685C20.1296 4.93648 20.4779 5.73644 20.4779 6.6155C20.4779 7.52105 20.1106 8.34173 19.5156 8.93549C18.9218 9.53091 18.1007 9.89819 17.1952 9.89819C16.2917 9.89819 15.4706 9.52843 14.8752 8.93342L14.8731 8.93549C14.2794 8.34173 13.9125 7.52105 13.9125 6.6155C13.9125 5.7116 14.2798 4.89093 14.8752 4.29509L14.8731 4.29344C15.4685 3.70009 16.288 3.3324 17.1952 3.3324ZM18.3459 5.46482C18.0511 5.17208 17.6436 4.98823 17.1956 4.98823C16.7459 4.98823 16.3401 5.17166 16.0453 5.46482L16.0433 5.46275L16.0416 5.46482C15.7505 5.75756 15.5683 6.16334 15.5683 6.61508C15.5683 7.06269 15.7522 7.47054 16.0453 7.76535H16.0433L16.0453 7.76701C16.3381 8.05975 16.7439 8.24028 17.1952 8.24028C17.6432 8.24028 18.0506 8.05851 18.3459 7.76576C18.6386 7.47095 18.8204 7.0631 18.8204 6.6155C18.8204 6.18073 18.6539 5.78862 18.3819 5.4996C18.3686 5.48801 18.3575 5.47641 18.3459 5.46482Z" fill="black"/>
<path d="M29.3231 18.0866C29.8891 18.2763 30.4315 18.5214 30.9404 18.8158C31.4572 19.1147 31.9416 19.465 32.3847 19.8576L34.667 19.027C35.0496 18.8887 35.4674 19.0497 35.6616 19.3905L35.664 19.3884L36.4524 20.7573C36.4611 20.7726 36.4694 20.788 36.4777 20.8029L37.2429 22.1275C37.4441 22.4802 37.3576 22.92 37.0582 23.1709V23.173L35.2019 24.7311C35.2417 24.9319 35.2765 25.1369 35.3026 25.3456C35.3543 25.7377 35.38 26.1244 35.38 26.4995C35.38 26.8768 35.3543 27.2631 35.3026 27.656C35.2765 27.8647 35.2417 28.0693 35.2019 28.2684L37.0582 29.8286C37.3787 30.0961 37.4453 30.5582 37.2284 30.9027L36.4532 32.2443L35.6649 33.6111C35.4562 33.9709 35.0177 34.115 34.6425 33.9651L32.3855 33.144C31.942 33.5365 31.4576 33.8868 30.9408 34.1854C30.4319 34.4806 29.8903 34.7261 29.3235 34.9154L28.9024 37.3024C28.8337 37.7045 28.4825 37.9877 28.0888 37.9877H26.5095H24.9286C24.5096 37.9877 24.163 37.6755 24.108 37.2697L23.6943 34.9154C23.1279 34.7261 22.5859 34.4806 22.077 34.1854C21.5602 33.8868 21.0762 33.5374 20.6323 33.144L18.3504 33.975C17.9674 34.1125 17.55 33.9514 17.3534 33.6111L16.5646 32.2443L15.7745 30.8758C15.5696 30.5226 15.6557 30.0808 15.9596 29.8286H15.958L17.8163 28.2684C17.7761 28.068 17.7418 27.8643 17.7153 27.656C17.6635 27.2643 17.637 26.8768 17.637 26.4995C17.637 26.1248 17.6635 25.7377 17.7153 25.3456C17.7418 25.1369 17.7761 24.9323 17.8163 24.7311L15.958 23.1734C15.6387 22.9055 15.5733 22.4438 15.7899 22.0993L16.565 20.7577L17.3534 19.3889C17.5621 19.0311 18.0005 18.887 18.3736 19.0365L20.6323 19.8572C21.0762 19.465 21.5607 19.1147 22.0774 18.8158C22.5863 18.521 23.1283 18.2759 23.6947 18.0866L24.1138 15.6991C24.185 15.2971 24.5353 15.0143 24.9295 15.0143H26.5083H28.0892C28.509 15.0143 28.8552 15.3265 28.9086 15.7319L29.3231 18.0866ZM30.1144 20.246C29.5881 19.9416 29.0179 19.7023 28.4146 19.5375C28.0991 19.465 27.8424 19.212 27.7832 18.8733L27.3948 16.6705H26.5083H25.6234L25.235 18.8733C25.1816 19.1798 24.9551 19.4443 24.6338 19.53C24.0198 19.6948 23.4397 19.9375 22.9035 20.246C22.3614 20.5602 21.8642 20.9412 21.4236 21.3772C21.2037 21.607 20.863 21.6989 20.5454 21.5842L18.4378 20.8165L17.9939 21.5859L17.5517 22.3519L19.2672 23.7916C19.5044 23.9903 19.6195 24.3158 19.5346 24.6354C19.4547 24.9398 19.3914 25.2495 19.3512 25.56C19.3127 25.8528 19.2937 26.1666 19.2937 26.5C19.2937 26.8349 19.3127 27.1484 19.3512 27.4411C19.3918 27.7401 19.4489 28.0382 19.5251 28.3309C19.6212 28.6407 19.5293 28.9897 19.2672 29.2092L17.5517 30.6493L17.9939 31.4153L18.4378 32.1842L20.5454 31.4165C20.836 31.3114 21.1752 31.3739 21.4083 31.6082C21.8526 32.0501 22.3561 32.4372 22.9035 32.7548C23.4297 33.0571 23.9999 33.2985 24.6028 33.4633C24.9187 33.5345 25.175 33.7891 25.2342 34.1274L25.6226 36.3306H26.5091H27.3931L27.7803 34.1274H27.7824C27.8358 33.8218 28.0623 33.5568 28.3832 33.4711C28.9976 33.3067 29.5777 33.0641 30.1123 32.7552C30.6559 32.4413 31.1532 32.06 31.5934 31.6223C31.8137 31.3942 32.154 31.3031 32.472 31.4174L34.5796 32.185L35.0235 31.4161L35.4649 30.6501L33.7498 29.21C33.5126 29.0117 33.397 28.6854 33.4819 28.3661C33.5627 28.0622 33.626 27.7537 33.6662 27.4432C33.7043 27.148 33.7237 26.8341 33.7237 26.5C33.7237 26.1666 33.7043 25.8528 33.6662 25.56C33.6252 25.2611 33.5685 24.9625 33.4894 24.6681C33.395 24.3601 33.4877 24.0114 33.7498 23.7916L35.4665 22.3502L35.0492 21.6285C35.04 21.6153 35.0322 21.6004 35.0231 21.5863L34.5792 20.817L32.4716 21.5846C32.1805 21.6898 31.8418 21.6269 31.6083 21.3929C31.1648 20.9503 30.6613 20.5631 30.1144 20.246ZM26.5079 21.4285C27.9086 21.4285 29.1757 21.997 30.0949 22.9142C31.012 23.8309 31.5805 25.1 31.5805 26.4991C31.5805 27.9003 31.012 29.1669 30.0949 30.0862C29.1757 31.0029 27.9091 31.5714 26.5079 31.5714C25.1088 31.5714 23.8397 31.0029 22.9229 30.0862C22.0058 29.1669 21.4373 27.9003 21.4373 26.4991C21.4373 25.1 22.0058 23.8309 22.9229 22.9142C23.8392 21.997 25.1088 21.4285 26.5079 21.4285ZM28.9239 24.0851C28.3053 23.4674 27.4515 23.0844 26.5083 23.0844C25.5663 23.0844 24.7129 23.4674 24.0943 24.0851C23.4765 24.7013 23.0935 25.5576 23.0935 26.4991C23.0935 27.4428 23.4765 28.2962 24.0943 28.9148C24.7104 29.533 25.5667 29.916 26.5083 29.916C27.4519 29.916 28.3053 29.533 28.9239 28.9148C29.5417 28.2962 29.9251 27.4428 29.9251 26.4991C29.9247 25.5571 29.5417 24.7038 28.9239 24.0851Z" fill="black"/>
<path d="M42.1412 45.1411C42.475 44.8289 42.9967 44.8442 43.3089 45.1775C43.6211 45.5088 43.6058 46.0313 43.2741 46.3448C41.046 48.4445 38.42 50.131 35.522 51.2817C32.7254 52.3897 29.6833 53 26.507 53C23.3312 53 20.2878 52.3893 17.4929 51.2817C14.5953 50.131 11.9685 48.4445 9.74041 46.3448C9.40958 46.0305 9.39219 45.508 9.70646 45.1775C10.0183 44.8442 10.5412 44.8289 10.8737 45.1411C12.954 47.1029 15.4027 48.676 18.1016 49.7484C20.6969 50.7777 23.532 51.3429 26.5066 51.3429C29.4829 51.3429 32.318 50.7786 34.9133 49.7484C37.6134 48.6768 40.0614 47.1029 42.1412 45.1411ZM3.73113 29.6249C3.75017 30.0804 3.39615 30.4651 2.94068 30.4862C2.48521 30.5057 2.10055 30.1512 2.08109 29.6958C2.07156 29.5214 2.06577 29.3322 2.05997 29.1214C2.05417 28.8498 2.05045 28.6502 2.05045 28.5422C2.05045 24.968 2.81812 21.5702 4.20026 18.5061C5.63209 15.3265 7.72807 12.5072 10.3098 10.2236C10.6505 9.92137 11.1735 9.95367 11.4741 10.2944C11.7764 10.6352 11.7436 11.1578 11.4033 11.4584C8.99883 13.5871 7.04652 16.2168 5.70869 19.1856C4.42261 22.0381 3.7067 25.2057 3.7067 28.543C3.7067 28.8088 3.70835 28.984 3.71042 29.0846C3.71415 29.2465 3.7216 29.4274 3.73113 29.6249ZM41.6137 11.458C41.2738 11.1573 41.2406 10.6352 41.5425 10.294C41.8439 9.95325 42.3652 9.92095 42.7068 10.2228C45.2889 12.5068 47.3837 15.3257 48.8167 18.5057C50.1972 21.5698 50.9665 24.9672 50.9665 28.5413C50.9665 28.6507 50.9624 28.849 50.9574 29.121C50.9512 29.3318 50.9438 29.521 50.9363 29.6953C50.9164 30.1516 50.5314 30.5052 50.0767 30.4858C49.6208 30.4647 49.2672 30.0804 49.2859 29.6245C49.295 29.4266 49.3037 29.2453 49.3078 29.0821C49.3095 28.9831 49.3111 28.8063 49.3111 28.5401C49.3111 25.204 48.5952 22.0364 47.3091 19.1839C45.9696 16.2164 44.0186 13.5862 41.6137 11.458Z" fill="black"/>
<path d="M41.7156 34.9903C41.2584 34.9903 40.8866 34.6201 40.8866 34.1634C40.8866 33.7059 41.2576 33.3345 41.7156 33.3345H47.8515C48.3087 33.3345 48.6805 33.7055 48.6805 34.1634C48.6805 34.6206 48.3095 34.9903 47.8515 34.9903H41.7156Z" fill="black"/>
<path d="M37.1634 38.5621C36.7062 38.5621 36.3365 38.1911 36.3365 37.7331C36.3365 37.276 36.7062 36.9062 37.1634 36.9062H47.8516C48.3087 36.9062 48.6805 37.2764 48.6805 37.7331C48.6805 38.1907 48.3091 38.5621 47.8516 38.5621H37.1634Z" fill="black"/>
<path d="M37.1634 42.1338C36.7062 42.1338 36.3365 41.7628 36.3365 41.3053C36.3365 40.8477 36.7062 40.4763 37.1634 40.4763H47.8516C48.3087 40.4763 48.6805 40.8473 48.6805 41.3053C48.6805 41.7624 48.3091 42.1338 47.8516 42.1338H37.1634Z" fill="black"/>
<path d="M8.23157 32.4389L15.7501 36.9965C16.1385 37.2317 16.2627 37.7389 16.0275 38.1294C15.953 38.2523 15.8516 38.3476 15.7369 38.4146L8.16284 43.0041C7.77445 43.2393 7.26681 43.1155 7.03162 42.7267C6.95129 42.593 6.9132 42.4447 6.9132 42.2998H6.90947V33.1022C6.90947 32.6451 7.27881 32.2758 7.73635 32.2758C7.92185 32.2758 8.0941 32.3375 8.23157 32.4389ZM13.7328 37.7008L8.56489 34.5692V40.8336L13.7328 37.7008Z" fill="black"/>
<path d="M42.6257 14.1494C43.0033 14.4057 43.0994 14.9208 42.8418 15.2976C42.5859 15.6748 42.0708 15.7721 41.6932 15.5141L29.6945 7.28341L11.4815 19.415C11.1006 19.668 10.5872 19.5624 10.3362 19.1836C10.0841 18.8026 10.1876 18.2896 10.5685 18.0366L29.2274 5.60812C29.5011 5.41889 29.8746 5.40564 30.1678 5.60439L42.6257 14.1494Z" fill="black"/>
<path d="M31.3122 36.8619C31.3122 36.4047 31.6832 36.0329 32.1408 36.0329C32.5983 36.0329 32.9677 36.4039 32.9677 36.8619V44.0289C32.9677 44.2715 33.0691 44.4939 33.2281 44.6549C33.2389 44.6641 33.2492 44.6736 33.2587 44.6856C33.4157 44.8272 33.6244 44.9154 33.8542 44.9154H50.4663C50.7094 44.9154 50.9297 44.816 51.0903 44.6549C51.2514 44.4939 51.3533 44.2719 51.3533 44.0289V31.3739C51.3533 31.1312 51.2514 30.9089 51.0903 30.7478C50.9297 30.5872 50.7094 30.4878 50.4663 30.4878H40.4427C39.9856 30.4878 39.6138 30.1164 39.6138 29.6605C39.6138 29.2034 39.9848 28.8315 40.4427 28.8315H50.4668C51.1669 28.8315 51.8034 29.1164 52.2621 29.5785C52.7238 30.0373 53.0091 30.6737 53.0091 31.3739V44.0289C53.0091 44.7291 52.7242 45.3651 52.2621 45.8243C51.8034 46.2855 51.1669 46.5708 50.4668 46.5708H33.8546C33.1826 46.5708 32.5681 46.3046 32.1126 45.8739C32.0932 45.8586 32.0758 45.8437 32.0588 45.8243C31.5975 45.3651 31.3122 44.7291 31.3122 44.0289V36.8619Z" fill="black"/>
</g>
<defs>
<clipPath id="clip0_417_2118">
<rect width="53" height="53" fill="white"/>
</clipPath>
</defs>
</svg>
