<svg width="57" height="57" viewBox="0 0 57 57" fill="none" xmlns="http://www.w3.org/2000/svg">
<path d="M28.5 43.6406C27.0908 43.6406 25.7133 43.2228 24.5416 42.4398C23.3699 41.6569 22.4566 40.5442 21.9174 39.2422C21.3781 37.9403 21.237 36.5077 21.5119 35.1256C21.7868 33.7435 22.4654 32.4739 23.4619 31.4775C24.4583 30.481 25.7279 29.8025 27.11 29.5275C28.4921 29.2526 29.9247 29.3937 31.2266 29.933C32.5285 30.4723 33.6413 31.3855 34.4242 32.5572C35.2071 33.7289 35.625 35.1064 35.625 36.5156C35.6229 38.4046 34.8715 40.2157 33.5358 41.5514C32.2001 42.8872 30.389 43.6385 28.5 43.6406ZM28.5 31.1719C27.4431 31.1719 26.41 31.4853 25.5312 32.0725C24.6524 32.6596 23.9675 33.4942 23.563 34.4707C23.1586 35.4471 23.0527 36.5216 23.2589 37.5581C23.4651 38.5947 23.9741 39.5469 24.7214 40.2942C25.4687 41.0416 26.4209 41.5505 27.4575 41.7567C28.4941 41.9629 29.5685 41.8571 30.545 41.4526C31.5214 41.0482 32.356 40.3632 32.9432 39.4845C33.5304 38.6057 33.8438 37.5725 33.8438 36.5156C33.8423 35.0988 33.2789 33.7404 32.277 32.7386C31.2752 31.7367 29.9168 31.1733 28.5 31.1719Z" fill="black"/>
<path d="M39.1875 55.2188C38.9513 55.2188 38.7248 55.1249 38.5577 54.9579C38.3907 54.7909 38.2969 54.5643 38.2969 54.3281V48.9844C38.2969 48.0777 34.8386 46.3125 28.5 46.3125C22.1614 46.3125 18.7031 48.0777 18.7031 48.9844V54.3281C18.7031 54.5643 18.6093 54.7909 18.4423 54.9579C18.2752 55.1249 18.0487 55.2188 17.8125 55.2188C17.5763 55.2188 17.3498 55.1249 17.1827 54.9579C17.0157 54.7909 16.9219 54.5643 16.9219 54.3281V48.9844C16.9219 46.0605 22.7466 44.5312 28.5 44.5312C34.2534 44.5312 40.0781 46.0605 40.0781 48.9844V54.3281C40.0781 54.5643 39.9843 54.7909 39.8173 54.9579C39.6502 55.1249 39.4237 55.2188 39.1875 55.2188Z" fill="black"/>
<path d="M43.6406 39.1875C42.2314 39.1875 40.8539 38.7696 39.6822 37.9867C38.5105 37.2038 37.5973 36.091 37.058 34.7891C36.5187 33.4872 36.3776 32.0546 36.6525 30.6725C36.9275 29.2904 37.606 28.0208 38.6025 27.0244C39.5989 26.0279 40.8685 25.3493 42.2506 25.0744C43.6327 24.7995 45.0653 24.9406 46.3672 25.4799C47.6692 26.0191 48.7819 26.9324 49.5648 28.1041C50.3478 29.2758 50.7656 30.6533 50.7656 32.0625C50.7635 33.9515 50.0122 35.7626 48.6764 37.0983C47.3407 38.434 45.5296 39.1854 43.6406 39.1875ZM43.6406 26.7188C42.5837 26.7188 41.5506 27.0322 40.6718 27.6193C39.793 28.2065 39.1081 29.0411 38.7036 30.0175C38.2992 30.994 38.1934 32.0684 38.3996 33.105C38.6057 34.1416 39.1147 35.0938 39.862 35.8411C40.6094 36.5884 41.5615 37.0974 42.5981 37.3036C43.6347 37.5098 44.7092 37.4039 45.6856 36.9995C46.662 36.595 47.4966 35.9101 48.0838 35.0313C48.671 34.1526 48.9844 33.1194 48.9844 32.0625C48.983 30.6457 48.4195 29.2873 47.4177 28.2855C46.4158 27.2836 45.0574 26.7202 43.6406 26.7188Z" fill="black"/>
<path d="M54.3281 50.7656C54.0919 50.7656 53.8654 50.6718 53.6983 50.5048C53.5313 50.3377 53.4375 50.1112 53.4375 49.875V44.5312C53.4375 43.6246 49.9792 41.8594 43.6406 41.8594C39.989 41.8594 36.6047 42.4962 34.8234 43.5213C34.7221 43.5807 34.61 43.6195 34.4936 43.6354C34.3773 43.6513 34.2589 43.644 34.1453 43.614C34.0318 43.584 33.9253 43.5318 33.832 43.4604C33.7387 43.3891 33.6604 43.3 33.6017 43.1983C33.543 43.0966 33.5049 42.9842 33.4898 42.8677C33.4747 42.7513 33.4827 42.633 33.5135 42.5196C33.5442 42.4062 33.5971 42.3001 33.6691 42.2073C33.7411 42.1144 33.8307 42.0368 33.9328 41.9787C36.0035 40.7906 39.6328 40.0781 43.6406 40.0781C49.394 40.0781 55.2187 41.6073 55.2187 44.5312V49.875C55.2187 50.1112 55.1249 50.3377 54.9579 50.5048C54.7908 50.6718 54.5643 50.7656 54.3281 50.7656Z" fill="black"/>
<path d="M13.3594 39.1875C11.9502 39.1875 10.5726 38.7696 9.40094 37.9867C8.22924 37.2038 7.31601 36.091 6.77674 34.7891C6.23746 33.4872 6.09636 32.0546 6.37128 30.6725C6.6462 29.2904 7.32479 28.0208 8.32124 27.0244C9.31769 26.0279 10.5872 25.3493 11.9694 25.0744C13.3515 24.7995 14.7841 24.9406 16.086 25.4799C17.3879 26.0191 18.5007 26.9324 19.2836 28.1041C20.0665 29.2758 20.4844 30.6533 20.4844 32.0625C20.4823 33.9515 19.7309 35.7626 18.3952 37.0983C17.0594 38.434 15.2484 39.1854 13.3594 39.1875ZM13.3594 26.7188C12.3025 26.7188 11.2693 27.0322 10.3905 27.6193C9.51177 28.2065 8.82685 29.0411 8.4224 30.0175C8.01794 30.994 7.91212 32.0684 8.11831 33.105C8.3245 34.1416 8.83344 35.0938 9.58078 35.8411C10.3281 36.5884 11.2803 37.0974 12.3169 37.3036C13.3535 37.5098 14.4279 37.4039 15.4043 36.9995C16.3808 36.595 17.2154 35.9101 17.8025 35.0313C18.3897 34.1526 18.7031 33.1194 18.7031 32.0625C18.7017 30.6457 18.1383 29.2873 17.1364 28.2855C16.1346 27.2836 14.7762 26.7202 13.3594 26.7188Z" fill="black"/>
<path d="M2.67188 50.7656C2.43567 50.7656 2.20913 50.6718 2.04211 50.5048C1.87508 50.3377 1.78125 50.1112 1.78125 49.875V44.5312C1.78125 41.6073 7.60594 40.0781 13.3594 40.0781C17.3672 40.0781 20.9965 40.7906 23.0618 41.9787C23.1639 42.0368 23.2536 42.1144 23.3255 42.2073C23.3975 42.3001 23.4504 42.4062 23.4812 42.5196C23.5119 42.633 23.52 42.7513 23.5048 42.8677C23.4897 42.9842 23.4517 43.0966 23.3929 43.1983C23.3342 43.3 23.2559 43.3891 23.1626 43.4604C23.0693 43.5318 22.9628 43.584 22.8493 43.614C22.7357 43.644 22.6174 43.6513 22.501 43.6354C22.3846 43.6195 22.2725 43.5807 22.1712 43.5213C20.3953 42.4962 17.0154 41.8594 13.3594 41.8594C7.0208 41.8594 3.5625 43.6246 3.5625 44.5312V49.875C3.5625 50.1112 3.46867 50.3377 3.30164 50.5048C3.13462 50.6718 2.90808 50.7656 2.67188 50.7656Z" fill="black"/>
<path d="M14.3293 24.0469C14.1484 24.0468 13.9718 23.9916 13.823 23.8886C13.6743 23.7857 13.5604 23.6399 13.4965 23.4707C11.9959 19.4915 12.1375 15.0792 13.89 11.2044C15.6426 7.32956 18.8627 4.30967 22.8419 2.80904C26.821 1.30841 31.2334 1.44996 35.1082 3.20255C38.983 4.95513 42.0028 8.1752 43.5035 12.1544C43.5468 12.2642 43.5679 12.3816 43.5655 12.4997C43.5631 12.6177 43.5372 12.7341 43.4894 12.8421C43.4416 12.9501 43.3727 13.0475 43.2869 13.1286C43.2011 13.2097 43.1 13.273 42.9895 13.3147C42.879 13.3564 42.7613 13.3757 42.6433 13.3715C42.5253 13.3673 42.4093 13.3396 42.302 13.2902C42.1948 13.2407 42.0985 13.1704 42.0187 13.0834C41.9388 12.9963 41.8771 12.8943 41.8371 12.7832C40.5032 9.24593 37.8189 6.38346 34.3745 4.82546C30.9301 3.26745 27.0079 3.14153 23.4707 4.4754C19.9334 5.80927 17.071 8.49366 15.513 11.938C13.955 15.3824 13.829 19.3046 15.1629 22.8419C15.2042 22.9513 15.2236 23.0679 15.2199 23.1848C15.2161 23.3018 15.1894 23.4169 15.1412 23.5235C15.0929 23.6301 15.0242 23.7261 14.9388 23.8062C14.8535 23.8862 14.7532 23.9486 14.6437 23.9899C14.5431 24.0274 14.4366 24.0467 14.3293 24.0469Z" fill="black"/>
<path d="M28.5 28.5C26.3862 28.5 24.3199 27.8732 22.5623 26.6988C20.8048 25.5245 19.435 23.8553 18.626 21.9024C17.8171 19.9495 17.6055 17.8006 18.0179 15.7275C18.4302 13.6543 19.4481 11.75 20.9428 10.2553C22.4375 8.76063 24.3418 7.74274 26.415 7.33036C28.4881 6.91798 30.637 7.12963 32.5899 7.93854C34.5428 8.74745 36.212 10.1173 37.3863 11.8748C38.5607 13.6324 39.1875 15.6987 39.1875 17.8125C39.1844 20.6461 38.0575 23.3627 36.0538 25.3663C34.0502 27.37 31.3336 28.4969 28.5 28.5ZM28.5 8.90625C26.7385 8.90625 25.0166 9.4286 23.552 10.4072C22.0873 11.3859 20.9458 12.7768 20.2717 14.4042C19.5976 16.0316 19.4212 17.8224 19.7649 19.55C20.1085 21.2777 20.9568 22.8646 22.2023 24.1102C23.4479 25.3557 25.0348 26.204 26.7625 26.5476C28.4901 26.8913 30.2809 26.7149 31.9083 26.0408C33.5357 25.3667 34.9266 24.2252 35.9053 22.7606C36.8839 21.2959 37.4063 19.574 37.4063 17.8125C37.4037 15.4512 36.4645 13.1874 34.7948 11.5177C33.1251 9.84802 30.8613 8.90885 28.5 8.90625Z" fill="black"/>
<path d="M28.5 23.1563C27.4431 23.1563 26.4099 22.8428 25.5312 22.2557C24.6524 21.6685 23.9675 20.8339 23.563 19.8575C23.1586 18.881 23.0527 17.8066 23.2589 16.77C23.4651 15.7334 23.9741 14.7812 24.7214 14.0339C25.4687 13.2866 26.4209 12.7776 27.4575 12.5714C28.4941 12.3652 29.5685 12.4711 30.545 12.8755C31.5214 13.28 32.356 13.9649 32.9432 14.8437C33.5303 15.7224 33.8438 16.7556 33.8438 17.8125C33.8423 19.2293 33.2789 20.5877 32.277 21.5895C31.2752 22.5914 29.9168 23.1548 28.5 23.1563ZM28.5 14.25C27.7954 14.25 27.1066 14.4589 26.5208 14.8504C25.9349 15.2418 25.4783 15.7982 25.2087 16.4492C24.939 17.1002 24.8685 17.8165 25.006 18.5075C25.1434 19.1986 25.4827 19.8333 25.9809 20.3316C26.4792 20.8298 27.1139 21.1691 27.805 21.3065C28.4961 21.444 29.2124 21.3735 29.8633 21.1038C30.5143 20.8342 31.0707 20.3776 31.4621 19.7917C31.8536 19.2059 32.0625 18.5171 32.0625 17.8125C32.0625 16.8677 31.6872 15.9615 31.0191 15.2934C30.351 14.6253 29.4448 14.25 28.5 14.25Z" fill="black"/>
<path d="M51.6562 22.2656H44.2569C44.027 22.2652 43.8062 22.1758 43.6406 22.0162L40.1984 18.7031H28.5C28.2638 18.7031 28.0373 18.6093 27.8702 18.4423C27.7032 18.2752 27.6094 18.0487 27.6094 17.8125C27.6094 17.5763 27.7032 17.3498 27.8702 17.1827C28.0373 17.0157 28.2638 16.9219 28.5 16.9219H40.1984L43.6406 13.6087C43.8064 13.449 44.0276 13.3596 44.2578 13.3594H51.6562C51.8338 13.3594 52.0073 13.4124 52.1545 13.5117C52.3016 13.6111 52.4158 13.7521 52.4822 13.9167C52.5486 14.0814 52.5643 14.2621 52.5273 14.4358C52.4903 14.6094 52.4022 14.768 52.2743 14.8912L49.2409 17.8125L52.2743 20.7338C52.4022 20.857 52.4903 21.0156 52.5273 21.1892C52.5643 21.3629 52.5486 21.5436 52.4822 21.7083C52.4158 21.8729 52.3016 22.0139 52.1545 22.1133C52.0073 22.2126 51.8338 22.2656 51.6562 22.2656ZM44.6203 20.4844H49.4475L47.5977 18.7031H42.7669L44.6203 20.4844ZM42.7705 16.9219H47.6012L49.4511 15.1406H44.6203L42.7705 16.9219Z" fill="black"/>
</svg>
