<svg width="151" height="60" viewBox="0 0 151 60" fill="none" xmlns="http://www.w3.org/2000/svg">
<path fill-rule="evenodd" clip-rule="evenodd" d="M0 19.8458C0.00763699 19.9672 0.0473493 19.9641 0.135938 20.0533L2.46369 22.3951C3.65201 23.5906 39.4679 59.5867 39.5687 59.7372C39.7154 59.6389 48.5957 50.6664 48.6048 50.6587L65.5528 33.6081C65.6536 33.5066 65.7361 33.4237 65.8369 33.3222C66.0126 33.1471 65.9729 33.2147 65.9729 32.8889V13.5548L62.6813 16.8309C62.608 16.9047 62.553 16.96 62.4797 17.0338L58.1541 21.3379C58.009 21.4839 57.8746 21.5945 57.728 21.7421L55.8844 23.5968C55.8065 23.6752 55.75 23.7059 55.6706 23.7858C54.3112 25.1688 52.9167 26.518 51.5573 27.9009L51.1311 28.3051C50.5782 28.8613 50.0421 29.4007 49.4877 29.9585C49.3441 30.103 49.2158 30.209 49.0737 30.3504L42.4662 36.9257C42.0767 37.3175 41.0488 38.3901 40.728 38.6729C40.4378 38.9295 39.6466 39.7531 39.5642 39.8084L0 0V19.8458Z" fill="#A2A2A2"/>
<path fill-rule="evenodd" clip-rule="evenodd" d="M0 59.7388H23.8977C23.8732 59.6466 23.8014 59.6051 23.7388 59.5421C23.6701 59.4729 23.6181 59.4207 23.5494 59.3515L0 35.6718V59.7388Z" fill="#A2A2A2"/>
<path fill-rule="evenodd" clip-rule="evenodd" d="M72.9699 32.9611H76.3973V20.3099C76.4936 20.3744 78.0775 23.0436 78.192 23.2357C78.2577 23.3463 78.3173 23.4523 78.3875 23.563L78.7831 24.2114C79.0489 24.6555 79.3086 25.0797 79.5774 25.5284C79.7133 25.7558 79.8355 25.954 79.9699 26.1799L80.3625 26.8314C80.5015 27.0527 80.6175 27.2571 80.755 27.483L81.5538 28.7968C81.6913 29.0258 81.8181 29.2332 81.9555 29.4622C82.09 29.6865 82.2137 29.8894 82.3481 30.1137C82.3893 30.1813 82.6979 30.7514 82.7773 30.7514H84.2894C84.3581 30.7514 84.378 30.6731 84.4116 30.6131C84.4483 30.5501 84.4712 30.5132 84.5093 30.4487L90.4509 20.4697C90.5059 20.376 90.5976 20.1931 90.6709 20.1439V26.5641C90.6709 28.7215 90.6938 30.8037 90.6938 32.9611H94.0984C94.0984 32.8305 94.077 32.8213 94.0739 32.6999C94.0556 32.1021 94.0739 31.1725 94.0739 30.5593V18.4075C94.0739 16.7695 94.051 15.2005 94.051 13.5563H91.1428C91.0756 13.5563 91.094 13.5748 91.0619 13.6178C91.0481 13.6362 91.0115 13.7069 91.0008 13.7238L90.6525 14.3246C89.788 15.7799 88.9357 17.295 88.0697 18.7425L87.3595 19.9534C87.1701 20.3068 86.8554 20.7863 86.6584 21.1504L86.1849 21.9587C85.8565 22.5642 85.351 23.3494 85.0119 23.964C84.9294 24.1116 84.8561 24.2237 84.7751 24.3682L84.0664 25.5806C83.9839 25.7297 83.9106 25.8326 83.8297 25.9847C83.7701 26.0938 83.625 26.2951 83.6021 26.3966C83.5196 26.3351 82.7024 24.9244 82.6322 24.8046C82.1434 23.984 75.9743 13.6685 75.9437 13.5548H72.9653V32.9596L72.9699 32.9611Z" fill="#A2A2A2"/>
<path fill-rule="evenodd" clip-rule="evenodd" d="M102.009 60H101.98C101.592 60 101.137 59.9708 100.788 59.9324C99.6291 59.8079 98.8165 59.6374 97.7168 59.1948C97.1577 58.9704 96.5254 58.6539 96.032 58.3204C95.4257 57.9102 95.3157 57.8395 94.7704 57.3539C94.4283 57.0496 94.2053 56.8176 93.9059 56.4626C93.2644 55.6989 93.1498 55.4515 92.6855 54.6463C92.6061 54.5096 92.5618 54.3743 92.4869 54.2268C91.8897 53.0359 91.5965 51.3318 91.5965 50.0102C91.5965 48.3553 91.96 46.9293 92.4869 45.7937C92.8856 44.9332 93.495 43.9512 94.1426 43.2736L94.9384 42.5052C95.5952 41.992 96.0687 41.6094 96.8507 41.2191C97.1379 41.0762 97.4052 40.9471 97.7106 40.8242C100.678 39.6333 104.22 39.7623 107.071 41.196C107.772 41.5495 108.16 41.8199 108.79 42.2947C109.004 42.4561 109.14 42.6067 109.284 42.7265C110.047 43.3688 111.004 44.6888 111.421 45.5955C111.691 46.1825 111.909 46.7618 112.08 47.4517C112.484 49.076 112.479 50.963 112.076 52.5887C111.99 52.9314 111.9 53.2556 111.783 53.5538C111.492 54.2898 111.361 54.5741 110.971 55.2349C110.811 55.5068 110.649 55.7389 110.466 55.9863L109.756 56.8407C109.597 57.022 109.119 57.4492 108.943 57.5921L108.603 57.8671C108.092 58.2513 107.627 58.5448 107.055 58.8321C106.774 58.9735 106.516 59.0918 106.208 59.2163C105.549 59.4806 104.492 59.7818 103.718 59.874C103.409 59.9109 102.889 59.9754 102.588 59.9739C102.372 59.9723 102.232 59.9969 102.007 59.9969M95.2118 50.0087C95.2118 49.7398 95.2439 49.4786 95.2592 49.2235C95.2989 48.5566 95.5234 47.7683 95.7663 47.189C96.1557 46.2577 96.5116 45.8244 97.0982 45.1514L97.4174 44.8533C97.4678 44.8072 97.4846 44.801 97.535 44.758C98.2788 44.1049 99.3801 43.5625 100.361 43.3673C100.597 43.3197 101.184 43.2213 101.454 43.2075C101.899 43.1829 102.575 43.2014 103.031 43.2628C104.402 43.4441 105.798 44.0711 106.742 45.0223L107.339 45.6815L107.842 46.436C108.063 46.8355 108.222 47.1475 108.369 47.5931C109.414 50.7724 108.35 54.3943 105.383 55.9863C104.459 56.4826 103.4 56.8115 102.302 56.8115C101.396 56.8115 101.14 56.8237 100.223 56.6194C99.3954 56.435 98.3903 55.9571 97.7122 55.4116C97.6312 55.347 97.5564 55.2779 97.4785 55.2179C97.3242 55.0981 97.2005 54.949 97.0584 54.8077C95.8258 53.5676 95.2088 51.7482 95.2088 50.0102L95.2118 50.0087Z" fill="#A2A2A2"/>
<path fill-rule="evenodd" clip-rule="evenodd" d="M108.073 32.9611H111.665V27.3247C112.112 27.3247 112.485 27.3001 112.917 27.3001H116.464C116.605 27.3001 116.666 27.2786 116.771 27.2771C116.792 27.36 117.038 27.6873 117.102 27.7765L120.632 32.8812C120.675 32.9411 120.68 32.9534 120.765 32.9611C120.875 32.9719 121.071 32.9611 121.191 32.9611H124.549C124.53 32.8904 124.336 32.643 124.284 32.5616C124.234 32.4863 124.196 32.4341 124.147 32.3664C124.099 32.2988 124.064 32.2404 124.011 32.1698L120.128 26.5871C120.447 26.4334 120.582 26.4104 120.971 26.1983C121.923 25.6836 122.627 25.0351 123.224 24.1377C123.446 23.8058 123.71 23.2787 123.837 22.8976C123.942 22.5795 124.028 22.2737 124.098 21.9234C124.309 20.8662 124.249 19.5554 123.996 18.5335C123.872 18.0326 123.702 17.6223 123.493 17.2074C123.443 17.106 123.388 17.0169 123.33 16.92C122.926 16.2455 122.45 15.723 121.821 15.2282C121.645 15.0899 121.468 14.9839 121.288 14.8609C121.21 14.8087 121.089 14.7395 121.003 14.695C119.943 14.1449 119.125 13.8652 117.917 13.6854C117.388 13.607 116.818 13.5532 116.227 13.5532H108.073V32.9611ZM116.11 24.3282H111.666V16.5989C113.107 16.5989 115.968 16.5328 117.289 16.7218C118.434 16.8847 119.528 17.4548 120.119 18.4398C120.544 19.1482 120.602 19.8228 120.602 20.6894C120.602 21.7897 120.11 22.787 119.274 23.4216C118.445 24.0516 117.216 24.3282 116.11 24.3282Z" fill="#A2A2A2"/>
<path fill-rule="evenodd" clip-rule="evenodd" d="M72.9699 59.7142H76.5623V54.1254H80.5335C82.7635 54.1254 84.9431 53.7827 86.6416 52.495C88.8548 50.817 89.4826 48.2031 88.9587 45.5309C88.8517 44.9854 88.6868 44.6166 88.4836 44.131C88.3508 43.8145 87.9704 43.2628 87.7642 43.0001C87.4924 42.6543 87.1686 42.3408 86.8249 42.0658C85.3265 40.8657 83.1988 40.3094 81.1491 40.3094H72.9699V59.7142ZM80.8176 51.0582H76.5623V43.4242C76.5623 43.3689 76.5791 43.3535 76.6326 43.3535H80.0371C82.0564 43.3535 83.9305 43.5164 84.963 45.1037C85.2456 45.5386 85.4945 46.2839 85.4976 46.8248C85.4976 47.0153 85.5388 47.1536 85.5174 47.3457C85.5006 47.5009 85.4899 47.7068 85.4716 47.8712C85.3754 48.7394 84.9538 49.5247 84.2971 50.0671C83.4921 50.7325 82.2763 51.0598 80.8161 51.0598L80.8176 51.0582Z" fill="#A2A2A2"/>
<path fill-rule="evenodd" clip-rule="evenodd" d="M150.998 59.7142H147.24C147.189 59.4944 146.856 58.806 146.76 58.5786L146.041 56.9006C145.934 56.6501 145.372 55.4177 145.324 55.2179H135.68C135.644 55.3793 134.185 58.7707 134.018 59.1595C133.945 59.33 133.831 59.5329 133.789 59.7127H130.078C130.313 59.2655 130.916 57.8441 131.165 57.2878L131.982 55.47C132.03 55.3547 132.066 55.2671 132.118 55.1549L132.662 53.9425C132.709 53.8396 132.749 53.7428 132.796 53.649L133.34 52.4351C133.432 52.2292 133.511 52.0356 133.609 51.825C133.704 51.6207 133.797 51.4209 133.884 51.2227L134.837 49.0898C134.884 48.9776 134.929 48.8916 134.968 48.7948C135.051 48.5919 135.144 48.3875 135.24 48.1878L135.922 46.6619C135.961 46.5635 136.006 46.4775 136.053 46.3669L137.006 44.234C137.047 44.1418 137.092 44.0404 137.139 43.9405C137.235 43.7407 137.328 43.5363 137.411 43.3335L137.683 42.7281C137.895 42.3055 138.291 41.3666 138.494 40.9056C138.572 40.7289 138.709 40.503 138.753 40.3109H142.298C142.329 40.3678 142.343 40.4169 142.37 40.4769L143.795 43.6562C143.841 43.7561 143.884 43.8575 143.93 43.9497C143.979 44.0465 144.027 44.1602 144.072 44.2586C144.116 44.3585 144.162 44.4507 144.205 44.5536L145.019 46.3745C145.069 46.476 145.112 46.582 145.161 46.6834L146.925 50.6157C147.023 50.8262 147.101 51.0198 147.194 51.2257C147.282 51.424 147.374 51.6222 147.469 51.8281L147.741 52.4351C147.777 52.5242 147.834 52.6579 147.88 52.747C148.124 53.2403 148.31 53.7597 148.558 54.2529L150.937 59.5636C150.968 59.6297 150.983 59.6404 151 59.7142M140.481 43.9466H140.528C140.536 44.0419 140.698 44.3707 140.74 44.4706L142.77 49.205C142.845 49.391 142.917 49.5493 142.996 49.7383C143.132 50.0625 144.089 52.2461 144.121 52.3874H137.36C137.191 52.3874 137.099 52.3644 136.911 52.3644L139.143 47.1183C139.292 46.7602 139.433 46.4237 139.59 46.0703C139.748 45.7153 139.887 45.3788 140.038 45.0223C140.105 44.8655 140.473 44.0327 140.481 43.9451V43.9466Z" fill="#A2A2A2"/>
<path fill-rule="evenodd" clip-rule="evenodd" d="M129.842 56.6732C129.45 56.6732 120.169 56.7054 119.751 56.6563V40.3078H116.186L116.18 59.7127H129.842V56.6716V56.6732Z" fill="#A2A2A2"/>
<path fill-rule="evenodd" clip-rule="evenodd" d="M51.9498 59.7326L65.9729 59.7388V45.6354L51.9498 59.7326Z" fill="#A2A2A2"/>
<path d="M102.872 13.5548H99.2793V32.9596H102.872V13.5548Z" fill="#A2A2A2"/>
<path fill-rule="evenodd" clip-rule="evenodd" d="M129.842 56.6732C129.806 56.647 129.85 56.6639 129.791 56.6516C129.765 56.6455 129.752 56.6455 129.726 56.644H128.614C125.668 56.6455 122.72 56.6455 119.774 56.6455V40.8073C119.774 40.7197 119.774 40.6321 119.774 40.546C119.774 40.5091 119.777 40.4615 119.774 40.4262C119.774 40.4016 119.774 40.3862 119.768 40.3616C119.756 40.3002 119.765 40.3355 119.751 40.3094V56.6578C120.169 56.707 129.45 56.6747 129.842 56.6747" fill="#A2A2A2"/>
</svg>
