<svg width="210" height="54" viewBox="0 0 210 54" fill="none" xmlns="http://www.w3.org/2000/svg">
<g clip-path="url(#clip0_403_13304)">
<mask id="mask0_403_13304" style="mask-type:luminance" maskUnits="userSpaceOnUse" x="0" y="0" width="210" height="54">
<path d="M209.499 0.5H0V53.5H209.499V0.5Z" fill="white"/>
</mask>
<g mask="url(#mask0_403_13304)">
<path fill-rule="evenodd" clip-rule="evenodd" d="M0 27.0788L41.1587 53.5C42.0703 47.1103 36.3328 43.3392 36.2792 42.7862C36.2166 42.0791 40.8469 40.3162 41.1883 35.4783C41.7654 27.4028 31.0546 26.889 30.6872 32.9278C30.4914 36.0852 33.8946 36.1567 34.0004 33.812C34.1477 30.6727 37.2981 31.2651 37.7867 34.7982C38.2805 38.3367 34.2881 39.8347 32.6921 39.7882C30.2072 39.7095 26.9008 37.619 26.6012 34.5298C26.187 30.2754 30.8414 29.7258 24.837 30.2504C22.4787 30.4544 20.7579 29.1531 19.6628 27.0591C21.0231 25.1117 22.4787 23.7587 24.837 23.9662C30.8414 24.4942 26.187 23.9394 26.6012 19.6439C26.9008 16.5278 30.2072 14.414 32.6921 14.3371C34.2881 14.2869 38.2805 15.7993 37.7867 19.3736C37.2981 22.9372 34.1477 23.5349 34.0004 20.3687C33.8946 17.9991 30.4914 18.0741 30.6872 21.2619C31.0546 27.3544 41.7654 26.839 41.1883 18.6862C40.8521 13.9003 36.3917 12.0926 36.2809 11.3499C36.2236 10.9579 42.0512 6.81804 41.1587 0.494629" fill="#B9966E"/>
<path d="M205.191 34.6868C204.508 35.0376 203.488 35.2721 202.429 35.2721C199.745 35.2721 198.156 34.1014 198.156 31.3666C198.156 27.54 200.841 26.5629 205.191 26.0151V34.6868ZM209.499 36.405V23.359C209.499 17.9305 206.173 16.096 201.976 16.096C198.761 16.096 196.304 17.0338 194.979 17.6961L196.039 20.4309C197.286 19.8062 199.176 19.1422 201.144 19.1422C203.526 19.1422 205.191 19.8832 205.191 22.618V23.751C198.988 24.3756 193.808 25.9775 193.808 31.5223C193.808 35.5853 196.566 37.928 202.126 37.928C205.304 37.928 207.873 37.3035 209.499 36.405ZM189.875 37.538V22.5393C189.875 19.1422 187.869 16.096 181.783 16.096C178.341 16.096 175.734 16.6812 173.804 17.6191V37.538H178.418V19.6881C179.286 19.3373 180.081 19.1028 181.593 19.1028C184.506 19.1028 185.263 20.8998 185.263 22.618V37.538H189.875ZM164.577 34.6868C163.898 35.0376 162.876 35.2721 161.818 35.2721C159.133 35.2721 157.545 34.1014 157.545 31.3666C157.545 27.54 160.228 26.5629 164.577 26.0151V34.6868ZM168.891 36.405V23.359C168.891 17.9305 165.561 16.096 161.364 16.096C158.149 16.096 155.692 17.0338 154.369 17.6961L155.427 20.4309C156.675 19.8062 158.566 19.1422 160.532 19.1422C162.916 19.1422 164.577 19.8832 164.577 22.618V23.751C158.376 24.3756 153.195 25.9775 153.195 31.5223C153.195 35.5853 155.956 37.928 161.517 37.928C164.691 37.928 167.263 37.3035 168.891 36.405ZM150.322 37.3429V34.3736C149.945 34.4917 149.641 34.5687 149.225 34.5687C147.638 34.5687 146.995 33.475 146.995 31.8339V19.5324H150.322V16.4861H146.995V10.5099L142.381 11.838V16.4861H140.112V19.5324H142.381V32.0701C142.381 34.9981 143.97 37.7724 147.978 37.7724C149.075 37.7724 149.907 37.538 150.322 37.3429ZM137.352 31.4829C137.352 29.0237 136.446 26.9137 132.474 25.2741C130.698 24.5313 129.45 23.6722 129.45 21.954C129.45 20.4702 130.471 19.1816 132.36 19.1816C133.798 19.1816 135.007 19.8456 135.612 20.3521L136.747 17.5797C135.423 16.6812 133.723 16.096 131.453 16.096C127.558 16.096 124.988 18.829 124.988 22.1885C124.988 24.3756 125.782 26.5629 129.639 28.0859C131.718 28.9056 132.626 29.7647 132.626 31.5617C132.626 33.2799 131.377 34.5311 129.488 34.5311C127.823 34.5311 126.425 33.9458 125.669 33.3194L124.458 36.3655C125.669 37.2248 127.71 37.8888 130.093 37.8888C134.553 37.8888 137.352 34.9213 137.352 31.4829ZM116.48 34.6868C115.799 35.0376 114.778 35.2721 113.719 35.2721C111.035 35.2721 109.446 34.1014 109.446 31.3666C109.446 27.54 112.13 26.5629 116.48 26.0151V34.6868ZM120.789 36.405V23.359C120.789 17.9305 117.462 16.096 113.265 16.096C110.051 16.096 107.594 17.0338 106.27 17.6961L107.328 20.4309C108.576 19.8062 110.467 19.1422 112.434 19.1422C114.814 19.1422 116.48 19.8832 116.48 22.618V23.751C110.278 24.3756 105.096 25.9775 105.096 31.5223C105.096 35.5853 107.857 37.928 113.416 37.928C116.594 37.928 119.164 37.3035 120.789 36.405ZM92.7707 16.1353C87.6276 15.9778 85.056 16.5631 82.9385 17.6191V37.538H87.5514V19.7669C88.6119 19.1422 90.3118 19.0635 91.8627 19.6111L92.7707 16.1353ZM77.8716 37.538V16.4861H73.2587V37.538H77.8716ZM78.0987 10.5099C78.0987 9.18368 77.0018 8.12769 75.5653 8.12769C74.1668 8.12769 73.0318 9.18368 73.0318 10.5099C73.0318 11.7986 74.1668 12.8546 75.5653 12.8546C77.0018 12.8546 78.0987 11.7986 78.0987 10.5099ZM63.8806 34.6868C63.1996 35.0376 62.1789 35.2721 61.1201 35.2721C58.4359 35.2721 56.8468 34.1014 56.8468 31.3666C56.8468 27.54 59.531 26.5629 63.8806 26.0151V34.6868ZM68.1902 36.405V23.359C68.1902 17.9305 64.8649 16.096 60.6662 16.096C57.4517 16.096 54.9944 17.0338 53.6706 17.6961L54.7293 20.4309C55.977 19.8062 57.8694 19.1422 59.8344 19.1422C62.217 19.1422 63.8806 19.8832 63.8806 22.618V23.751C57.6786 24.3756 52.4992 25.9775 52.4992 31.5223C52.4992 35.5853 55.2597 37.928 60.8187 37.928C63.9949 37.928 66.5648 37.3035 68.1902 36.405Z" fill="#A1A1A1"/>
</g>
</g>
<defs>
<clipPath id="clip0_403_13304">
<rect width="210" height="53" fill="white" transform="translate(0 0.5)"/>
</clipPath>
</defs>
</svg>
