<svg width="252" height="38" viewBox="0 0 252 38" fill="none" xmlns="http://www.w3.org/2000/svg">
<g clip-path="url(#clip0_403_13311)">
<path d="M112.228 11.3809L117.464 7.56195H99.93V30.438H117.464V26.6189H104.941V20.778H115.644V16.959H104.941V11.3809H112.228ZM86.6848 16.4729H80.6127V11.3809H90.3283L95.5658 7.56195H75.6032V30.438H86.0395C91.8837 30.438 95.2624 27.8175 95.2624 23.2496C95.2624 18.8685 92.2256 16.4729 86.6848 16.4729ZM85.8501 26.6189H80.6127V20.2919H85.8501C89.0378 20.2919 90.5178 21.3401 90.5178 23.4744C90.5178 25.6072 88.9239 26.6189 85.8501 26.6189ZM131.66 7.56195H122.132V30.438H127.141V23.9605H131.695C137.769 23.9605 141.563 20.816 141.563 15.762C141.563 10.708 137.77 7.56195 131.66 7.56195ZM131.546 20.1415H127.104V11.3809H131.546C134.772 11.3809 136.517 12.9532 136.517 15.762C136.517 18.5693 134.772 20.1415 131.546 20.1415ZM67.0256 25.4948C65.6966 26.2073 64.2167 26.5809 62.6982 26.5809C58.1831 26.5809 54.9183 23.3984 54.9183 19.0189C54.9183 14.6379 58.1815 11.4554 62.6982 11.4554C64.3327 11.4317 65.931 11.9311 67.2535 12.8788L70.8585 10.2584L70.6306 10.0335C68.544 8.19845 65.7351 7.2627 62.5474 7.2627C59.0932 7.2627 55.9424 8.42328 53.6664 10.5196C52.5322 11.5986 51.6364 12.8972 51.0354 14.334C50.4343 15.7707 50.1409 17.3146 50.1737 18.8685C50.1524 20.4433 50.4505 22.0064 51.0503 23.466C51.6501 24.9255 52.5395 26.2522 53.6664 27.3679C56.058 29.5766 59.2441 30.8116 62.5088 30.7372C66.1139 30.7372 69.2647 29.5022 71.3898 27.2539L68.1636 24.8963L67.0256 25.4948ZM201.796 7.59995V30.4744H206.805V21.1153H217.471V30.4744H222.481V7.59995H217.471V16.997H206.805V7.59995H201.796ZM193.181 30.4744H198.456L188.665 7.59995H183.578L173.597 30.4744H178.646L180.657 25.87H191.282L193.181 30.4744ZM182.175 22.051L186.045 12.8788L189.689 22.051H182.175ZM233.715 21.2277H236.827L244.493 30.438H250.945L240.698 18.6073L249.655 7.56195H243.923L236.485 17.3707H233.715V7.56195H228.705V30.438H233.715V21.2277ZM157.049 16.5094V11.4205H170.143V7.59995H152.039V30.4744H162.477C168.322 30.4744 171.699 27.8539 171.699 23.286C171.699 18.9065 168.663 16.5094 163.123 16.5094H157.049ZM157.049 26.6569V20.3284H162.286C165.476 20.3284 166.956 21.3765 166.956 23.5109C166.956 25.6452 165.399 26.6934 162.286 26.6934H157.049V26.6554V26.6569ZM34.4999 7.41311C35.41 8.5737 36.1692 9.8467 36.8145 11.1941L19.2804 23.9605L11.9178 19.3926V13.9269L19.2419 18.4569L34.4999 7.41311Z" fill="#A1A1A1"/>
<path d="M4.4413 19.0189C4.4413 18.7561 4.4413 18.5312 4.47822 18.27L0.0385223 18.0452C0.0385223 18.346 0 18.6817 0 18.9809C0 24.2217 2.16367 28.9781 5.65475 32.4218L8.80555 29.3137C7.41957 27.971 6.31944 26.3687 5.56972 24.6008C4.82001 22.833 4.43742 20.9352 4.4413 19.0189Z" fill="url(#paint0_linear_403_13311)"/>
<path d="M19.2419 4.41759C19.5067 4.41759 19.7346 4.41759 20.0011 4.45559L20.229 0.0745026C19.924 0.0745026 19.5838 0.0380859 19.2804 0.0380859C13.9675 0.0380859 9.14583 2.17084 5.65314 5.61617L8.80555 8.72267C10.1692 7.35876 11.794 6.2758 13.5856 5.53675C15.3773 4.79769 17.2999 4.41726 19.2419 4.41759Z" fill="url(#paint1_linear_403_13311)"/>
<path d="M19.2419 33.6188C18.977 33.6188 18.7491 33.6188 18.4827 33.5824L18.2548 37.9619C18.5597 37.9619 18.9 37.9999 19.205 37.9999C24.5178 37.9999 29.3379 35.8656 32.829 32.4218L29.6798 29.3137C27.0234 32.0101 23.3413 33.6188 19.2419 33.6188Z" fill="url(#paint2_linear_403_13311)"/>
<path d="M27.5916 6.9635L31.3491 4.23067C27.9222 1.49674 23.6492 0.00360693 19.2419 0V4.38108C22.3558 4.4175 25.2385 5.35325 27.5916 6.9635Z" fill="url(#paint3_linear_403_13311)"/>
<path d="M38.5223 19.0189C38.5223 17.8583 38.4083 16.7342 38.2173 15.6116L34.081 18.6437V19.0189C34.0828 21.0605 33.6477 23.0796 32.8041 24.9439C31.9605 26.8082 30.7274 28.4759 29.1855 29.8378L32.1838 33.0963C34.18 31.3176 35.7756 29.1454 36.8675 26.7203C37.9593 24.2951 38.5231 21.6709 38.5223 19.0173V19.0189Z" fill="#21A038"/>
<path d="M19.2419 33.619C17.1722 33.6208 15.1254 33.1915 13.2354 32.3594C11.3455 31.5272 9.6549 30.3108 8.27427 28.7898L4.97259 31.7475C6.77234 33.72 8.97323 35.2962 11.4318 36.3736C13.8905 37.4509 16.5516 38.0051 19.2419 38V33.619Z" fill="url(#paint4_linear_403_13311)"/>
<path d="M9.33684 8.19857L6.33852 4.94165C4.33899 6.71706 2.7411 8.88813 1.64897 11.3134C0.556842 13.7387 -0.00501702 16.3637 2.82451e-06 19.0175H4.4413C4.4434 16.9765 4.88029 14.9587 5.72365 13.0949C6.56701 11.2311 7.79801 9.56295 9.33684 8.19857Z" fill="url(#paint5_linear_403_13311)"/>
</g>
<defs>
<linearGradient id="paint0_linear_403_13311" x1="6.56805" y1="31.8882" x2="1.8235" y2="17.9846" gradientUnits="userSpaceOnUse">
<stop offset="0.144" stop-color="#F2E913"/>
<stop offset="0.304" stop-color="#E7E518"/>
<stop offset="0.582" stop-color="#CADB26"/>
<stop offset="0.891" stop-color="#A3CD39"/>
</linearGradient>
<linearGradient id="paint1_linear_403_13311" x1="6.92117" y1="6.38092" x2="19.4003" y2="1.55869" gradientUnits="userSpaceOnUse">
<stop offset="0.059" stop-color="#0FA8E0"/>
<stop offset="0.538" stop-color="#0099F9"/>
<stop offset="0.923" stop-color="#0291EB"/>
</linearGradient>
<linearGradient id="paint2_linear_403_13311" x1="17.9947" y1="35.3241" x2="32.1375" y2="32.0839" gradientUnits="userSpaceOnUse">
<stop offset="0.123" stop-color="#A3CD39"/>
<stop offset="0.285" stop-color="#86C339"/>
<stop offset="0.869" stop-color="#21A038"/>
</linearGradient>
<linearGradient id="paint3_linear_403_13311" x1="18.3302" y1="1.47725" x2="30.4084" y2="5.25617" gradientUnits="userSpaceOnUse">
<stop offset="0.057" stop-color="#0291EB"/>
<stop offset="0.79" stop-color="#0C8ACB"/>
</linearGradient>
<linearGradient id="paint4_linear_403_13311" x1="6.10097" y1="31.2012" x2="19.2359" y2="36.1765" gradientUnits="userSpaceOnUse">
<stop offset="0.132" stop-color="#F2E913"/>
<stop offset="0.298" stop-color="#EBE716"/>
<stop offset="0.531" stop-color="#D9E01F"/>
<stop offset="0.802" stop-color="#BBD62D"/>
<stop offset="0.983" stop-color="#A3CD39"/>
</linearGradient>
<linearGradient id="paint5_linear_403_13311" x1="1.66609" y1="19.5479" x2="6.83192" y2="5.92516" gradientUnits="userSpaceOnUse">
<stop offset="0.07" stop-color="#A3CD39"/>
<stop offset="0.26" stop-color="#81C55F"/>
<stop offset="0.922" stop-color="#0FA8E0"/>
</linearGradient>
<clipPath id="clip0_403_13311">
<rect width="252" height="38" fill="white"/>
</clipPath>
</defs>
</svg>
