<svg width="197" height="36" viewBox="0 0 197 36" fill="none" xmlns="http://www.w3.org/2000/svg">
<g clip-path="url(#clip0_403_13320)">
<path d="M44.0212 28.2138C44.6293 28.1034 45.2466 28.0502 45.8649 28.0548C46.6292 27.9856 47.3935 28.1874 48.0216 28.6241C48.2347 28.7814 48.4055 28.9881 48.519 29.226C48.6326 29.464 48.6854 29.7259 48.6728 29.9887C48.6538 30.3696 48.5158 30.7351 48.278 31.035C48.0402 31.335 47.7141 31.5544 47.345 31.6632C47.7988 31.7536 48.2072 31.9962 48.5015 32.35C48.7957 32.7038 48.9578 33.1472 48.9603 33.6055C48.9657 33.8961 48.9098 34.1847 48.7962 34.4528C48.6826 34.7209 48.5138 34.9627 48.3007 35.1627C47.5155 35.7241 46.5493 35.9803 45.5858 35.8827C45.0627 35.8885 44.5399 35.8577 44.0212 35.7906V28.2138ZM45.0276 31.3952H45.9495C47.0236 31.3952 47.641 30.8427 47.641 30.0976C47.641 29.185 46.939 28.825 45.9495 28.825C45.6487 28.8149 45.3478 28.8402 45.053 28.9003L45.0276 31.3952ZM45.0276 35.1125C45.3078 35.1505 45.5906 35.1673 45.8734 35.1627C46.9221 35.1627 47.8862 34.7776 47.8862 33.6557C47.8862 32.5338 46.9644 32.1571 45.8565 32.1571H45.0107L45.0276 35.1125ZM59.3546 31.9143C59.3546 34.585 57.7138 35.9999 55.7094 35.9999C53.705 35.9999 52.1826 34.4092 52.1826 32.065C52.1826 29.7208 53.7304 27.9878 55.8278 27.9878C57.9253 27.9878 59.3546 29.612 59.3546 31.9143ZM53.2652 32.0399C53.2652 33.7143 54.1786 35.1878 55.8024 35.1878C57.4263 35.1878 58.3397 33.7227 58.3397 31.9562C58.3397 30.4157 57.4939 28.8083 55.8024 28.8083C54.1109 28.8083 53.2652 30.332 53.2652 32.0399ZM62.9913 28.2138C63.6336 28.1032 64.2846 28.05 64.9365 28.0548C65.7466 27.9709 66.5581 28.1987 67.2031 28.691C67.4069 28.8784 67.5674 29.107 67.674 29.3612C67.7805 29.6155 67.8305 29.8895 67.8205 30.1645C67.8255 30.6087 67.6835 31.0422 67.4163 31.3989C67.1491 31.7557 66.7712 32.0161 66.3405 32.1403V32.1822C66.6558 32.318 66.9287 32.5347 67.1309 32.8099C67.3332 33.0852 67.4574 33.409 67.4907 33.7478C67.6329 34.4723 67.8366 35.1837 68.0996 35.8743H67.0509C66.8168 35.2756 66.6412 34.656 66.5265 34.0241C66.2982 32.9524 65.8753 32.5506 64.9619 32.5087H64.0062V35.8576H62.9913V28.2138ZM64.0062 31.7552H65.038C66.1206 31.7552 66.8056 31.1608 66.8056 30.2817C66.8056 29.4027 66.0783 28.8417 65.0042 28.825C64.669 28.8175 64.3342 28.8484 64.0062 28.9171V31.7552ZM71.5756 35.8743V28.1134H72.6836L75.2208 32.0399C75.7441 32.8456 76.2131 33.6846 76.6248 34.5515C76.5317 33.5134 76.5063 32.5673 76.5063 31.3617V28.1134H77.4536V35.8743H76.4387L73.9522 31.9394C73.4078 31.1053 72.9164 30.2385 72.4806 29.3441C72.5398 30.3152 72.5652 31.2529 72.5652 32.5422V35.8911L71.5756 35.8743ZM86.3509 28.1134H90.5796V28.9506H87.3742V31.5376H90.3343V32.3748H87.3742V35.8827H86.3593L86.3509 28.1134ZM101.041 31.9143C101.041 34.585 99.4007 35.9999 97.4048 35.9999C95.4088 35.9999 93.878 34.4092 93.878 32.065C93.878 29.7208 95.4257 27.9878 97.5147 27.9878C99.6037 27.9878 101.041 29.612 101.041 31.9143ZM94.9606 32.0399C94.9606 33.7143 95.8655 35.1794 97.4555 35.1794C99.0455 35.1794 99.9928 33.7227 99.9928 31.9562C99.9928 30.4157 99.147 28.7999 97.4978 28.7999C95.8486 28.7999 94.9606 30.332 94.9606 32.0399ZM104.678 28.2138C105.321 28.1036 105.972 28.0503 106.623 28.0548C107.434 27.97 108.245 28.1979 108.89 28.691C109.094 28.8784 109.254 29.107 109.361 29.3612C109.467 29.6155 109.517 29.8895 109.507 30.1645C109.513 30.6076 109.372 31.0403 109.107 31.3969C108.841 31.7535 108.465 32.0146 108.036 32.1403V32.1822C108.35 32.3194 108.622 32.5365 108.824 32.8115C109.026 33.0865 109.151 33.4095 109.186 33.7478C109.323 34.4727 109.524 35.1843 109.787 35.8743H108.746C108.508 35.277 108.332 34.657 108.222 34.0241C107.985 32.9524 107.571 32.5506 106.649 32.5087H105.693V35.8576H104.678V28.2138ZM105.693 31.7552H106.733C107.807 31.7552 108.501 31.1608 108.501 30.2817C108.501 29.4027 107.765 28.8417 106.691 28.825C106.356 28.818 106.021 28.8489 105.693 28.9171V31.7552ZM124.663 32.4669C124.612 31.3869 124.536 30.0808 124.553 29.118C124.283 30.0222 123.953 30.9934 123.564 32.065L122.177 35.8324H121.407L120.138 32.132C119.766 31.0352 119.453 30.039 119.234 29.118C119.234 30.0808 119.157 31.3869 119.081 32.5506L118.878 35.8994H117.906L118.455 28.1385H119.749L121.086 31.8892C121.407 32.852 121.678 33.6976 121.872 34.5097H121.915C122.109 33.7227 122.388 32.8352 122.76 31.8892L124.156 28.1385H125.45L125.94 35.8994H124.951L124.663 32.4669ZM136.436 31.9143C136.436 34.585 134.795 35.9999 132.799 35.9999C130.803 35.9999 129.273 34.4092 129.273 32.065C129.273 29.7208 130.82 27.9878 132.918 27.9878C135.015 27.9878 136.436 29.612 136.436 31.9143ZM130.355 32.0399C130.355 33.7143 131.26 35.1794 132.892 35.1794C134.525 35.1794 135.43 33.7227 135.43 31.9562C135.43 30.4157 134.584 28.7999 132.892 28.7999C131.201 28.7999 130.355 30.332 130.355 32.0399ZM140.039 28.2138C140.687 28.1033 141.344 28.05 142.001 28.0548C142.816 27.97 143.634 28.1977 144.285 28.691C144.489 28.878 144.651 29.1063 144.759 29.3605C144.867 29.6147 144.919 29.8889 144.91 30.1645C144.913 30.6094 144.77 31.0431 144.501 31.3997C144.232 31.7563 143.854 32.0164 143.422 32.1403V32.1822C143.738 32.3175 144.012 32.5339 144.216 32.8092C144.42 33.0844 144.546 33.4084 144.581 33.7478C144.719 34.4733 144.922 35.185 145.19 35.8743H144.132C143.898 35.2756 143.723 34.656 143.608 34.0241C143.371 32.9524 142.948 32.5506 142.026 32.5087H141.062V35.8576H140.039V28.2138ZM141.062 31.7552H142.103C143.194 31.7552 143.887 31.1608 143.887 30.2817C143.887 29.4027 143.151 28.8417 142.069 28.825C141.731 28.8177 141.393 28.8486 141.062 28.9171V31.7552ZM152.725 32.2325H149.647V35.0371H153.072V35.8743H148.632V28.1134H152.86V28.9506H149.613V31.4036H152.725V32.2325Z" fill="#666666"/>
<path d="M43.9112 28.214C44.5222 28.1036 45.1423 28.0503 45.7634 28.0549C46.5252 27.9841 47.2875 28.1861 47.9116 28.6242C48.1274 28.7796 48.3007 28.9857 48.4158 29.2239C48.531 29.4622 48.5844 29.7251 48.5713 29.9889C48.5511 30.3693 48.4127 30.7343 48.175 31.034C47.9373 31.3337 47.612 31.5535 47.2435 31.6633C47.6973 31.7538 48.1058 31.9963 48.4 32.3501C48.6942 32.7039 48.8563 33.1473 48.8589 33.6056C48.8621 33.896 48.8053 34.184 48.6918 34.4518C48.5784 34.7196 48.4107 34.9616 48.1992 35.1628C47.4133 35.7228 46.4477 35.9789 45.4843 35.8828C44.9584 35.8888 44.4327 35.8581 43.9112 35.7907V28.214ZM44.9261 31.3954H45.848C46.9136 31.3954 47.5395 30.8428 47.5395 30.0977C47.5395 29.1851 46.846 28.8251 45.848 28.8251C45.5472 28.8144 45.2462 28.8397 44.9515 28.9005L44.9261 31.3954ZM44.9261 35.1126C45.2063 35.1512 45.4891 35.168 45.7719 35.1628C46.8206 35.1628 47.7848 34.7777 47.7848 33.6558C47.7848 32.534 46.8713 32.1572 45.7634 32.1572H44.9177L44.9261 35.1126Z" fill="url(#paint0_linear_403_13320)"/>
<path d="M59.2446 31.9143C59.2446 34.585 57.6039 35.9999 55.6079 35.9999C53.6119 35.9999 52.0811 34.4092 52.0811 32.065C52.0811 29.7208 53.6289 27.9878 55.7179 27.9878C57.8069 27.9878 59.2446 29.612 59.2446 31.9143ZM53.1637 32.0399C53.1637 33.7143 54.0687 35.1878 55.7009 35.1878C57.3332 35.1878 58.2382 33.7227 58.2382 31.9562C58.2382 30.4157 57.3924 28.8083 55.7009 28.8083C54.0094 28.8083 53.1637 30.332 53.1637 32.0399Z" fill="url(#paint1_linear_403_13320)"/>
<path d="M62.8898 28.2138C63.5292 28.1032 64.1775 28.0499 64.8266 28.0548C65.6388 27.9756 66.4513 28.2028 67.1016 28.691C67.3025 28.8801 67.4607 29.1092 67.5656 29.3632C67.6706 29.6172 67.72 29.8903 67.7106 30.1645C67.7161 30.6076 67.5753 31.0403 67.3097 31.3969C67.0441 31.7535 66.6681 32.0146 66.239 32.1403V32.1822C66.5533 32.3194 66.8252 32.5365 67.0273 32.8115C67.2293 33.0865 67.3542 33.4096 67.3892 33.7478C67.5259 34.4727 67.7268 35.1843 67.9897 35.8743H66.9494C66.7153 35.2756 66.5397 34.656 66.425 34.0241C66.1882 32.9524 65.7738 32.5506 64.8519 32.5087H63.9216V35.8576H62.9152L62.8898 28.2138ZM63.9216 31.7552H64.9619C66.0444 31.7552 66.7295 31.1608 66.7295 30.2817C66.7295 29.4027 65.9937 28.8417 64.9281 28.825C64.5901 28.8183 64.2525 28.8491 63.9216 28.9171V31.7552Z" fill="url(#paint2_linear_403_13320)"/>
<path d="M71.4741 35.8745V28.1135H72.5736L75.1108 32.04C75.6367 32.8457 76.1085 33.6848 76.5232 34.5517C76.4302 33.5135 76.4048 32.5675 76.4048 31.3619V28.1135H77.3605V35.8745H76.3372L73.7999 31.9396C73.2632 31.1025 72.7747 30.236 72.3368 29.3442C72.396 30.3154 72.4129 31.2531 72.4129 32.5424V35.8912L71.4741 35.8745Z" fill="url(#paint3_linear_403_13320)"/>
<path d="M86.2409 28.1135H90.4696V28.9507H87.2558V31.5377H90.2244V32.3749H87.2558V35.8828H86.2409V28.1135Z" fill="url(#paint4_linear_403_13320)"/>
<path d="M100.94 31.9143C100.94 34.585 99.2992 35.9999 97.2948 35.9999C95.2904 35.9999 93.768 34.4092 93.768 32.065C93.768 29.7208 95.3158 27.9878 97.4132 27.9878C99.5107 27.9878 100.94 29.612 100.94 31.9143ZM94.8506 32.0399C94.8506 33.7143 95.7556 35.1878 97.3878 35.1878C99.0201 35.1878 99.9251 33.7227 99.9251 31.9562C99.9251 30.4157 99.0793 28.8083 97.3878 28.8083C95.6964 28.8083 94.8506 30.332 94.8506 32.0399Z" fill="url(#paint5_linear_403_13320)"/>
<path d="M104.577 28.2139C105.219 28.1033 105.87 28.0501 106.522 28.0549C107.332 27.9753 108.142 28.2027 108.789 28.6912C108.992 28.8785 109.153 29.1071 109.259 29.3613C109.366 29.6156 109.416 29.8896 109.406 30.1647C109.411 30.6088 109.269 31.0423 109.002 31.3991C108.734 31.7558 108.357 32.0162 107.926 32.1405V32.1823C108.241 32.3181 108.514 32.5348 108.716 32.8101C108.919 33.0853 109.043 33.4091 109.076 33.7479C109.218 34.4724 109.422 35.1838 109.685 35.8744H108.636C108.402 35.2757 108.227 34.6561 108.112 34.0242C107.884 32.9526 107.461 32.5507 106.539 32.5088H105.592V35.8577H104.577V28.2139ZM105.592 31.7554H106.623C107.706 31.7554 108.391 31.1609 108.391 30.2819C108.391 29.4028 107.664 28.8419 106.59 28.8251C106.254 28.8176 105.92 28.8485 105.592 28.9172V31.7554Z" fill="url(#paint6_linear_403_13320)"/>
<path d="M124.562 32.4671C124.503 31.3871 124.435 30.081 124.443 29.1182C124.173 30.0224 123.851 30.9936 123.454 32.0652L122.075 35.8326H121.306L120.037 32.1322C119.665 31.0354 119.352 30.0391 119.132 29.1182C119.132 30.081 119.047 31.3871 118.98 32.5508L118.768 35.8996H117.804L118.354 28.1387H119.639L120.976 31.8894C121.306 32.8522 121.576 33.6978 121.771 34.5098C121.974 33.7229 122.253 32.8354 122.617 31.8894L124.012 28.1387H125.306L125.788 35.8996H124.799L124.562 32.4671Z" fill="url(#paint7_linear_403_13320)"/>
<path d="M136.335 31.9143C136.335 34.585 134.694 35.9999 132.689 35.9999C130.685 35.9999 129.171 34.4092 129.171 32.065C129.171 29.7208 130.719 27.9878 132.808 27.9878C134.897 27.9878 136.335 29.612 136.335 31.9143ZM130.254 32.0399C130.254 33.7143 131.159 35.1878 132.749 35.1878C134.339 35.1878 135.286 33.7227 135.286 31.9562C135.286 30.4157 134.44 28.8083 132.749 28.8083C131.057 28.8083 130.254 30.332 130.254 32.0399Z" fill="url(#paint8_linear_403_13320)"/>
<path d="M139.971 28.214C140.614 28.1038 141.265 28.0505 141.916 28.055C142.726 27.9737 143.537 28.2013 144.183 28.6913C144.387 28.8786 144.547 29.1072 144.654 29.3614C144.76 29.6157 144.81 29.8897 144.8 30.1648C144.805 30.6089 144.663 31.0424 144.396 31.3992C144.129 31.7559 143.751 32.0163 143.32 32.1406V32.1824C143.637 32.3177 143.911 32.5342 144.115 32.8094C144.318 33.0846 144.444 33.4086 144.479 33.748C144.616 34.4729 144.817 35.1845 145.08 35.8745H144.031C143.801 35.2744 143.625 34.6552 143.506 34.0243C143.278 32.9526 142.855 32.5508 141.942 32.5089H140.986V35.8578H139.971V28.214ZM140.986 31.7554H142.018C143.101 31.7554 143.786 31.161 143.786 30.2819C143.786 29.4029 143.058 28.842 141.984 28.8252C141.649 28.8182 141.314 28.8491 140.986 28.9173V31.7554Z" fill="url(#paint9_linear_403_13320)"/>
<path d="M152.615 32.2326H149.57V35.0373H152.953V35.8745H148.539V28.1135H152.767V28.9507H149.545V31.4038H152.59L152.615 32.2326Z" fill="url(#paint10_linear_403_13320)"/>
<path d="M71.102 0L59.3884 8.97488L47.6833 0H39.7417L55.4218 12.0223L39.7417 24.0447H47.6833L59.3884 15.0698L71.102 24.0447H79.0436L63.3634 12.0223L79.0436 0H71.102Z" fill="#666666"/>
<path d="M0.43978 5.1321V18.9126C0.438667 19.5868 0.571999 20.2547 0.832147 20.8778C1.09229 21.501 1.47414 22.0672 1.95578 22.5439C2.43742 23.0207 3.00939 23.3987 3.6389 23.6562C4.26841 23.9137 4.94308 24.0458 5.62422 24.0447H36.198V19.6744H8.948C8.26899 19.6612 7.62242 19.3844 7.14777 18.9035C6.67311 18.4227 6.40841 17.7765 6.41076 17.1042V14.0233H34.0329V9.65302H6.41076V6.94045C6.41063 6.26961 6.67631 5.6255 7.15073 5.14648C7.62515 4.66746 8.27046 4.39174 8.948 4.37859H36.1726V0H5.62422C4.24922 0 2.93053 0.540706 1.95826 1.50316C0.985988 2.46561 0.43978 3.77098 0.43978 5.1321ZM82.5872 5.1321V18.9126C82.5872 20.2737 83.1335 21.579 84.1057 22.5415C85.078 23.5039 86.3967 24.0447 87.7717 24.0447H118.345V19.6744H91.1208C90.7803 19.6744 90.443 19.6079 90.1285 19.4786C89.814 19.3493 89.5283 19.1599 89.2879 18.9211C89.0474 18.6823 88.857 18.3989 88.7274 18.0871C88.5979 17.7753 88.5317 17.4413 88.5329 17.1042V14.0233H116.155V9.65302H88.5329V6.94045C88.5329 6.60402 88.5998 6.2709 88.7299 5.96008C88.8599 5.64926 89.0505 5.36685 89.2908 5.12895C89.5312 4.89106 89.8165 4.70235 90.1305 4.57361C90.4444 4.44486 90.781 4.37859 91.1208 4.37859H118.345V0H87.7717C86.3974 0.00221389 85.08 0.543612 84.1082 1.50559C83.1364 2.46756 82.5895 3.77166 82.5872 5.1321ZM191.816 0H161.242V24.0447H191.816C192.497 24.0458 193.171 23.9137 193.801 23.6562C194.43 23.3987 195.002 23.0207 195.484 22.5439C195.966 22.0672 196.347 21.501 196.608 20.8778C196.868 20.2547 197.001 19.5868 197 18.9126V5.1321C197 3.77098 196.454 2.46561 195.482 1.50316C194.509 0.540706 193.191 0 191.816 0ZM191.054 17.1126C191.054 17.792 190.782 18.4436 190.296 18.9241C189.811 19.4045 189.153 19.6744 188.466 19.6744H167.187V4.37859H188.466C189.153 4.37859 189.811 4.64851 190.296 5.12895C190.782 5.6094 191.054 6.261 191.054 6.94045V17.1126ZM121.94 5.1321V18.9126C121.94 20.2737 122.486 21.579 123.458 22.5415C124.431 23.5039 125.749 24.0447 127.124 24.0447H157.698V19.6744H130.473C130.133 19.6744 129.796 19.6079 129.481 19.4786C129.167 19.3493 128.881 19.1599 128.641 18.9211C128.4 18.6823 128.21 18.3989 128.08 18.0871C127.951 17.7753 127.884 17.4413 127.885 17.1042V14.0233H155.508V9.65302H127.885V6.94045C127.885 6.60402 127.952 6.2709 128.082 5.96008C128.213 5.64926 128.403 5.36685 128.643 5.12895C128.884 4.89106 129.169 4.70235 129.483 4.57361C129.797 4.44486 130.134 4.37859 130.473 4.37859H157.698V0H127.124C125.75 0.00221389 124.433 0.543612 123.461 1.50559C122.489 2.46756 121.942 3.77166 121.94 5.1321Z" fill="#666666"/>
<path d="M70.6622 0L58.9571 8.97488L47.2435 0H39.3019L54.9821 12.0223L39.3019 24.0447H47.2435L58.9571 15.0698L70.6622 24.0447H78.6038L62.9236 12.0223L78.6038 0H70.6622Z" fill="url(#paint11_linear_403_13320)"/>
<path d="M0 5.1321V18.9126C0 20.2737 0.54622 21.579 1.51849 22.5415C2.49076 23.5039 3.80944 24.0447 5.18444 24.0447H35.7582V19.6744H8.54206C8.20077 19.6755 7.86263 19.6098 7.54711 19.481C7.23159 19.3522 6.94492 19.163 6.7036 18.9241C6.46227 18.6852 6.27106 18.4014 6.14097 18.0891C6.01089 17.7767 5.94449 17.442 5.9456 17.1042V14.0233H33.5677V9.65302H5.9456V6.94045C5.9456 6.60331 6.01283 6.26951 6.14341 5.95814C6.274 5.64678 6.46539 5.36399 6.7066 5.12599C6.94782 4.88799 7.23411 4.69946 7.54907 4.57121C7.86404 4.44295 8.20149 4.37749 8.54206 4.37859H35.7582V0H5.18444C3.81013 0.0022139 2.49274 0.543612 1.52095 1.50559C0.549169 2.46756 0.00223647 3.77166 0 5.1321Z" fill="url(#paint12_linear_403_13320)"/>
<path d="M82.1475 5.1321V18.9126C82.1475 19.5872 82.2818 20.2552 82.5429 20.8784C82.804 21.5016 83.1866 22.0678 83.6689 22.5445C84.1512 23.0211 84.7238 23.399 85.3538 23.6564C85.9837 23.9138 86.6588 24.0458 87.3404 24.0447H117.914V19.6744H90.6895C90.3482 19.6755 90.0101 19.6098 89.6946 19.481C89.3791 19.3522 89.0924 19.163 88.8511 18.9241C88.6097 18.6852 88.4185 18.4014 88.2884 18.0891C88.1583 17.7767 88.0919 17.442 88.0931 17.1042V14.0233H115.715V9.65302H88.0931V6.94045C88.0931 6.60331 88.1603 6.26951 88.2909 5.95814C88.4215 5.64677 88.6128 5.36399 88.8541 5.12599C89.0953 4.88799 89.3816 4.69946 89.6965 4.57121C90.0115 4.44295 90.3489 4.37749 90.6895 4.37859H117.914V0H87.3404C85.9646 -1.80623e-06 84.645 0.540434 83.6714 1.50265C82.6978 2.46486 82.1497 3.77021 82.1475 5.1321Z" fill="url(#paint13_linear_403_13320)"/>
<path d="M191.376 0H160.802V24.0447H191.376C192.057 24.0458 192.732 23.9138 193.362 23.6564C193.992 23.399 194.565 23.0211 195.047 22.5445C195.53 22.0678 195.912 21.5016 196.173 20.8784C196.434 20.2552 196.569 19.5872 196.569 18.9126V5.1321C196.566 3.77021 196.018 2.46486 195.045 1.50265C194.071 0.540434 192.752 -1.80623e-06 191.376 0ZM190.623 17.1126C190.623 17.4497 190.556 17.7835 190.425 18.0949C190.295 18.4062 190.103 18.689 189.862 18.927C189.621 19.165 189.335 19.3535 189.02 19.4818C188.705 19.6101 188.367 19.6755 188.027 19.6744H166.748V4.37859H188.027C188.367 4.37749 188.705 4.44295 189.02 4.57121C189.335 4.69946 189.621 4.88799 189.862 5.12599C190.103 5.36399 190.295 5.64677 190.425 5.95814C190.556 6.26951 190.623 6.60331 190.623 6.94045V17.1126Z" fill="url(#paint14_linear_403_13320)"/>
<path d="M121.5 5.1321V18.9126C121.5 19.5872 121.634 20.2552 121.896 20.8784C122.157 21.5016 122.539 22.0678 123.022 22.5445C123.504 23.0211 124.076 23.399 124.706 23.6564C125.336 23.9138 126.011 24.0458 126.693 24.0447H157.258V19.6744H130.042C129.701 19.6755 129.363 19.6098 129.047 19.481C128.732 19.3522 128.445 19.163 128.204 18.9241C127.962 18.6852 127.771 18.4014 127.641 18.0891C127.511 17.7767 127.445 17.442 127.446 17.1042V14.0233H155.068V9.65302H127.446V6.94045C127.446 6.60331 127.513 6.26951 127.644 5.95814C127.774 5.64677 127.965 5.36399 128.207 5.12599C128.448 4.88799 128.734 4.69946 129.049 4.57121C129.364 4.44295 129.702 4.37749 130.042 4.37859H157.258V0H126.693C125.317 -1.80623e-06 123.998 0.540434 123.024 1.50265C122.05 2.46486 121.502 3.77021 121.5 5.1321Z" fill="url(#paint15_linear_403_13320)"/>
</g>
<defs>
<linearGradient id="paint0_linear_403_13320" x1="46.3893" y1="28.0549" x2="46.3893" y2="35.9414" gradientUnits="userSpaceOnUse">
<stop stop-color="#E3B69F"/>
<stop offset="1" stop-color="#C38A6E"/>
</linearGradient>
<linearGradient id="paint1_linear_403_13320" x1="55.6671" y1="27.9878" x2="55.6671" y2="35.9999" gradientUnits="userSpaceOnUse">
<stop stop-color="#E3B69F"/>
<stop offset="1" stop-color="#C38A6E"/>
</linearGradient>
<linearGradient id="paint2_linear_403_13320" x1="65.444" y1="28.0548" x2="65.444" y2="35.8743" gradientUnits="userSpaceOnUse">
<stop stop-color="#E3B69F"/>
<stop offset="1" stop-color="#C38A6E"/>
</linearGradient>
<linearGradient id="paint3_linear_403_13320" x1="74.4173" y1="28.1135" x2="74.4173" y2="35.8745" gradientUnits="userSpaceOnUse">
<stop stop-color="#E3B69F"/>
<stop offset="1" stop-color="#C38A6E"/>
</linearGradient>
<linearGradient id="paint4_linear_403_13320" x1="88.3553" y1="28.1135" x2="88.3553" y2="35.8745" gradientUnits="userSpaceOnUse">
<stop stop-color="#E3B69F"/>
<stop offset="1" stop-color="#C38A6E"/>
</linearGradient>
<linearGradient id="paint5_linear_403_13320" x1="97.354" y1="27.9878" x2="97.354" y2="35.9999" gradientUnits="userSpaceOnUse">
<stop stop-color="#E3B69F"/>
<stop offset="1" stop-color="#C38A6E"/>
</linearGradient>
<linearGradient id="paint6_linear_403_13320" x1="107.131" y1="28.0549" x2="107.131" y2="35.8744" gradientUnits="userSpaceOnUse">
<stop stop-color="#E3B69F"/>
<stop offset="1" stop-color="#C38A6E"/>
</linearGradient>
<linearGradient id="paint7_linear_403_13320" x1="121.745" y1="28.1136" x2="121.745" y2="35.8745" gradientUnits="userSpaceOnUse">
<stop stop-color="#E3B69F"/>
<stop offset="1" stop-color="#C38A6E"/>
</linearGradient>
<linearGradient id="paint8_linear_403_13320" x1="132.749" y1="27.9878" x2="132.749" y2="35.9999" gradientUnits="userSpaceOnUse">
<stop stop-color="#E3B69F"/>
<stop offset="1" stop-color="#C38A6E"/>
</linearGradient>
<linearGradient id="paint9_linear_403_13320" x1="142.525" y1="28.055" x2="142.525" y2="35.8745" gradientUnits="userSpaceOnUse">
<stop stop-color="#E3B69F"/>
<stop offset="1" stop-color="#C38A6E"/>
</linearGradient>
<linearGradient id="paint10_linear_403_13320" x1="150.763" y1="28.1135" x2="150.763" y2="35.8745" gradientUnits="userSpaceOnUse">
<stop stop-color="#E3B69F"/>
<stop offset="1" stop-color="#C38A6E"/>
</linearGradient>
<linearGradient id="paint11_linear_403_13320" x1="58.9571" y1="0" x2="58.9571" y2="24.0447" gradientUnits="userSpaceOnUse">
<stop stop-color="#E3B69F"/>
<stop offset="1" stop-color="#C38A6E"/>
</linearGradient>
<linearGradient id="paint12_linear_403_13320" x1="17.8791" y1="0" x2="17.8791" y2="24.0447" gradientUnits="userSpaceOnUse">
<stop stop-color="#E3B69F"/>
<stop offset="1" stop-color="#C38A6E"/>
</linearGradient>
<linearGradient id="paint13_linear_403_13320" x1="100.027" y1="0" x2="100.027" y2="24.0447" gradientUnits="userSpaceOnUse">
<stop stop-color="#E3B69F"/>
<stop offset="1" stop-color="#C38A6E"/>
</linearGradient>
<linearGradient id="paint14_linear_403_13320" x1="178.69" y1="0" x2="178.69" y2="24.0447" gradientUnits="userSpaceOnUse">
<stop stop-color="#E3B69F"/>
<stop offset="1" stop-color="#C38A6E"/>
</linearGradient>
<linearGradient id="paint15_linear_403_13320" x1="139.379" y1="0" x2="139.379" y2="24.0447" gradientUnits="userSpaceOnUse">
<stop stop-color="#E3B69F"/>
<stop offset="1" stop-color="#C38A6E"/>
</linearGradient>
<clipPath id="clip0_403_13320">
<rect width="197" height="36" fill="white"/>
</clipPath>
</defs>
</svg>
