<svg width="174" height="38" viewBox="0 0 174 38" fill="none" xmlns="http://www.w3.org/2000/svg">
<path fill-rule="evenodd" clip-rule="evenodd" d="M15.3785 0.167203C9.50548 0.839555 4.84637 3.96422 2.27382 8.95559C0.737198 11.937 0.183147 14.2253 0.0395314 18.1846C-0.0473187 20.5736 -0.00469792 21.3704 0.305276 23.1683C1.59102 30.6253 6.04419 35.7096 12.8574 37.4994C14.6139 37.9609 18.6908 38.1333 20.7559 37.8337C24.9814 37.2205 28.9932 35.311 32.079 32.444L32.7525 31.8182L32.7057 24.4682L32.659 17.1182L24.8246 17.0718L16.9902 17.0256V20.9339V24.8421L20.7059 24.8903L24.4217 24.9383L24.475 25.8474C24.5271 26.739 24.5108 26.7717 23.6157 27.5706C22.2753 28.7668 20.1529 29.4704 17.8855 29.4704C15.3814 29.4704 13.2479 28.6356 11.6524 27.0316C10.4411 25.814 9.7893 24.5883 9.2725 22.5565C8.94802 21.281 8.90541 20.7112 8.97918 18.6465C9.03004 17.2252 9.18673 15.7902 9.35953 15.1632C10.1127 12.4316 11.7501 10.226 13.7441 9.2579C14.5895 8.84735 15.0293 8.76062 16.5402 8.70694C18.0501 8.65309 18.4971 8.70428 19.3713 9.03094C20.7706 9.55365 22.1134 10.8719 22.9021 12.4972C23.2341 13.1815 23.5242 13.7683 23.5467 13.8014C23.5856 13.8584 32.6001 11.3519 32.7131 11.2526C32.8852 11.1013 31.3645 7.8988 30.5286 6.65203C28.0244 2.9165 24.2383 0.658451 19.6385 0.156897C17.7004 -0.0544233 17.3059 -0.0535376 15.3785 0.167203ZM81.0085 0.161519C76.259 0.590025 71.715 2.71923 68.8479 5.85989C66.1917 8.76933 64.6934 12.4101 64.2694 16.9854C63.6186 24.0052 66.157 30.5364 70.9395 34.1486C74.4384 36.7909 78.3862 38 83.5155 38C91.6298 38 97.6893 34.6169 100.791 28.3548C103.857 22.1652 103.497 13.635 99.9367 8.14283C96.9266 3.49964 92.0345 0.735579 85.7849 0.147471C83.6781 -0.0508758 83.352 -0.0498022 81.0085 0.161519ZM36.33 19.0745V37.1151L48.9993 37.0696L61.6687 37.0239L61.7171 33.1583L61.7652 29.2927H53.435H45.1045V26.0935V22.8944H52.6291H60.1536L60.1054 19.0288L60.0571 15.1632L52.5808 15.1168L45.1045 15.0704V11.9621V8.85375H53.4314H61.7582V4.94369V1.03364H49.0441H36.33V19.0745ZM105.989 19.0732V37.1128H110.375H114.761L114.807 27.2299L114.853 17.3471L121.631 27.2299L128.41 37.1128H132.421H136.431V19.0732V1.03364H132.044H127.657V10.927V20.8205L120.897 10.9355L114.137 1.0507L110.063 1.04216L105.989 1.03364V19.0732ZM151.757 1.18809C151.647 1.36386 138.043 36.9365 138.043 37.0469C138.043 37.0863 140.147 37.0973 142.718 37.0714L147.393 37.0239L148.446 34.1802C149.026 32.6162 149.629 30.9957 149.786 30.5789L150.072 29.8212L156.072 29.868L162.072 29.9147L163.38 33.4693L164.687 37.0239L169.382 37.0714C173.11 37.109 174.061 37.0724 173.997 36.8936C173.953 36.7698 170.861 28.6516 167.127 18.8534L160.338 1.03826L156.095 1.03595C153.762 1.0347 151.809 1.10313 151.757 1.18809ZM85.6291 6.29212C86.6848 6.64918 88.2844 8.06623 88.7783 9.08195C90.006 11.6062 89.4971 14.2574 87.4243 16.1378L86.4923 16.9831L87.4634 24.9596C87.9975 29.3467 88.4359 33.0762 88.4373 33.2472C88.4398 33.536 88.0873 33.5582 83.5155 33.5582C79.473 33.5582 78.591 33.5146 78.591 33.3154C78.591 33.1819 79.0314 29.4462 79.5697 25.0138L80.5483 16.955L79.5998 16.1158C77.1859 13.9805 76.9423 10.3168 79.0592 7.98002C80.0344 6.90351 80.7367 6.45689 82.0079 6.1048C83.1123 5.79911 84.3622 5.86379 85.6291 6.29212ZM157.646 17.8938C158.486 20.167 159.174 22.0621 159.174 22.1051C159.174 22.243 153.109 22.1888 153.031 22.0502C152.951 21.9069 155.963 13.6061 156.061 13.7029C156.093 13.7347 156.806 15.6206 157.646 17.8938Z" fill="#A1A1A1"/>
</svg>
