<svg width="112" height="64" viewBox="0 0 112 64" fill="none" xmlns="http://www.w3.org/2000/svg">
<path fill-rule="evenodd" clip-rule="evenodd" d="M6.40164 18.834C35.6928 18.834 64.9839 18.834 94.275 18.834C94.275 31.7751 94.275 44.7162 94.275 57.6572C94.275 60.5158 91.924 62.8335 89.0245 62.8335H6.40164C3.50209 62.8335 1.15112 60.5158 1.15112 57.6572V24.0102C1.15112 21.1517 3.50209 18.834 6.40164 18.834Z" fill="#A1A1A1"/>
<path fill-rule="evenodd" clip-rule="evenodd" d="M105.191 14.1485C106.93 11.8513 107.81 7.8426 106.432 1.20337C89.0877 3.84618 92.8169 13.1057 94.4668 15.9908C96.5357 12.6549 100.706 7.70356 103.442 5.28465C101.645 7.86203 98.9613 12.1795 97.4701 15.7169C99.8107 13.0761 102.553 12.9248 105.191 14.1485ZM110.652 19.5671C103.051 28.0169 98.9717 23.3406 97.4566 20.8C99.819 20.0302 102.306 19.699 104.792 19.8216C102.281 19.059 99.6561 18.7328 97.0324 18.8565C97.9544 16.6574 101.754 10.2084 110.652 19.5671Z" fill="#7FB918"/>
<path fill-rule="evenodd" clip-rule="evenodd" d="M54.2298 28.4973H56.5123V30.7475H54.2298V28.4973ZM21.5102 42.6059L27.1818 28.4973H30.9576L22.2382 48.7504C20.9596 51.7203 19.2785 53.0361 16.1871 53.1619C14.7581 53.2201 13.1559 52.9236 11.4779 52.3368V49.4967C14.4231 50.3514 14.8048 50.4475 15.8584 50.4281C17.2895 50.4015 18.5018 49.6715 19.879 46.493L11.4779 28.4973H15.121L21.5102 42.6059ZM46.2519 53.1578H43.1065V46.6024C41.7242 46.9612 40.3138 47.1381 38.8682 47.1381C34.4514 47.1381 31.8267 44.8971 31.7914 40.4569V35.065H34.9253V40.5602C34.9253 43.2572 36.2953 44.435 38.8682 44.435C40.3138 44.435 41.7242 44.2581 43.1065 43.8992V35.0997H46.2519V53.1578ZM58.7845 53.1578C52.9086 53.1578 50.063 49.3576 50.063 44.0628C50.063 39.4438 53.1036 35.0997 58.3831 35.0997C64.961 35.0997 66.2107 39.8384 66.2107 44.986H52.9646C53.0538 48.1604 55.3747 50.6274 58.884 50.6274C61.0047 50.6274 62.6505 49.9332 63.9759 48.3813L65.9628 49.7983C64.3668 52.0373 61.9713 53.1578 58.7845 53.1578ZM58.3821 37.5371C55.3145 37.5371 53.423 39.912 53.0735 42.5456H63.307C63.307 39.8476 61.4538 37.5371 58.3821 37.5371ZM83.9471 37.5953H77.7954V53.1567H74.6615V37.5953H68.6311V35.0987H83.9482V37.5953H83.9471ZM59.7593 28.5178H62.0418V30.768H59.7593V28.5178Z" fill="black"/>
</svg>
